/* XPM */
static char *result[] = {
/* columns rows colors chars-per-pixel */
"64 64 101 2 ",
"   c #4C2611",
".  c #4F2913",
"X  c #512B14",
"o  c #522F1A",
"O  c #4F311E",
"+  c #593117",
"@  c #55321C",
"#  c #5A351D",
"$  c #5E391E",
"%  c #613B1F",
"&  c #563521",
"*  c #583724",
"=  c #5B3B26",
"-  c #563B2B",
";  c #5B3C29",
":  c #623D23",
">  c #626017",
",  c #696A19",
"<  c #6E721A",
"1  c #72751B",
"2  c #75791E",
"3  c #5D412E",
"4  c #5B4332",
"5  c #5F4E3F",
"6  c #644226",
"7  c #65442A",
"8  c #68462A",
"9  c #67482B",
"0  c #6A4A2D",
"q  c #634633",
"w  c #654935",
"e  c #6D4E31",
"r  c #644F3C",
"t  c #6E5234",
"y  c #66513E",
"u  c #6D563E",
"i  c #715536",
"p  c #765837",
"a  c #735738",
"s  c #755A3A",
"d  c #795E3E",
"f  c #777A20",
"g  c #7A7D22",
"h  c #7A603E",
"j  c #5A4C41",
"k  c #5C5247",
"l  c #5E5449",
"z  c #655443",
"x  c #695642",
"c  c #6C5A46",
"v  c #61574D",
"b  c #62584C",
"n  c #6D5B48",
"m  c #705B43",
"M  c #7A5F40",
"N  c #705D48",
"B  c #655C51",
"V  c #685F55",
"C  c #665F58",
"Z  c #7C6141",
"A  c #75634D",
"S  c #666057",
"D  c #696155",
"F  c #676159",
"G  c #6B665D",
"H  c #6D695E",
"J  c #756451",
"K  c #786651",
"L  c #736857",
"P  c #7A6954",
"I  c #706A5E",
"U  c #7C6D5B",
"Y  c #6F6A60",
"T  c #726D62",
"R  c #747266",
"E  c #767469",
"W  c #79766B",
"Q  c #7E7A6F",
"!  c #7F7B72",
"~  c #816645",
"^  c #836947",
"/  c #856B4B",
"(  c #896E4E",
")  c #8A714F",
"_  c #907756",
"`  c #937B5C",
"'  c #8C7D68",
"]  c #817C71",
"[  c #8E806D",
"{  c #9B8567",
"}  c #828076",
"|  c #868579",
" . c #89867B",
".. c #8C897D",
"X. c #938472",
"o. c #8E8B81",
"O. c #918E86",
"+. c #949287",
"@. c #94928B",
"#. c #9A978E",
"$. c #9E9A92",
/* pixels */
"1 1 1 1 1 1 1 1 1 1 1 1 1 1 1 1 1 1 1 1 1 1 1 1 1 1 1 1 1 1 1 1 1 1 1 1 1 1 1 1 1 < < 1 1 1 1 1 1 1 1 1 1 1 1 1 1 1 1 1 1 1 2 g ",
"1 1 1 1 1 1 1 1 1 1 1 1 1 1 1 1 1 1 1 1 1 1 1 1 1 1 1 1 1 1 1 1 1 1 1 1 1 1 1 1 1 1 1 1 1 1 1 1 1 1 1 1 1 1 1 1 1 1 1 1 1 1 1 < ",
"1 1 1 1 1 1 1 1 1 * ; 3 3 4 3 3 3 ; ; ; = = ; = = = = ; = = = = = = ; = = = = ; = = ; ; = ; z = = ; = = = = = = 1 1 1 1 1 1 1 1 ",
"1 1 1 1 1 1 1 1 = | | | | | | | | | | | | | | | | | | | | | |  .| | | | | | | | | | | | | | r | | | | | | | | | #.< 1 1 1 1 1 1 ",
"1 1 1 1 1 1 1 1 ; | |  .@.@.@.@.@.@.@.@.@.@.@.@.@.@.@.@.@.w q q w @.@.@.@.@.@.@.@.@.@.@.@.@.; @.@.@.@.@.@.@.}  .@.1 1 1 1 1 1 1 ",
"1 1 1 1 1 1 1 1 ; | | | r . . S . C . F F X F F F F . . q o..... .w F F F . G . F . F G . . . F F . X . j . | | @.1 1 1 1 1 1 1 ",
"1 1 1 1 1 1 1 1 ; | | | , G G G G Y G G Y F G G G G G G 7 $.#.#.#.q . G G G G G G G G Y G G F Y G G G G H . | | @.1 1 1 1 1 1 1 ",
"1 1 1 1 1 1 1 1 ; w w @ , v G G G G G G G Y H F G G G G @ ! E T R X G G G H G G G G G F Y G Y F G G G G H . | | @.1 1 1 1 1 1 1 ",
"1 1 1 1 1 1 1 1 ; | | | , v H G F Y F F Y F . .   X . X + ] T T I + G . X X G X   F Y F G G G Y F H Y F H . | | @.1 1 1 1 1 1 1 ",
"1 1 1 1 1 1 1 1 ; | | | , v H G Y F Y v Y X o.o.o.o. ...] ] U T I K L |  .] ]  .q Y F Y Y F Y F Y G G Y G . | | @.1 1 1 1 1 1 1 ",
"1 1 1 1 1 1 1 1 ; | | | , v G G G Y G v F   o.o.o. ..... .] T T T J | |  . .] | q Y Y G F Y F Y F Y H F G . | | @.1 1 1 1 1 1 1 ",
"1 1 1 1 1 1 1 1 ; | | | , l G G G G G v Y   R G G I G Y T Y G Y H I H H G C G W   F H G Y F Y G Y F H F H . | | @.1 1 1 1 1 1 1 ",
"1 1 1 1 1 1 1 1 ; | | | , B G G Y F Y v G X R C G G I I T I I Y Y H I C G C C W X F Y G G Y Y G G Y F Y H . | | @.1 1 1 1 1 1 1 ",
"1 1 1 1 1 1 1 1 * | | | , v Y l v v v v G X X X X X X X X R G L G X X X X X . X G Y v v v l v v v v v l l   | | @.1 1 1 1 1 1 1 ",
"1 1 1 1 1 1 1 1 * @.@.@., B G G Y F G G G G G G G G I G X W G G L X G H G G H G Y F Y F Y F Y F v F Y F G . z z . 1 1 1 1 1 1 1 ",
"1 1 1 1 1 1 1 1 * | | | , l G G G G G G G G Y G G G G G X R G F C . G G G G G G F Y F Y F Y F Y v Y F Y H .  .| @.1 1 1 1 1 1 1 ",
"1 1 1 1 1 1 1 1 * | | | > b G H F Y Y F Y Y F Y G G G H . T C B S . G G G G G H G G F Y F Y F Y v F Y Y G   | | @.1 1 1 1 1 1 1 ",
"1 1 1 1 1 1 1 1 * | | | > l G G Y l v l l v l Y G G G G . T B B l . H G G G G G G G Y F Y F Y G v Y Y F Y . | | @.1 1 1 1 1 1 1 ",
"1 1 1 1 1 1 1 1 * | | | > b H G F Y F Y Y F Y F G G G G . Y B v S . G G G H G G G Y F Y G G G G l Y F Y G . | | @.1 1 1 1 < 1 1 ",
"2 1 f 1 1 1 1 1 * | | | > b H G Y G Y F F Y F Y G & @ * . Y B B l . O .   G G G Y F Y G G G Y F v F Y F G . | | @.1 1 1 2 f 1 2 ",
"2 f < 1 1 1 1 1 = }  . .> v Y F Y F Y F Y F Y Y . Q Q H X H v l S . l L H . G G F Y G G F Y F Y v Y G Y F . | | @.1 1 1 < 1 f f ",
"< < < 1 1 1 1 1 = } }  .> v F Y F Y F Y F Y Y F . Q Q Q . G v v b . L G H   H G Y F G G Y Y Y F Y F G Y Y . @.@.@.1 1 1 1 < f 1 ",
"1 < 1 1 1 1 1 1 = q 5 & > v Y F Y G Y G F Y F Y . Q ] Q X G z j k . H H H   F Y F Y Y F G l G Y Y F Y F F . | | @.1 1 1 1 < < 2 ",
"1 1 1 1 1 1 1 1 = } } | > j Y l v l v v v v v F . Q ] ! ] 7 * # $ L H H Y   Y v v v v v Y l G F F Y F Y Y   | | @.1 1 1 1 1 1 1 ",
"1 1 1 1 1 1 1 1 = | | | , j F Y Y F Y F G G Y G   ! } ! O... . . .| +.I H X H G Y F Y G G l F Y G G G G G . | | @.1 1 1 1 1 1 1 ",
"1 1 1 1 1 1 1 1 * | | | , j Y F G Y F Y G G F Y   ! } +....... .| |  .I I o G G G G G G v v Y F G H G H G . | | @.1 1 1 1 1 1 1 ",
"1 1 1 1 1 1 1 1 * | | | , j Y F Y G Y F G G F Y . $.$.$.+.+.+.+.+.+.O.@.#.. G G G G Y F v v Y Y G G H F H . | | @.1 1 1 1 1 1 1 ",
"1 1 1 1 1 1 1 1 * | | | , j G Y F G G Y G G Y G . Q T R T G G D G S G H T . G H G G G Y v v G G G G G G G . | | @.1 1 1 1 1 1 1 ",
"1 1 1 1 1 1 1 1 * | | | , j H F Y F F Y G G G G . . I G H H G G G G F F T . G G G G G F l B G G G G G G G . | | @.1 1 1 1 1 1 1 ",
"1 1 1 1 1 1 1 1 * @.@.@., 5 G G F Y Y F G G G G G . R G G G H D F F F F Y . H G G Y G Y B l G G G G G H G . b z . 1 1 1 1 1 1 1 ",
"1 1 1 1 1 1 1 1 * | | | , j F Y Y G G Y G Y F G G G G G H G G G G G G G G G G G Y F Y G G l G G Y G G G G . | | @.1 1 1 1 1 1 1 ",
"1 1 1 1 1 1 1 1 * | | | , F Y F G G Y F Y F Y G G G G G G G G G G G G G H G G G F Y F G Y v G G G G G G G . | | @.1 1 1 1 1 1 1 ",
"1 1 1 1 1 1 1 1 O | | | | | | | | | | | | | | | | | | | | | | | | | | | | | | | | | | | | | 4 | | | | | }  . .| @.1 1 1 1 1 1 1 ",
"1 1 1 1 1 1 1 1 O | | | | | | | | | | | | | | | | | | } | | | | | | | | | | | | | | | | | | z | | | | |  .} | | #.1 1 1 1 1 1 1 ",
"1 1 1 1 1 1 1 1 X T Y Y T T T T T T Y T Y Y Y Y Y Y Y Y Y H Y G H G Y Y Y Y G H Y G G Y Y Y 4 Y H H Y H H G G G | 1 1 1 1 1 1 1 ",
"1 1 1 1 1 1 1 1 . G G H G H H H Y Y Y Y Y Y Y Y H H G Y Y G G Y H Y G H G G H G G G Y G G F 4 H G G G G G G G G ! 1 1 1 1 1 1 1 ",
"1 1 1 1 1 1 1 1 . G G G G H G G Y Y Y Y Y Y Y F G G Y G H H G G H G G G G G Y F Y F Y Y F Y - Y G G G F G G F F ! 1 1 1 1 1 1 1 ",
"1 1 1 1 1 1 1 1 . S F S F G G G Y F Y F Y Y F Y G G G F G G F H F Y F Y F G G G G G F F F Y 4 F G G G G G F G F Q 1 1 1 1 1 1 1 ",
"1 1 1 1 1 g 2 1   S S S F G F F F F C C F F G F F G F G F G G G F F G F F F F F Y F F F F Y & C F G F G F F S S E < 1 1 1 1 1 1 ",
"1 1 1 1 1 2 g 1 . S S S S F F S F F F C F F F F F F F F C V V V F F F F F F F F F F F F F F & F F F F F F S S C R 1 1 1 1 1 1 1 ",
"1 1 1 1 1 < 1 2 <                       o   o   X . . . X . X . o . . . . . . X . . X   X X k X . . . . . . . X < 1 1 1 1 1 1 1 ",
"1 1 1 1 1 1 < < 1 . H H H D . b v l l l l k k k k k k k k 8 0 e 6 0 e t O z k k k k k k l k k k l l l . b b b b 1 1 1 1 1 1 1 1 ",
"1 1 1 1 1 1 1 1 1 . H H H G k l l l l l k k k k k e _ _ % ( ) ( + / / ( + d d % k k k l k l k k l l l . b b b b 1 1 1 1 1 1 1 1 ",
"1 1 1 1 1 1 1 1 1 . H H H H . l v l l l l k k 7 # ( { { % s d p % d d d # _ _ ) : i l k l k l k l l l . b b b b 1 1 1 1 1 1 1 1 ",
"1 1 1 1 1 1 1 1 1 o H H H H   & o 4 X 4 . . / ` : p ~ ~ 8 Z Z Z 6 d Z Z 0 ^ Z Z 7 M i # X - 4 X v . . b b b b D 1 1 1 1 1 1 1 1 ",
"1 1 1 1 1 1 1 1 1 o H H H Y   F C F F F F 7 d d 6 ^ ~ ~ 0 Z Z M 8 Z Z Z 0 Z Z Z e M M / - F F F F F F . b v B b 1 1 1 1 1 1 1 1 ",
"1 1 1 1 1 1 1 1 1 o H T T H T F C F F F : ( a s 0 ~ ~ ~ 8 Z Z M 8 ^ Z Z 0 Z h Z t d d d @ F F F F F F . b b B B 1 1 1 1 1 1 1 1 ",
"1 1 1 1 1 1 1 1 1 o T Y I H . F F F F F # # % * : : : X.0 d M M 8 ^ Z Z 0 6 % : : : # # X F F F F F F . b D b B 1 1 1 1 1 1 1 1 ",
"1 1 1 1 1 1 1 1 1 o H T H H X S C C C C @ m A A P P P / ' 6 M d 9 ^ Z Z X.P K K N A A c   C C C F F F . b D b b 1 1 1 1 1 1 1 1 ",
"1 1 1 < 1 1 1 1 1 o W . W X . H   Y X Y o 7 6 7 % 0 e o e M d M 9 / Z Z 0 9 0 0 9 9 8 8 . Y Y Y H H Y . D D H H 1 1 1 1 1 1 1 1 ",
"1 1 1 1 1 1 1 1 1 # R T T T . S C C C C X a s p : M M M e d d d 9 ( Z h 0 Z d d i p i a . C C C C C C . b D D B 1 1 1 1 1 1 1 1 ",
"1 1 1 1 1 1 1 1 1 O T R T R T S C C C C X a a a 0 M d d e s d d 8 / Z Z e Z d d e i u a X C C C C C C . D B D } 1 1 1 1 1 1 1 1 ",
"1 1 1 1 1 1 1 1 1 & R R R R   S C C C C X i a a 0 M s s 0 s d # % : h h i M s d 0 i i i X C C C C C C   V V E } 1 1 1 1 1 1 1 1 ",
"1 1 1 1 1 1 1 1 1 & R E R R . H F H Y Y X i p i e M s p 0 d * A A A # h t Z d s 9 i t t X G Y Y Y G Y   C D E } 1 1 1 1 1 1 1 1 ",
"1 1 1 1 1 1 1 1 1 & E E E E T S C C C C X a i a e Z i p e a X u u u X s 0 M s s 7 t t t . C C C C C C . D E E } 1 1 1 1 1 1 1 1 ",
"1 1 1 1 1 1 1 1 1 & E E E E   S C C C C . @ + # * # * [ 0 a a 0 # 7 s a 0 : : % * # @ @ . C C C C C C . D E E } 1 1 1 1 1 1 1 1 ",
"1 1 1 1 1 1 1 1 1 & . . W E . F C C C C . x n N A A A P X a a a 6 i i p X A A A c m m u . S C C C C C   E E E ! 1 1 1 1 1 1 1 1 ",
"1 1 1 1 1 1 1 1 1 & . W . W W E E E E E . : 6 8 # 9 0 X 6 i i i 6 i i i 6 9 6 7 3 6 6 % . E @ E E E E R E E E o.1 1 1 1 1 1 1 1 ",
"1 1 1 1 1 1 1 1 1 & W W W W W E E E E E . e t e 3 t i t 3 i i i @ i t i 3 d s s = e e 0 . R z E E E R E E E E +.1 1 1 1 1 1 1 1 ",
"1 1 1 1 1 1 1 1 1 & O.o.o.| | | | | | | . A A A P A A P K P P I . W U P P P J J J J J A . | z | } o.o.| | o.o.+.1 1 1 1 1 1 1 1 ",
"1 1 1 1 1 1 1 1 2 . S F S F S S S S S S . y y y y y c c c c n n . J n n c c c x x y y y . S z F C F F F D S S H 1 1 1 1 1 1 1 1 ",
"1 1 1 1 1 1 1 1 1 < . .     . . . X . . . r y x x x x c c c n n . A n n c c x c x x y r   . . .     .   . X . . 1 1 1 1 1 1 1 1 ",
"1 1 1 1 1 1 1 1 1 1 1 1 1 1 1 1 1 1 1 < < 1 1 1 1 1 1 f 2 < 2 2 1 1 1 1 1 1 < 1 1 1 1 1 < 1 1 1 1 1 < 2 1 1 1 1 1 1 1 1 1 1 1 1 ",
"1 1 1 1 1 1 1 1 1 1 1 1 1 1 1 1 1 1 1 1 1 1 1 1 1 1 1 2 1 < 2 2 2 1 1 1 1 1 1 1 1 1 1 1 1 1 1 1 1 1 2 < 1 1 1 1 1 1 1 1 1 1 1 1 "
};
