/* XPM */
static char *result[] = {
/* columns rows colors chars-per-pixel */
"64 64 104 2 ",
"   c black",
".  c #0E0C0C",
"X  c #051C22",
"o  c #4D2712",
"O  c #4F2913",
"+  c #512B14",
"@  c #522F1A",
"#  c #593117",
"$  c #55331D",
"%  c #5A341C",
"&  c #5E391E",
"*  c #613B1F",
"=  c #563521",
"-  c #583724",
";  c #5D3A23",
":  c #563B2B",
">  c #5B3C29",
",  c #623D22",
"<  c #656C17",
"1  c #686F16",
"2  c #72751B",
"3  c #584132",
"4  c #644226",
"5  c #664429",
"6  c #68462A",
"7  c #66482B",
"8  c #6B4A2D",
"9  c #644733",
"0  c #654A36",
"q  c #6D4E30",
"w  c #664D3A",
"e  c #694F3B",
"r  c #6F5134",
"t  c #66523F",
"y  c #6D563E",
"u  c #715637",
"i  c #765837",
"p  c #735738",
"a  c #755A3A",
"s  c #795D3E",
"d  c #787B21",
"f  c #5A4C41",
"g  c #5C5247",
"h  c #5E544A",
"j  c #655444",
"k  c #695642",
"l  c #6B5945",
"z  c #61574D",
"x  c #62584C",
"c  c #6D5B48",
"v  c #705B43",
"b  c #7A5F40",
"n  c #705D48",
"m  c #655C51",
"M  c #685F54",
"N  c #665F58",
"B  c #64604B",
"V  c #7C6242",
"C  c #75634D",
"Z  c #666057",
"A  c #6B6255",
"S  c #676159",
"D  c #6B665D",
"F  c #6D695E",
"G  c #756552",
"H  c #786752",
"J  c #736857",
"K  c #7A6A55",
"L  c #716A5E",
"P  c #7D6F5D",
"I  c #6E6A60",
"U  c #726D62",
"Y  c #757166",
"T  c #7A7365",
"R  c #767469",
"E  c #79766B",
"W  c #7E796E",
"Q  c #7F7B71",
"!  c #816645",
"~  c #846A4B",
"^  c #896E4E",
"/  c #8A714F",
"(  c #907756",
")  c #907857",
"_  c #937B5C",
"`  c #8C7D68",
"'  c #807F72",
"]  c #7F8226",
"[  c #8E806D",
"{  c #9B8567",
"}  c #828076",
"|  c #8A8575",
" . c #868579",
".. c #88867C",
"X. c #8E897B",
"o. c #938472",
"O. c #908B7C",
"+. c #8D8B81",
"@. c #918E86",
"#. c #949186",
"$. c #94928B",
"%. c #9A978E",
"&. c #9E9A92",
"*. c None",
/* pixels */
"2 2 2 2 2 2 2 >  . . . . . . . . . . . . . . . . . . . . . . . . . . . . . . . .....' ....j ' +.' ..' +... . .$.. . . . . . . . ",
"2 2 2 2 2 2 2 $. . . .$.$.$.$.$.$.$.$.$.$.*.*.$.$.$.$.$.$.+ 9 9 9 9 + $.$.$.$.$.$.$.$.$.$.> $.$.%.$.$.$.$... .$.. . . . . . . . ",
"2 2 2 2 2 2 2 >  . . .. D D D D D D D I D D D I D D D D D +.@.X.X.X.+ . S A D D D D D D D D D D I D D D I ' +.$.. . . . . . . . ",
"2 2 2 2 2 2 2 :  . . .X D D D D D D D N D D D D D D D D D X.%.$.%.%.O O . . D D D D D D D D D D D D D D I ..' $.. . . . . . . . ",
"2 2 2 2 2 2 2 3 0 0 $ X h D D D D D D I I N D D D D D D D +.' T ' U O . . D D . D D D D I D D D D D I D D ' ' $.. . . . . . . . ",
"2 2 2 2 2 2 2 3  . . .X z F D F D D D D N I D +.+.+.+.X.+.+.' ' U ' O +.@.@.+.+.@.O . D D D D D D D D D D +...$.. . . . . . . . ",
"2 2 2 2 2 2 2 3  . . .X h D D D I D z D I I D $.U F L D ' L D U U U G L L L L  .I O . D D D D D D D D D D +.' $.. . . . . . . . ",
"2 2 2 ........3  . . .X m D D D N I z D I N D +.D ' L L F L L U ' ' G D W D ' D D + ....D D D D D D D D D ' ..$.. . . . . . . ..",
"2 2  .' ' ' ' 3  . . .X h D D D D D z D D I D $.A D ' ' U ' D ' L ' ' L ..' N N L o ' L D D D D D D F D D  . .$.. . . . . . . +.",
"2 1 +.Q ' ' ' 3  . . .X z F F D D D z D D D D $.A L I L I L ' ' D L D L D N ..N ' o . L D D D D D D D D D  . .$.. . . . . . . ' ",
"] 2 +.Q ' ' ' 3  . . .X h D h m z z z D D D D +.+.+.+.+.+.+.R D ' L +.+.@.+.+.@.@.O . z z z z z h h h F D  . .$.. . . . . . f +.",
"2 2 +.' ' ' ' 3 $.$.$.X m D D D D D D D D D D D D D D D D O.T D T D O . . . . . D D D D D D D z F I D F D j j O . . . . . . Q  .",
"2 2 +.Q ' ' ' 3  . . .X h D I D D D I D D D I D D D D I D +.Y D ..' O . . . . D D D D D D D D z D D D F D  . .$.. . . . . f Q +.",
"2 2  .' ' ' ' 3  . . .X h I D D D D D D D D D D D D D D D +.U N m L O . . . D D D D D D D D D z D D D D D  . .$.. . . . . +.+.m ",
"2 d +.' ' ' ' 3 :  . .X h D D D z z z z z z z z D D D D D X.U m ' U + . . D D D D D D D D D D z D D D D D  . .$.. . . . B Z z 2 ",
"2 1  .' ' ' ' 3  . . .X m D D D D D D D D D D D D D D D D +.I m ' ' + . . L D D D D D D D D D z F D D D D  . .$.. . . . 2 d d ] ",
"2 2 +.+.+.} Q 3  . . .X h F D D D D D D D D D D D D +.+.+.+.F m ..x O . . . D D S I I S I S I z D D D I D  . .$.. . . 2 2 2 ] < ",
"2 2 2 B B +.' 3  . . .X h D D D D I D D D I D D D X.W W I X.D z ..x O h D D . D I I S I I I S h D D D D D  . .$.. . 2 2 2 ] < 1 ",
"2 2 2 2 2 B +.3  . . .X z D D D D D D D D D D D D +.W W W +.D z h m O J D J . D S I I S S I S I D D D D D $.$.$.. . 2 2 2 2 2 2 ",
"2 2 2 2 2 2 B : 0 0 $ X z I D D D D D D D D D D D X.' W W +.L f g g O L F L . F I S S I z S I S D D D D D  . .$.. . 2 2 2 2 2 2 ",
"2 2 2 2 2 2 2 3  . . .X f D z h z h z h h h z z D +.Q ' Q Q +.+.X.O.L L L L . F h z z I z I D I D D D D D  . .$.. 2 2 2 2 2 2 2 ",
"2 2 2 2 2 2 2 -  . . .X f D I D I D I D I D D I F +.' ' } X..... . .} @.L I . F I S I S z S I S D D D D D  . .$.. 2 2 2 2 2 2 2 ",
"2 2 2 2 2 2 2 -  . . .X f D D D D D D D D D I D D X.' } #.+.X.X.X... . .I I . . S I I h z I S I D D D D D  . .$.. d 2 2 2 2 2 2 ",
"2 2 2 2 2 2 2 -  . . .X f D D D I D D D D I h D F X.&.&.&.#.#.#.#.#.@.#.$.$.. S I S I z z S I S I D D D D  . .$.. d ] 2 2 2 2 2 ",
"2 2 2 2 2 2 2 3  . . .X f D D D S I S I D h I D D +.E U U Y D D S D S F L U . . D D D h B I S I D D D D F  . .$.O . . . 2 2 2 2 ",
"2 2 2 2 2 2 2 3  . . .X f D D D I S I S I S D D D +.+.+.D F D D A F D S S U . . D D D h h I I D D D D D D  . .$.Y O . . 2 2 2 2 ",
"2 2 2 2 2 2 2 3 $.$.$.X f D D I I S D D S I D D D +.+.U +.X.+.+.+.+.S S +.+.+.D D D F h z S I D D D D D D j h O Y R O . . 2 2 2 ",
"2 2 2 2 2 2 ] 3  . . .X f D D D S I D D I S I D D D D D D D D D D D D D D D D D F D D D z I D D D D D D D  . .$.Y R E O . 2 2 2 ",
"2 2 2 2 2 2 d 3  . . .X D D D D I S I S I h z I D D D D D D D D D D D D F D D D D D D D h F D D D D F D I }  .$.R +.+.O ' +.1 2 ",
"2 2 2 2 2 2 d 3  . . . . . . . . . . . . . . . . . . . . . . . . . . . . . . . . . . . ...3  . . . . . . . . .$.+.S S O '  .2 2 ",
"2 2 2 2 2 2 d 3 $. . . . . . . . . . . . . . . . . . . . . . . . . . . . . . . . . . .....j  . . . . . .}  . .%.N Z S O '  .2 2 ",
"2 2 2 2 2 2 < o I I I I I I U U I I I Y I I I I I F F I F I F D F I D I F F F F F F F I F 3 I D I D F D I S I  .S Z S O ' +.2 2 ",
"2 2 2 2 2 2 2 o D F I F F I F I I I I I I I D I I I I I F F F F I D D F D I D D D I D D F 3 D I D D D D D D D Q S O O ' ' +.1 2 ",
"2 2 2 2 2 2 2 o S D S D D D F F D I I I I I D I D D D D D F D D D D D D D D D D D D D D D 3 D D D D D D D S S Q O Q ' ' ' +.2 2 ",
"2 2 2 2 2 2 2 o S D S D D D D D S I I I D S D D D S D D D D D D D D S D D D D D D D S D D 3 D D D D S D S D S Q ' ' ' ' Q  .2 2 ",
"2 2 2 2 2 2 2 o Z S S S S S S S N N S S D S S D S D S D S S S D S D S D S S D S S D S D D $ S S S S S S S Z S Q ' ' ' ' ' +.2 2 ",
"2 2 2 2 2 2 2 o Z Z Z Z S S S S N N S S S S S S S S S S M A N S S S S S Z S S S S S S S S $ S S S S S Z Z Z Z Q ' ' ' ' '  .1 d ",
"2 2 2 2 2 2 2 2 3 3 3 3 3 3 3 3 3 O O O O 3 O O O 3 O O + + + : 3 3 O O O O O 3 O O O 3 O g + + + + O + + O Q Q } ' ' ' ' +.2 2 ",
"2 2 2 2 2 2 2 2 3 F D D I O h h h h h h D D g D D D I g 8 8 q ,       . D D I g h g h g h h g h 3 h + z z x z Q ' ' ' ' ' @.2 2 ",
"2 2 2 2 2 2 2 2 3 D D D I h h D I S I I g g D D q ( ) & / / ^ #       .       D D D g g h g h h h h O z z x j Q ' ' +.+.+.h 2 2 ",
"2 2 2 2 2 2 2 2 O F F F F O h h g h g g g g 5 ; ^ { { * a i i *                   I D D h h h h h h O h D F m Q ' +.B B B 2 2 2 ",
"2 2 2 2 2 2 2 2 @ F F F F O F F I I I I o ~ _ , i ! ! 4 s ! V 6                       D 3 3 o h O O x F D F m Q +.B 2 2 d ] ] 2 ",
"2 2 2 2 2 2 2 2 $ D F F L O h h g h h h 6 a a 4 ~ ! ! 8 V s V 6                       : S D h D h D O z h F x z B 2 2 d ] ] 2 2 ",
"2 2 2 ] ] 2 2 2 $.F Y F L U F D I N I > ^ a a 9 V ! ! 9 s ! s 7                       $ S S S S S S O x z m Z z 2 2 2 d 2 < 2 2 ",
"2 2 2 ] ] 2 2 2 $ F F F U O h D D D D D & * * , , , o.q s V b 7                       + S S D S S S O x m m m z 2 2 2 d < 2 2 2 ",
"2 2 2 1 ] 1 2 2 @ U F U I O h h h h z # v C n H K K ^ ` 4 s s 6                       + S S S N S S O x x m x z 2 2 2 d < 2 2 2 ",
"2 2 2 2 1 2 ] 1 $.E o W o O D I h D I @ 4 4 6 , 8 8 + u s s s 7                       + D I D I D F O A S F F z d 2 2 < d ] 2 2 ",
"2 2 2 2 2 2 0 ' = U U U U O N N N N N @ a p p , b V s q s b s 7                       + N N N N S Z O Z m Z B } d 2 2 d d < 2 2 ",
"2 2 2 2 2 0 | ' $ Y Y U U U S Z S N N + p p p 8 V s s q s a a 7                       + N N h N N N O m Z B } 3 d < d d < 2 2 2 ",
"2 2 2 2 w | | ' $ Y Y Y Y O h h h g h + p p p 7 V p a q a a & ;                       + N N N N N N O Z Z R } x 2 2 2 2 2 2 2 2 ",
"2 2 2 2 q | [ W $.Y Y Y R O D I D I I O p p p q V p p 8 a & G C                       + D I D I D D O A Z R } z 2 2 2 2 2 2 2 2 ",
"2 2 2 0 X.| | } = R R Y R I Z Z N N N O r p r q b p u q a O y y                       O N N N N S N O A R R } z 2 2 2 2 2 2 2 2 ",
"2 2 w #.O.| | } = E R R R O S N Z S N O # # $ & ; & [ q p p 7 $                       O N N N N N N O S R R } z 2 2 2 2 2 2 2 2 ",
"2 2 w #.X.X.| } $.O O R R O h N h Z h o k c C C C G G O p p p 4                       O N N N N N N O R R R } z 2 2 2 2 2 2 2 2 ",
"2 w #.X.O.| O.} = O E @ E E R R R R Y O , 4 4 % 7 8 O 4 p r p 4                       o R z R R R R 3 R R R +.z 2 2 2 2 2 2 2 2 ",
"7 R #.X.O.X.| } $.E E E E E R R R R R o r r q 4 r r r 4 r p p $                       o R z R R R R R R R R +.z 2 2 2 2 2 2 2 2 ",
"T $.X.O.O.O.O.' : +.+. . . . . . .+.} O A C C G G H K K K K P O                       O ..j  . ... .3  .+.@.@.z 2 2 2 2 2 2 2 2 ",
"T $.O.O.O.O.O.$.$.Z Z Z S S N N Z S N o t t t t k j l l c c c O                       O N j Z 3 N Z Z Z N N U z 2 2 2 2 2 2 2 2 ",
"T $.O.2 2 2 2 ' ' $.$.$.$.$.O O $.O O $.t t k k k k l c l c x O     .               . o h m 3 z h 3 z 3 z z z z 2 2 2 2 2 2 2 2 ",
"T T $.2 ] ] 2 2 ' ' ' ' ' ' ' ' ' ' ' ' W ' ' ' ' ' ' ' ' Q ' ' . . . . . . . . . . . Q Q ' Q ' ' ' ' } Q 2 2 2 2 2 ] 2 2 2 2 2 ",
"T T T 2 < ] d 2 2 2 2 ] 2 S A A O ' ' ' ' ' 2 2 +.B +.' ' ' ' '  .2 ..' ' ' ' ' ' ' '  .2 2 2 2 2 2 < d d d < 2 d d < 2 2 2 2 2 ",
"T 2 2 2 < d d d 2 d ] 2 2 D O O ' ' ' ' ' ' 2 2 B B B +.' ' ' ' +.2 +.' ' ' } ' ' ' ' +.2 2 2 2 2 ] d < d d 2 2 d d < 2 2 2 2 2 ",
"$ 2 ] ] < < d d d d < 2 O O +.' } ' Q } ' ' 2 2 2 2 d B ' ' ' '  .1 +.Q ' ' Q ' ' ' ' ..2 2 2 2 2 < d d < d 2 2 < < 2 2 2 2 2 2 ",
"2 2 2 2 < d < < d d < 2 2 2 B +.+.+.+.+.+.+.2 2 1 2 d 2 +.+.+.+.x d B +.+.+.+.+.+.+.+.B 2 2 2 2 2 2 < d < < 2 2 2 2 2 2 2 2 2 2 "
};
