/* XPM */
static char *result[] = {
/* columns rows colors chars-per-pixel */
"64 64 62 1 ",
"  c #4F2913",
". c #522C16",
"X c #522E18",
"o c #56331D",
"O c #563620",
"+ c #5A3924",
"@ c #5D3E29",
"# c #646B17",
"$ c #686F16",
"% c #72751B",
"& c #5E402C",
"* c #5D4E3F",
"= c #61432E",
"- c #634631",
"; c #654935",
": c #6A4C35",
"> c #664D39",
", c #694E39",
"< c #787B21",
"1 c #5E5141",
"2 c #5E5448",
"3 c #615143",
"4 c #61574A",
"5 c #655B4E",
"6 c #665D52",
"7 c #685E51",
"8 c #64604B",
"9 c #6B6254",
"0 c #676159",
"q c #6B645A",
"w c #6C685E",
"e c #706658",
"r c #726C5E",
"t c #6E6A60",
"y c #736D61",
"u c #767264",
"i c #7A7566",
"p c #777369",
"a c #7D7668",
"s c #7D7A6D",
"d c #7E7B72",
"f c #A2783C",
"g c #807C6F",
"h c #807F72",
"j c #7F8225",
"k c #A2814F",
"l c #BD9842",
"z c #858173",
"x c #8B8575",
"c c #8D8877",
"v c #87867D",
"b c #88867D",
"n c #8E897B",
"m c #908B7C",
"M c #C6A740",
"N c #8D8B82",
"B c #928E82",
"V c #949085",
"C c #95938A",
"Z c #9B9891",
"A c #9CA8AD",
"S c #B3B0A9",
/* pixels */
"%%%%%%%%%%%%%%%%%%%%%%%%%%%%%%%%%%%%%%%%%%%%%%%%%%%%%hhhhhhhhhh%",
"%%%%%%%%%%%%%%%%%%%%%%%%%%%%%%%%%%%%%%%%%%%%%%%%%%%%hhhhhhhhhhhv",
"%%%%%%%%%%%%%%%%%%%%%%%%%%%%:::%%%%%%%%%%%%%%%%%%vvhhhhhhhhhhhhv",
"%%%%%%%%%%%%%%%%%%%%%%%%%%-;zzz-%%%%%%%%%%%%%%%%%bvhhhhhhhhhhhhv",
"%%%%%%%%%%%%%%%%%%%%%%%%--zcxzzz=%%%%%%%%%%%%%%%%bvhhhhhhhhhhhhN",
"%%%%%%%%%%%%%%%%%%%%%%%-zxcxcxzxg@%%%%%%%%%%%%%%%bvhhhhhhhhhhhhv",
"%%%%%%%%%%%%%%%%%%%%%%%=9mxcxcVVr&%%%%%%%%%%%%%%%bvhhhhhhhhhhhhv",
"%%%vvvvvvvv%%%%%%%%%%%%@99ZZZVuyr@%%%%%%%%%%%%%%%bbhhhhhhhhhhhhv",
"%%vhhhhhzv%hhN%%<<%%%%%+8999Ziuur+%%%%%%%%%%%%%%%vvhhhhhhhhhhhhN",
"%%vhhhhhdv%hhhhj<%%%%%%%o999iiuoo%%%%%%%%%%%%%%%%vNhhhhhhhhhhhhv",
"j%vhhhhhhv%%Nh<<$%%%%%%%%o99i.X%$$%%%%j%%%%%%%%%%vvhhhhhhhhhhhhv",
"%%Nhhhhhhvjj<%<<$%%%%%%%%%o..%%%%jjf%$j%%%%%%%%%%vNhhhhhhhhhhhhv",
"%%vhhhhhvv%j<<#<$%%%%%%%%%%%%%%%%%j%j$#j%%AA%%%%%vvhhhhhhhhhhhhN",
"%%vhhhhhvN%%%<##%%%%%%%%%%%%%%%%%%#j%j#%%jAkA%%%%vvhhhhhhhhhNNN8",
"%%vhhhhhhvz%%#%%%%%%%%%%%%%%%%%%%jj#jj$SSj#AA%%%%vvhhhhhhhhN888%",
"%$Nhhhhhhv%%%%%%%%%%%%%%%%%%%%%%%$j%#%SkkS$##%%%%8%88888888%$<jj",
"%%NNNhhhhv%%%%h%%%%%%%%%%%%%%%%%%%$<###SS#%SS%$j%%%%%%%%%%%%%%j#",
"%%%88NhhhN%%hhh%%%%%%%%%%%%%%%%%%%%%%%%##%SkkS&&&%%%%%%%jj%%%j#$",
"%%%%%8Nhhhvhhh%%%%%%%%%%%%%%%%%%%%%AA%%%SS$&-&pui&%%j%%%%%%%%%%%",
"%%%%%%8NNNN888%%%%%%%%%%%%%%%%%%%%%kA%%&;&&iiiiuip&;&&%$%%%%%%%%",
"%%%%%%%88888%%%%%%%%%%%%%%%%%%%%%%%#&;-shssiipippiiuuu&j%%%%%%%%",
"%%%%%%%%%%%%%%%%%%%%%%%%%%%%%%%%%%%@bsshsshhiiihsiiipp&%%%%%%%%%",
"%%%%%%%%%%%%%%%%%%%%%%%%%%%%%%;;=*&&0Nshsshhsdzshspuuuu.jj%%%%%%",
"%%%%%%%%%%%%%%%%%%%%%%%%%%%%%;zsaasOqmsshzhhzhhghsssivho$%j%%%%%",
"%%%%%%%%%%%%%%%%%%%%%%%%%%%%%,bhhaai.0Bhgzsdzsdsssbvv68X $$%%%%%",
"%%%%%%%%%%%%%%%%%%%%%%%%%%%%%,chhhga.7NhhzzzhzhNNN65656Xu %%%%%%",
"%%%%%%%%%%%%%%%%%%%%%%%%%%%%%>Nhhhhhh.6NyruzNNNyry55868 up %%%%%",
"%%%%%$j%%%%%%%%%%%%%%%%%%%%%%>nnhhhhh.0NrrNNryryyr66   rupp h%%%",
"%%%%%%<<%%%<%%%%%%%%%%%%%%%%%;nbbNddhh 7Nn6656rry   werupvN hv%%",
"%%%%%%<<%j<%%%%%%%%%%%%%%%%%%:CCVVNNNN.qb00675 . Nq9wrrvb00 hv%%",
"%%%%%%jj<MM%%%%%%%%%%%%j%%%%%+pwtw0tttt N06 . **35NwrNNt000 hv%%",
"%%%%%%#$MffM%%%%%%%%%%<<%%jj< pwwwtttt66   1* .*355bbttt000.hv%%",
"%%%%%%%%#MM#ll%%%%%<%%<$%<<j%.pwwwwt00009221* 8 355httt00  hhv%%",
"%%%%%%%%%##%fl%%%%%%<<$%%<<$%5               88b 35dutt. hhhhN%%",
"%%%%%%%%%%%%##%%%%%%<<MM<<$<j%%5888888288888888bv 5dt  hhhhhhv%%",
"%%%%%%%%%%%%%%%%%%%%%MffM$<%$%%%%%%%%%%%%%%%%%%vvh   hhhhhhhhv%%",
"%%%%%%%%%%%%%%%%%%%%%#MM#$<$%%%%%%%%%%%%%%%%%%%vvhhhhhhhhhhhhN$%",
"%%%%%%%%%%%%%%%%%%%%%%##%%ll%%%%%%%%%%%%%%%%%%%vvhhhhhhhhhhhhv%%",
"%%%%%%%%%%%%%%%jj<%%%%%%%lffl%%%%%%%%%%%%%%%%%%vvhhhhhhhhhhhhN%%",
"%%%%%%%%%%%%%%%%j<<%%%%%%#ll#%%%%%%%%%jj%%%%%%%bbzhhhhhhhhNNN8%%",
"%%%%%%%%%%%%%%%%$<<%%%%%MM##%%%%%%%%%%%j%%%%%%%bNvhhhhhhhN888%%%",
"%%%%%%%%%%%%%%%%%$$%%%%MfM#%%%%%%%%%%%%$%%%%%%%88NNNNNNNN8%%<jj%",
"%%%%%%%%%%%%%%%%%%%%%%%MM#%%%%%%%%%%%%%%%%%%%%%%%88888888%%<jj%%",
"%%%<f%%%%%%%%%%%%%%%%%%#$%%%%%%%%%%%%%%%%%%%%%%%%%%%%%%%%%%<<#%%",
"%%%j$%%%%%%%%%%%%%%%%%%%%%%%%%%%%%%%%%%%%%%%%%%%%%%%%%<j%%%<#%%%",
"%%%$j$%%%%<<%%%%%%%%%%%%%%%%%;;:%%%%%%%%%%%%%%%%%%%%%%<j%%%<#%%%",
"%%%%$%j->>,,>>-&@%%%%%%%%%%%=zzz;;%%%%%%%%%%%%%%%%%%%%#j<%%#<j%%",
"%%%%%%>iaaaaaaaaa&%%%%%%%%%=zzxxxz&;%%%%%%%%%%%%%%%%%%%<<%%<<#%%",
"%%%%%;xzzaiaagaii7=%%%%%%j&zxxxccxzz&%%%%%%%%%%%%%%%%%%#<#<<#%%%",
"%%%%;xxxxxxzaaggaa7@%%%%%j=rmVxxccm9&%%%%%%%%%%%%%%%%%%%%%%%%%%%",
"%%%%>xxxxxxxmcigaa77@%%%%%+ryiVZZZ99&%%%%%%%%%%%%%%%%%%%%%%%%%%%",
"%%%;nxxxxxxxxxcxaa774+%%zz+yyiiZ99q8+%%%vhh%%%%%%%%%%%%%%%%%%%%%",
"%%>Cmccccxxxxxxzn7722+%%dhhoouii9988%8%%hhhv%%%%%%%%%%%%%%%%%%%%",
"%%>Vmcccxccxxxxmn77222O%hhhhzXXi99o%8%%vhhhv%%%%%%%%%%%%%%%%%%%%",
"%>Vcmcccccccmmmry98222o%hhhhshhXXo88%%vhhhhv%%%%%%%%%%%%%%%%%%%%",
";uVmmcccccccmVruy60222X%hhhhhhhhv%%hhhhhhhhv%%%%%%%%%%%%%%%%%%%%",
"pCmmmmmccmccCeee99222o8%hhhhhhhhv%vhhhhhhhhv%%%%%%%%%%%%%%%%%%%%",
"uCmmmmmccmmC7ee79w22 h%%hhhhhhhhv%vhhhhhhhhv%%%%%%%%%%j%%%%%%%%%",
"iCb%%%%cmcC9eeee990Xhh%%hhhhhhhhv%vhhhhhhhhv%%%%%jj<%%<<%%%%%%%%",
"uiZ%jj%%ZZ%%%e970X hhh%%hhhhhhhhv%vzhhhhhhhN%%%%%%j<<%#<%%j%%%%%",
"iii%#j%%%%$f%e99 hhhhh%%N8Nhhhhhv%vhhhhhhhhv%%%%%%#j<<#%<<#%%%%%",
"u%%%#jj%%%j%%9  hhhhhh%%888Nhhhhv%vhhhhhhhhv%%%%%j<#<<%%<<#%%%%%",
"o%j%##%jj%#%  Nhhhhhhh%%%%j8hhhhv%Nhhhhhhhhv%%%%%#<<#j%%##%%%%%%",
"%%%j#j##%j#%%%7NNNNNNN%<#$j%NNNN8%8NNNNNNNN8%%%%%$#<##%%%%%%%%%%"
};
