/* XPM */
static char *result[] = {
/* columns rows colors chars-per-pixel */
"64 64 99 2 ",
"   c black",
".  c #4C2611",
"X  c #4F2913",
"o  c #512B14",
"O  c #522F1A",
"+  c #4F311E",
"@  c #593117",
"#  c #55321D",
"$  c #5A351C",
"%  c #5E391E",
"&  c #613B1F",
"*  c #563521",
"=  c #583724",
"-  c #5A3B26",
";  c #563B2B",
":  c #5B3C29",
">  c #623D22",
",  c #626017",
"<  c #696A19",
"1  c #6E721A",
"2  c #72751B",
"3  c #75791E",
"4  c #5D412E",
"5  c #5B4332",
"6  c #5F4E3F",
"7  c #644226",
"8  c #65442A",
"9  c #68462A",
"0  c #66482B",
"q  c #6B4A2D",
"w  c #634633",
"e  c #654935",
"r  c #6D4E30",
"t  c #634F3D",
"y  c #6F5134",
"u  c #66523F",
"i  c #6D563E",
"p  c #715637",
"a  c #765837",
"s  c #735738",
"d  c #755A3A",
"f  c #795D3E",
"g  c #777A20",
"h  c #7A7D22",
"j  c #5A4C41",
"k  c #5C5247",
"l  c #5E5449",
"z  c #655443",
"x  c #695642",
"c  c #6B5945",
"v  c #61574D",
"b  c #62584C",
"n  c #6D5B48",
"m  c #705B43",
"M  c #7A5F40",
"N  c #705D48",
"B  c #655C51",
"V  c #685F55",
"C  c #665F58",
"Z  c #7C6242",
"A  c #75634D",
"S  c #666057",
"D  c #696155",
"F  c #676159",
"G  c #6B665D",
"H  c #6D695E",
"J  c #756552",
"K  c #786752",
"L  c #736857",
"P  c #7A6A55",
"I  c #706A5E",
"U  c #7D6F5D",
"Y  c #6F6A60",
"T  c #726D62",
"R  c #747266",
"E  c #767469",
"W  c #79766B",
"Q  c #7E7A6F",
"!  c #7F7B72",
"~  c #816645",
"^  c #846A4B",
"/  c #896E4E",
"(  c #8A714F",
")  c #907756",
"_  c #937B5C",
"`  c #8C7D68",
"'  c #817C71",
"]  c #9B8567",
"[  c #828076",
"{  c #868579",
"}  c #89867B",
"|  c #8C897D",
" . c #938472",
".. c #8E8B81",
"X. c #918E86",
"o. c #949287",
"O. c #94928B",
"+. c #9A978E",
"@. c #9E9A92",
/* pixels */
"2 2 2 2 2 2 2 2 2 2 2 2 2 2 2 2 2 2 2 2 2 2 2 2 2 2 2 2 2 2 2 2 2 2 2 2 2 2 2 2 2 1 1 2 2 2 2 2 2 2 2 2 2 2 2 2 2 2 2 2 2 2 3 h ",
"2 2 2 2 2 2 2 2 2 2 2 2 2 2 2 2 2 2 2 2 2 2 2 2 2 2 2 2 2 2 2 2 2 2 2 2 2 2 2 2 2 2 2 2 2 2 2 2 2 2 2 2 2 2 2 2 2 2 2 2 2 2 2 2 ",
"2 2 2 2 2 2 2 2 2 = : 4 4 4 4 4 4 : : ; - - - - - - - - : - - : - - - - - - : - - : - : - - z - - - - - - - - - 2 2 2 2 2 2 2 2 ",
"2 2 2 2 2 2 2 2 - { { { { { { { { { } { { { } { { { { { { { { { { { { { { { { { { { { { { { u { { { { { { { { { O.2 2 2 2 2 2 2 ",
"2 2 2 2 2 2 2 2 : { { { O.o.O.O.O.O.O.O.O.O.O.O.O.O.O.O.O.e e w w O.O.O.o.O.O.O.O.O.O.O.O.O.: O.O.O.O.O.O.O.{ { O.2 2 2 2 2 2 2 ",
"2 2 2 2 2 2 2 2 : { { { k o X V X F X F C o F F F F X X 8 ..| | | e F F F o D o F X G F X X o F D X X X j X { { O.2 2 2 2 2 2 2 ",
"2 2 2 2 2 2 2 2 : { { { < G G G G G G G G G G G G G G G w +.+.+.+.w X G G G G G G G G G G G G G G G G G H X { { O.2 2 2 2 2 2 2 ",
"2 2 2 2 2 2 2 2 : e e # < v G G G Y G G G G G G H G G G $ ! E T T o H G G G G G G G Y G G G G G G G G H G o { { O.2 2 2 2 2 2 2 ",
"2 2 2 2 2 2 2 2 : { { { < v G G G G G G G G X X X o . . @ ' T T T o G X o X G X X G G G G G G G G G G G H X { { O.2 2 2 2 2 2 2 ",
"2 2 2 2 2 2 2 2 : { { { < b G G Y G G v Y . ......| | | ' ' T I U L L { [ } [ } w G G G G G G Y G G G Y G X { { O.2 2 2 2 2 2 2 ",
"2 2 2 2 2 2 2 2 : { { { < v G G G G G v G . ......| | | | ' T T T J } { } [ ' } w G G G G G G G G G G G G X { { O.2 2 2 2 2 2 2 ",
"2 2 2 2 2 2 2 2 : } { { < v G H G G G v G . R G G I I I T I I I I I G G G C G W o G G G G G Y G Y G G G G X { { O.2 2 2 2 2 2 2 ",
"2 2 2 2 2 2 2 2 ; { { { < v G G Y G G v G X R C C T I I I T I I I G I G V G C W X G G G G G G G G Y G G G X { { O.2 2 2 2 2 2 2 ",
"2 2 2 2 2 2 2 2 = { { { < v G b v v v v G X o X o o o o o R G G I o o o o X o o G G v v v v v v l v v l b . { { O.2 2 2 2 2 2 2 ",
"2 2 2 2 2 2 2 2 = O.O.O.< B G G G G G G G Y Y G G G I C o W G G G o G G G G G G G G G G G G G G v G Y G G X z z X 2 2 2 2 2 2 2 ",
"2 2 2 2 2 2 2 2 = { { { < l Y G G G G G G G G G G G I G o R G F V o G G G G G G G G G G G Y G G v G G G G X { { O.2 2 2 2 2 2 2 ",
"2 2 2 2 2 2 2 2 * } } { , l Y G G G Y G G Y G G G G G G o T C B S X G G G G G G G G Y F Y F Y F v G G G G . { { O.2 2 2 2 2 2 2 ",
"2 2 2 2 2 2 2 2 * { { { , B G G Y l v v l v l G G G G G X T B B b X G G G H G G G G G Y G Y F Y v Y G G Y X { { O.2 2 2 2 2 2 2 ",
"2 2 2 2 2 2 2 2 - { { { , B G G G G G F Y F Y G G G G G X Y B B B X G G G G G G Y F Y F G G G G l Y G G G . { { O.2 2 2 3 1 2 2 ",
"3 2 3 2 2 2 2 2 * { { { , l G G G G G Y F Y F Y G # = = X Y B v B X + X X G G H F Y F Y G G Y F v G G G Y X { { O.2 2 2 3 g 2 3 ",
"3 g 1 2 2 2 2 2 * { { { , v G G Y F Y G Y G G G X Q Q G X G v b l X l L G X G G Y G G G F Y F Y v Y F Y G . { { O.2 2 2 1 3 3 3 ",
"2 1 1 2 2 2 2 2 - { { { , v G G F Y F G G G F Y X Q Q Q X L v b S . H G G X G G G G Y G Y Y Y F G G Y F Y . O.O.O.2 2 2 1 1 g 2 ",
"2 1 2 2 2 2 2 2 - w 5 * , v G G Y F Y G F Y Y F X Q ' Q o G j j k o H H H X G Y F Y F Y F v Y F G G G Y G . { { O.2 2 2 2 1 2 2 ",
"2 2 2 2 2 2 2 2 - { { { , j Y l v v v v v v l Y X Q ' ' ' w = = $ L H L Y . G v v v v l Y v F Y G G G G G . { { O.2 2 2 2 2 2 2 ",
"2 2 2 2 2 2 2 2 = { { { < j G G Y Y F Y F Y F Y . ! [ ! | | } } { { o.I I X G G Y F Y G G l Y F G G H G G X { { O.2 2 2 2 2 2 2 ",
"2 2 2 2 2 2 2 2 = { { { < j G G G G Y F Y F Y F X ! [ O.| X.} } { { { I I # G G F Y G G v v F Y G G G G G X { { O.2 2 2 2 2 2 2 ",
"2 2 2 2 2 2 2 2 = { { { < j G G F Y F Y F Y Y F X @.@.+.o.o.o.o.o.o.o.O.O.X G H G G G G v v Y F G G G G H X { { O.2 2 2 2 2 2 2 ",
"2 2 2 2 2 2 2 2 = { { { < j G G Y F Y F Y Y F Y X Q R R T L G D G F G H R X G G G G G G v v G Y G H H G G X { { O.2 2 2 2 2 2 2 ",
"2 2 2 2 2 2 2 2 = { { { < j G G Y F F Y F Y Y F X X R G G L G G G G F F T X G G G G G G v v G G G G G G G . { { O.2 2 2 2 2 2 2 ",
"2 2 2 2 2 2 2 2 = O.O.O.< 6 G G F Y Y Y Y F F Y G X I G G G G G F F F F T X G G G G Y G v l G G G G G H H X b z X 2 2 2 2 2 2 2 ",
"2 2 2 2 2 2 2 2 = { { { < j G G Y F Y F F Y Y F G G G G G G H G G G G G G H G G G G Y G Y l G H G G G G H . { { O.2 2 2 2 2 2 2 ",
"2 2 2 2 2 2 2 2 = { { { < G G G F Y F Y Y F F Y G G G G G G G G G G G G G G G G G G G G Y v G G G G G G G X { { O.2 2 2 2 2 2 2 ",
"2 2 2 2 2 2 2 2 + { { { { { { { { { { { { { { { { { { { { { { { { { { { { { { { { { { { { { 5 { { { { { { { { { o.2 2 2 2 2 2 2 ",
"2 2 2 2 2 2 2 2 # { { { { { { { { { { } { { { { { { { { { { { { { { { { { { { { { { { { { { z { { { { { { { { { O.2 2 2 2 2 2 2 ",
"2 2 2 2 2 2 2 2 X Y Y Y Y T Y Y Y Y Y T Y Y Y Y Y H Y G G H T H Y G Y Y Y Y H G G G Y G Y Y 5 Y G Y H H G G G G } 2 2 2 2 2 2 2 ",
"2 2 2 2 2 2 2 2 X G H Y H Y H H Y Y Y Y Y Y Y G H Y Y G Y H G H H H H G G G G H Y G G Y G G 5 G H G G H G G G G ! 2 2 2 2 2 2 2 ",
"2 2 2 2 2 2 2 2 X G F G H H H H Y Y Y Y Y Y G Y G G G Y G G G G G G G G G G G G Y G G G G Y 5 G G G G G G F G G ! 2 2 2 2 2 2 2 ",
"2 2 2 2 2 2 2 2 X F F G F H F G Y G F F Y G G G G G G G G G G G G G G G G G F G F Y F G F F 5 G G G G G F G F F ! 2 2 2 2 2 2 2 ",
"2 2 2 2 2 3 3 2 . S F F F F F F C Y F F F G G F G F F G F G G F F F F G G F G F G F F G F G # F F G F F F F S S E 1 2 2 2 2 2 2 ",
"2 2 2 2 2 3 h 2 . S S S F F F F C F F F F F C F F F F C F F F V F F F F F F F F F F F F F F # G F F F F F F S S R 2 2 2 2 2 2 2 ",
"2 2 2 2 2 1 2 3 1 . . . . . . . . . . o . o . o o o X X X X o o X X X X X X X o X o X X X X l X X X X X X X o o 1 2 2 2 2 2 2 2 ",
"2 2 2 2 2 2 1 1 2 X G H H G o l l l l l l l k l k k k k k 9 q r 7       + k k k k k k k k l l l l l l X b b b b 2 2 2 2 2 2 2 2 ",
"2 2 2 2 2 2 2 2 2 X H H L G l l l l l l k k k k k q ) ) & ( ( / @               l k k k k l k k l l l X b b b b 2 2 2 2 2 2 2 2 ",
"2 2 2 2 2 2 2 2 2 X H H G H X l v l l l l k k 8 & / ] ] & a d d %                   l k l k l k l l k X b b b b 2 2 2 2 2 2 2 2 ",
"2 2 2 2 2 2 2 2 2 O G H Y Y o + o 5 o 5 . . ^ _ & a ~ ~ 9 M Z Z 9                       o 5 5 X b X X b b v b D 2 2 2 2 2 2 2 2 ",
"2 2 2 2 2 2 2 2 2 O H H H Y X F F F F F F 0 f M 7 ^ ~ ~ q Z Z M 9                       ; C F F F F F X b b D b 2 2 2 2 2 2 2 2 ",
"2 2 2 2 2 2 2 2 2 O H H Y H Y C F F F F > / s d q ~ ~ ~ 9 f M M 9                       # F F F F F F X b b B B 2 2 2 2 2 2 2 2 ",
"2 2 2 2 2 2 2 2 2 O R Y H Y o F F F C G $ $ & = > > 7  .q f M M 9                       o C F F F F F X v v B B 2 2 2 2 2 2 2 2 ",
"2 2 2 2 2 2 2 2 2 O Y Y Y T . F C C C C $ m A A K P P ^ ` 8 f M q                       . C C C F F F X b n B b 2 2 2 2 2 2 2 2 ",
"2 2 2 2 2 2 2 2 2 O W X W o X H . Y . Y O 8 7 9 % q r O r M f f 0                       X Y Y Y G Y Y X F G H H 2 2 2 2 2 2 2 2 ",
"2 2 2 2 2 2 2 2 2 # R T T T X F C C C C o s d s 7 Z M M r M f f 9                       X C C C C C C X b B D B 2 2 2 2 2 2 2 2 ",
"2 2 2 2 2 2 2 2 2 # R T T R Y S C C C C o s s s 0 M f f r d d f 0                       o C C C C C C X D D B [ 2 2 2 2 2 2 2 2 ",
"2 2 2 2 2 2 2 2 2 * R R R R X S C C C C o s s s q M d a r a f $ >                       o C C C C C C . V V E [ 2 2 2 2 2 2 2 2 ",
"2 2 2 2 2 2 2 2 2 # R E R R . H Y Y G Y o p s p r M d s r f % A A                       X Y Y Y Y G G X D V E [ 2 2 2 2 2 2 2 2 ",
"2 2 2 2 2 2 2 2 2 * E E E R T F C C C C o p p p q M p s q s o i i                       X C C C C C C X D E E [ 2 2 2 2 2 2 2 2 ",
"2 2 2 2 2 2 2 2 2 * E E E E X S C C C C . @ $ $ = % - ` r s s q $                       X C C C C C C X F E E [ 2 2 2 2 2 2 2 2 ",
"2 2 2 2 2 2 2 2 2 * X X E W X F C C C C X x n N A A A P o p s p 7                       X F C C C C C X E E E ! 2 2 2 2 2 2 2 2 ",
"2 2 2 2 2 2 2 2 2 * X W X W W E E E E E X > 7 7 # 0 q o 7 p p p 7                       X E # E E E E E E E E ..2 2 2 2 2 2 2 2 ",
"2 2 2 2 2 2 2 2 2 * W W W W W E E E E E X r r y 4 p y y : p i p #                       . E z E E E E E E E E o.2 2 2 2 2 2 2 2 ",
"2 2 2 2 2 2 2 2 2 * X.....{ { { } { { { X A A A K A K K P P P U X                       X [ z } [ ..{ { { ....o.2 2 2 2 2 2 2 2 ",
"2 2 2 2 2 2 2 2 2 X F F S S S S B S S S X u u u u u c c c c n n X                       . F z F C F F F S S S H 2 2 2 2 2 2 2 2 ",
"2 2 2 2 2 2 2 2 2 1 X X X X X X X X X X X t t x x x x c c c n n X                       . X X X . . X . X o X X 2 2 2 2 2 2 2 2 ",
"2 2 2 2 2 2 2 2 2 2 2 2 2 2 1 2 2 2 2 2 2 2 2 2 2 2 2 h 3 1 3 g 2 2 2 2 2 2 2 2 2 2 2 2 2 2 2 2 2 2 2 2 2 2 2 2 2 2 2 2 2 2 2 2 ",
"2 2 2 2 2 2 2 2 2 2 2 2 2 2 2 2 2 2 2 2 2 2 2 2 2 2 2 3 1 2 3 2 g 2 2 2 2 2 2 2 2 2 2 2 2 2 2 2 2 2 2 2 2 2 2 2 2 2 2 2 2 2 2 2 "
};
