/* XPM */
static char *result[] = {
/* columns rows colors chars-per-pixel */
"64 64 250 2 ",
"   c #4E2613",
".  c #4E2713",
"X  c #4F2713",
"o  c #4E2812",
"O  c #4E2913",
"+  c #4F2913",
"@  c #4F2A13",
"#  c #4F2B15",
"$  c #502A13",
"%  c #522B14",
"&  c #532B14",
"*  c #522B17",
"=  c #522C14",
"-  c #532C14",
";  c #542C15",
":  c #542D15",
">  c #552D15",
",  c #542E15",
"<  c #562E15",
"1  c #542E19",
"2  c #563019",
"3  c #56321C",
"4  c #56321D",
"5  c #57331D",
"6  c #58331A",
"7  c #58331B",
"8  c #59331B",
"9  c #59351D",
"0  c #5A351E",
"q  c #5B361E",
"w  c #5A361F",
"e  c #5C361C",
"r  c #5D381E",
"t  c #5A3722",
"y  c #5C3721",
"u  c #5C3820",
"i  c #5D3820",
"p  c #5D3922",
"a  c #5E3923",
"s  c #5E3B23",
"d  c #5F3C23",
"f  c #5F3C24",
"g  c #5F3D24",
"h  c #5F3C25",
"j  c #603A23",
"k  c #623C23",
"l  c #603D24",
"z  c #613C25",
"x  c #633E27",
"c  c #603C28",
"v  c #613D29",
"b  c #603E29",
"n  c #643F2A",
"m  c #656C17",
"M  c #72751B",
"N  c #614228",
"B  c #62402B",
"V  c #63402B",
"C  c #62432A",
"Z  c #64412B",
"A  c #65442A",
"S  c #66462A",
"D  c #63422D",
"F  c #64412C",
"G  c #64462C",
"H  c #67462C",
"J  c #65442F",
"K  c #66452F",
"L  c #664A2E",
"P  c #674B2F",
"I  c #69492E",
"U  c #694A2F",
"Y  c #6A4B2F",
"T  c #674731",
"R  c #634C37",
"E  c #694D30",
"W  c #6A4D30",
"Q  c #6A4E30",
"!  c #6B4F31",
"~  c #6B4D32",
"^  c #6B4F32",
"/  c #6D4D31",
"(  c #6C4F31",
")  c #694934",
"_  c #634C38",
"`  c #634D38",
"'  c #634D39",
"]  c #6C5033",
"[  c #6E5033",
"{  c #6F5033",
"}  c #6F5133",
"|  c #6F5234",
" . c #6E5235",
".. c #66513D",
"X. c #67523D",
"o. c #67523E",
"O. c #68523F",
"+. c #705334",
"@. c #705235",
"#. c #715335",
"$. c #705436",
"%. c #725637",
"&. c #735438",
"*. c #735439",
"=. c #715638",
"-. c #735638",
";. c #725739",
":. c #75563A",
">. c #725839",
",. c #72583A",
"<. c #755A3B",
"1. c #75583C",
"2. c #76583D",
"3. c #787B21",
"4. c #675341",
"5. c #685340",
"6. c #685341",
"7. c #695441",
"8. c #685442",
"9. c #695442",
"0. c #695443",
"q. c #695543",
"w. c #6B5742",
"e. c #695644",
"r. c #6C5843",
"t. c #795D43",
"y. c #7A5E42",
"u. c #7A5E43",
"i. c #7A5F43",
"p. c #64604B",
"a. c #6F604D",
"s. c #6F604E",
"d. c #7C6043",
"f. c #7D6245",
"g. c #70614D",
"h. c #71624F",
"j. c #74624E",
"k. c #75624E",
"l. c #76634F",
"z. c #76644F",
"x. c #7F6548",
"c. c #716250",
"v. c #726351",
"b. c #756654",
"n. c #766754",
"m. c #7B6A5A",
"M. c #7A6C5B",
"N. c #7C6D5B",
"B. c #7B6D5C",
"V. c #7E6D5C",
"C. c #81674B",
"Z. c #82684B",
"A. c #81684C",
"S. c #82694C",
"D. c #83694C",
"F. c #82694D",
"G. c #83694D",
"H. c #836A4C",
"J. c #836A4D",
"K. c #846A4C",
"L. c #846A4E",
"P. c #846B4E",
"I. c #876F53",
"U. c #806F5C",
"Y. c #877054",
"T. c #897054",
"R. c #897155",
"E. c #897256",
"W. c #81715F",
"Q. c #8C7759",
"!. c #8D775B",
"~. c #8E775A",
"^. c #8D785B",
"/. c #8E785B",
"(. c #8F785B",
"). c #8F795B",
"_. c #8D785C",
"`. c #8E785C",
"'. c #8E795C",
"]. c #8F795C",
"[. c #90795D",
"{. c #91795D",
"}. c #907A5C",
"|. c #917A5C",
" X c #917A5D",
".X c #917B5E",
"XX c #917B5F",
"oX c #827463",
"OX c #827564",
"+X c #847665",
"@X c #847765",
"#X c #857767",
"$X c #847865",
"%X c #847866",
"&X c #857867",
"*X c #867867",
"=X c #867968",
"-X c #867A68",
";X c #887A68",
":X c #887A69",
">X c #897B6B",
",X c #8A7C6B",
"<X c #947F63",
"1X c #957F63",
"2X c #967F63",
"3X c #947F64",
"4X c #957F64",
"5X c #807F72",
"6X c #7F8226",
"7X c #8D816F",
"8X c #8F816E",
"9X c #8F816F",
"0X c #958064",
"qX c #968064",
"wX c #968164",
"eX c #968065",
"rX c #978065",
"tX c #968165",
"yX c #978266",
"uX c #978267",
"iX c #988367",
"pX c #988468",
"aX c #8F8270",
"sX c #8F8273",
"dX c #88867D",
"fX c #918374",
"gX c #928677",
"hX c #948778",
"jX c #93887B",
"kX c #948979",
"lX c #94897B",
"zX c #958A7A",
"xX c #968B7B",
"cX c #968B7C",
"vX c #978B7C",
"bX c #978C7D",
"nX c #988D7E",
"mX c #8D8B83",
"MX c #9A9183",
"NX c #9C9384",
"BX c #9E9487",
"VX c #9E9488",
"CX c #9F9588",
"ZX c #A09789",
"AX c #A0968A",
"SX c #A1978A",
"DX c #A1978B",
"FX c #A1988B",
"GX c #A2988C",
"HX c #A2998C",
/* pixels */
"M M M M M M M M M M M M M M M M M M M M M M M M M M M M M M M M M M M M M M M M M M M M M M M M M M M M M M M M M M M M M M M M ",
"M M M M M M M M M M M M M M M M M M M M M M M M M M M M M M M M M M M M M M M M M M M M M M M M M M M M M M M M M M M M M M M M ",
"M M M M M M M M M M M M M M M M M M M M M M M M M M M M M M M M M M M M M M M M M M M M M M M M M M M M M M M M M M M M M M M M ",
"M M M M M M M M M M M M M M M M M M M M M M M M M M M M M M M M M M M M M M M M M M M M M M M M M M M M M M M M M M M M M M M M ",
"M M M M M M M M M M M M M M M M M M M M M M M M M M M M M M M M M M M M M M M M M M M M M M M M M M M M M M M M M M M M M M M M ",
"M M M M M M M M M M M M M M M M M M M M M M M M M M M M M M M M M M M M M M M M M M M M M M M M M M M M M M M M M M M M M M M M ",
"M M M M M M M M M M M M M M M M M M M M M M M M M M M M M M M M M M M M M M M M M M M M M M M M M M M M M M M M M M M M M M M M ",
"M M M M M M M M M M M M M M M M M M M M M M M M M M M M M M M M M M M M M M M M M M M M M M M M M M M M M M M M M M M M M M M M ",
"M M M M M M M M M M M M M M M M M M M M M M M M M M M M M M M M M M M M M M M M M M M M M M M M M M M M M M M M M M M M M M M M ",
"M M M M M M M M M M M M M M M M M M M M M M M M M M M M M M M M M M M M M M M M M M M M M M M M M M M M M M M M M M M M M M M M ",
"M M M M M M M M M M M M M M M M M M M M M M M M M M M M M M M M M M M M M M M M M M M M M M M M M M M M M M M M M M M M M M M M ",
"M M M M M M M M M M M M M M M M M M M M M M M M M M M M M M M M M M M M M M M M M M M M M M M M M M M M M M M M M M M M M M M M ",
"M M M M M M M M M M M M M M M M M M M M M M M M M M M M M M M M M M M M M M M M M M M M M M M M M M M M M M M M M M M M M M M M ",
"M M M M M M M M M M M M M M M 3.m M M M M M M M M M M M M M M M M M M M M M M M M M M M M M M 5X5X5X5X5X5X5X5X5X5XM M M M M M M ",
"M M M M M M M M M M M M M m m 3.3.m M M M M M M M M M M M M M M M M M M M M M M M M M M M M 5X5X5X5X5X5X5X5X5X5X5XdXM M M M M M ",
"M M M M M M M M M M M M m 3.m 3.3.m M M M M M M M M M M M M M M M M M M M M M M M M M M dX5X5X5X5X5X5X5X5X5X5X5X5XdXM M M M M M ",
"M M M M M M M M M M M M 3.3.M M 3.3.m M M M M M M M M M M M M M M M M M M M M M M M M M dX5X5X5X5X5X5X5X5X5X5X5X5XdXM M M M M M ",
"M M M M M M M M M M M m 6X3.M M m 3.6XM M M M M M M M M M M M M M M M M M M M M M M M M dX5X5X5X5X5X5X5X5X5X5X5X5XdXM M M M M M ",
"M M M M M M M M M M M 3.6XM M M 3.m M M M M M M M M M M M M M M M M M M M M M M M M M M dX5X5X5X5X5X5X5X5X5X5X5X5XdXM M M M M M ",
"M M M M M M M M M M M M M M M M 3.3.m M M M M M M M M M M M M M M M M M M M M M M M M M dX5X5X5X5X5X5X5X5X5X5X5X5XdXM M M M M M ",
"M M M M M M p.p.p.p.p.p.p.p.M M 3.3.6XM M M M M M M M M M M M M M M M M M M M M M M M M dX5X5X5X5X5X5X5X5X5X5X5X5XdXM M M M M M ",
"M M M M M p.mXmXmXmXmXmXmXmXp.M M 3.6X6XM M M M M M M M M M M M M M M M M M M M M M M M dX5X5X5X5X5X5X5X5X5X5X5X5XdXM M M M M M ",
"M M M M M dX5X5X5X5X5X5X5X5XmXp.p.p.M M M M M M M M M M M M M M M M M M M M M M M M M M dX5X5X5X5X5X5X5X5X5X5X5X5XdXM M M M M M ",
"M M M M M dX5X5X5X5X5X5X5X5X5XmXmXmXp.M M M M M M M M M M M M M M M M M M M M M M M M M dX5X5X5X5X5X5X5X5X5X5X5X5XmXM M M M M M ",
"M M M M M dX5X5X5X5X5X5X5X5X5X5X5X5XmXM M M M M M M M M M M M M M M M M M M M M M M M M dX5X5X5X5X5X5X5X5X5XmXmXmXp.M M M M M M ",
"M M M M M dX5X5X5X5X5X5X5X5X5X5X5X5XdXM M M M M M M M M M M M M M M M M M M M M M M M M dX5X5X5X5X5X5X5X5XmXp.p.p.M M M M M M M ",
"M M M M M dX5X5X5X5X5X5X5X5X5X5X5X5XdXM M M M M M M M M M M M M M M M M M M M M M M M M p.mXmXmXmXmXmXmXmXp.M M 3.6X6XM M M M M ",
"M M M M M dX5X5X5X5X5X5X5X5X5X5X5X5XdXM M M M M M M M M M M M M M M M M M M M M M M M M M p.p.p.p.p.p.p.p.M M 3.3.6XM M M M M M ",
"M M M M M dX5X5X5X5X5X5X5X5X5X5X5X5XdXM M M M M M M M M M M M M M M M M M M M M M M M M M M M M M M M M M M M 3.3.m M M M M M M ",
"M M M M M dX5X5X5X5X5X5X5X5X5X5X5X5XdXM M M M M M M M M M M M M M M M M M M M M M M M M M M M M M M 3.6XM M M 3.m M M M M M M M ",
"M M M M M dX5X5X5X5X5X5X5X5X5X5X5X5XdXM M a w 0 M M M M M M M M M M M M M M M s 9 p M M M M M M M M m 6X3.M M m 3.6XM M M M M M ",
"M M M M M dX5X5X5X5X5X5X5X5X5X5X5X5XdXM M *XU.u $.} #.+.8 D.{ @.@.| i x.[ @.| B V.#XM M M M M M M M M 3.3.M M 3.3.m M M M M M M ",
"M M M M M dX5X5X5X5X5X5X5X5X5X5X5X5XdXM M lX,Xz d.S.J.D.H (.H.H.S.Z.A Y.S.S.Z.D >XjXM M M M M M M M M m 3.m 3.3.m M M M M M M M ",
"M M M M M M M 5X5X5X5X5X5X5X5X5X5X5XdXM M CXhXn x.Q.'.'.1.XX_._.^.^.Y ~.!.!.!.J gXVXM M M M M M M M M M m m 3.3.m M M M M M M M ",
"M M M M M M M M 5X5X5X5X5X5X5X5X5X5XM M M GXSXZ K.0X0X0X:.iX4X3X3X3X~ wX<X<X<XT AXDXM M M M M M M M M M M M 3.m M M M M M M M M ",
"M M M M M M M M M M M M M M M M M M M M M HXZXx Z.2XrXqX*.pXqX4X4X4XU uX4X4X1XT BXDX) M M M M M M M M M M M M M M M M M M M M M ",
"M M M M M M M M M M M M M M M M M M M M M FXnXj x.|. X}.&.iX{.[.]./.I yX].].).K bXAX) M M M M M M M M M M M M M M M M M M M M M ",
"M M M M M M M M M M M M M M M M M M M M M NXaXq f..X}.}./ eX`.`.`./.S tX).).).F 7XMX) M M M M M M M M M M M M M M M M M M M M M ",
"M M M M M M M M M M M M M M M M M M M M M cX:X< 2.P.P.P.k E.J.J.G.G.e T.F.F.F.v =XlXV M M M M M M M M M M M M M M M M M M M M M ",
"M M M M M M M M M M M M M M M M M M M M M fX;X< 2.P.L.C.r I.i.y.u.t.6 R.A.F.A.c *XsXb M M M M M M M M M M M M M M M M M M M M M ",
"M M M M M M M M M M M M M M M M M M M M M xXvX> > > > : ; ; 9X8X8X7 , & - - - 2 kXzXh M M M M M M M M M M M M M M M M M M M M M ",
"M M M M M M M M M M M M M M M M M M M M M -XN.: G %.-.=.- Q v.W.s.% = <. . . .& m.&Xy M M M M M M M M M M M M M M M M M M M M M ",
"M M M M M M M M M M M M M M M M M M M M M B.h.- C ] ( ( & W 0.O.q.% = ,.! ! ! % c.M.1 M M M M M M M M M M M M M M M M M M M M M ",
"M M M M M M M M M M M M M M M M M M M M M n.g.$ N ( ( ! & E % % % g = >.! ! ^ + a.b.* M M M M M M M M M M M M M M M M M M M M M ",
"M M M M M M M M M M M M M M M M M M M M M k.r.+ l P P L % E E E E E = >.P P P O w.j.. M M M M M M M M M M M M M M M M M M M M M ",
"M M M M M M M M M M M M M M M M M M M M M t t 4 g g g g % g g g g g = ;.d f g 3 5 5 . M M M M M M M M M M M M M M M M M M M M M ",
"M M M M M M M M M M M M M M M M M M M M M %XOX@X@ o % % % % % % % % % % % + + +XoX$X  M M M M M M M M M M M M M M M M M M M M M ",
"M M M M M M M M M M M M M M M M M M M M M ' _ z.+ o...X.5.7.9.9.e.q.8.8.6.4.# l.R ` X M M M M M M M M M M M M M M M M M M M M M ",
"M M M M M M M M M M M M M M M M M M M M M M M M M M M M M M M M M M M M M M M M M M M M M M M M M M M M M M M M M M M M M M M M ",
"M M M M M M M M M M M M M M M M M M M M M M M M M M M M M M M M M M M M M M M M M M M M M M M M M M M M M M M M M M M M M M M M ",
"M M M M M M M M M M M M M M M M M M M M M M M M M M M M M M M M M M M M M M M M M M M M M M M M M M M M M M M M M M M M M M M M ",
"M M M M M M M M M M M M M M M M M M M M M M M M M M M M M M M M M M M M M M M M M M M M M M M M M M M M M M M M M M M M M M M M ",
"M M M M M M M M M M M M M M M M M M M M M M M M M M M M M M M M M M M M M M M M M M M M M M M M M M M M M M M M M M M M M M M M ",
"M M M M M M M M M M M M M M M M M M M M M M M M M M M M M M M M M M M M M M M M M M M M M M M M M M M M M M M M M M M M M M M M ",
"M M M M M M M M M M M M M M M M M M M M M M M M M M M M M M M M M M M M M M M M M M M M M M M M M M M M M M M M M M M M M M M M ",
"M M M M M M M M M M M M M M M M M M M M M M M M M M M M M M M M M M M M M M M M M M M M M M M M M M M M M M M M M M M M M M M M ",
"M M M M M M M M M M M M M M M M M M M M M M M M M M M M M M M M M M M M M M M M M M M M M M M M M M M M M M M M M M M M M M M M ",
"M M M M M M M M M M M M M M M M M M M M M M M M M M M M M M M M M M M M M M M M M M M M M M M M M M M M M M M M M M M M M M M M ",
"M M M M M M M M M M M M M M M M M M M M M M M M M M M M M M M M M M M M M M M M M M M M M M M M M M M M M M M M M M M M M M M M ",
"M M M M M M M M M M M M M M M M M M M M M M M M M M M M M M M M M M M M M M M M M M M M M M M M M M M M M M M M M M M M M M M M ",
"M M M M M M M M M M M M M M M M M M M M M M M M M M M M M M M M M M M M M M M M M M M M M M M M M M M M M M M M M M M M M M M M ",
"M M M M M M M M M M M M M M M M M M M M M M M M M M M M M M M M M M M M M M M M M M M M M M M M M M M M M M M M M M M M M M M M ",
"M M M M M M M M M M M M M M M M M M M M M M M M M M M M M M M M M M M M M M M M M M M M M M M M M M M M M M M M M M M M M M M M ",
"M M M M M M M M M M M M M M M M M M M M M M M M M M M M M M M M M M M M M M M M M M M M M M M M M M M M M M M M M M M M M M M M "
};
