/* XPM */
static char *result[] = {
/* columns rows colors chars-per-pixel */
"64 64 67 1 ",
"  c #4F2713",
". c #4F2913",
"X c #502713",
"o c #522B15",
"O c #542E19",
"+ c #56321B",
"@ c #59341D",
"# c #5A3720",
"$ c #5D3B22",
"% c #603E25",
"& c #643F28",
"* c #656C17",
"= c #72751B",
"- c #5F4632",
"; c #614126",
": c #644529",
"> c #68442B",
", c #66492C",
"< c #694D2F",
"1 c #684731",
"2 c #6B4E31",
"3 c #664F3B",
"4 c #6D5233",
"5 c #67513D",
"6 c #68533F",
"7 c #715436",
"8 c #735837",
"9 c #75573A",
"0 c #755A3B",
"q c #787B21",
"w c #79603F",
"e c #6B5742",
"r c #6D5A45",
"t c #795F40",
"y c #715D49",
"u c #64604B",
"i c #6F604E",
"p c #7C6342",
"a c #73614E",
"s c #766653",
"d c #7A6753",
"f c #796955",
"g c #7C6D5B",
"h c #7F715F",
"j c #846B4B",
"k c #886F50",
"l c #826F5C",
"z c #8B7454",
"x c #82705D",
"c c #8D7758",
"v c #8F7959",
"b c #837463",
"n c #867866",
"m c #877B6A",
"M c #8A7D6C",
"N c #807F72",
"B c #7F8226",
"V c #FBF236",
"C c #8F816F",
"Z c #8F8270",
"A c #88867D",
"S c #928573",
"D c #958876",
"F c #9A8E7D",
"G c #8D8B83",
"H c #9E9484",
"J c #A09686",
/* pixels */
"================================================================",
"================================================================",
"================================================================",
"================================================================",
"================================================================",
"================================================================",
"================================================================",
"================================================================",
"================================================================",
"================================================================",
"================================================================",
"================================================================",
"================================================================",
"===============q*==============================NNNNNNNNNN=======",
"=============**qq*============================hNNNNNNNNNNA======",
"============*q*qq*==========================SZANNNNNNNNNNA======",
"============qq==qq*=========================ANNNNNNNNNNNNA======",
"===========*Bq==*qB=========================ANNNNNNNNNNNNA======",
"===========qB===q*==========================ANNNNNNNNNNNNA======",
"================qq*=========================ANNNNNNNNNNNNA======",
"======uuuuuuuu==qqB=========================ANNNNNNNNNNNNA======",
"=====uGGGGGGGGu==qBB========================ANNNNNNNNNNNNA======",
"=====ANNNNNNNNGuuu==========================ANNNNNNNNNNNNA======",
"=====ANNNNNNNNNGGGu=========================ANNNNNNNNNNNNG======",
"=====ANNNNNNNNNNNNG==>>>===============>>>==AhNNNNNNNNGGGu======",
"=====ANNNNNNNNNNNNA=7JD&jkzcvvvvzhzzjjp>DJ==GAAhNNNNNGuuu=======",
"=====ANNNNNNNNNNNNA=OldO27998oCCC880772&dl==uGGGGGGGGu==qBB=====",
"=====ANNNNNNNNNNNNA=ogao%$$%$oFFF$$$%@%oyg===uuuuuuuu==qqB======",
"=====ANNNNNNNNNNNNA=odyo%&:>;:ooo;;;%$$oys=============qq*======",
"=====ANNNNNNNNNNNNA= aro%&;;;;;;%;%;$$@oes========qB===q*=======",
"=====ANNNNNNNNNNNNA= ae >>,,,,,,,,,,,,;oei========*Bq==*qB======",
"=====ANNNNNNNNNNNNA= y5 :,,<<<2<22<<,,;Xeu=========qq==qq*======",
"=====GNNNNNNNNNNNNA=.63.888000888880882 5e=========*q*qq*=======",
"=======NNNNNNNNNNNA=.3-.880000000008082X,5==========**qq*=======",
"========NNNNNNhANN==@SCO;$;;::,:,::>>;%oCC============q*========",
"====================+@@+86000wwwptt0007X%%======================",
"====================+hf.,,:::::::::::,,ofm======================",
"====================$ZCO$$$$$$$$;$;$$$$+xC======================",
"====================;DC+;;$$$$$$@;$$$$$@mD======================",
"====================-FZ$++++@++++O+++++@CF======================",
"====================,FS$@V@@@@V+V+OVOVO$SF======================",
"====================1HD;.VV.@V..V.@.V..;DF======================",
"====================oMhOw00p.000wp.p0ww+hC======================",
"====================obdO0w0pO0008w+p08wOsn======================",
"====================odyO4440.4444w.w444.if======================",
"====================osr <<40o<<<<8O0444.ua======================",
"====================.###:;-po:::,<O4:;-+@@======================",
"==================== iysfhhhhCMMChmhhh.sai======================",
"====================                  ..  ======================",
"================================================================",
"================================================================",
"================================================================",
"================================================================",
"================================================================",
"================================================================",
"================================================================",
"================================================================",
"================================================================",
"================================================================",
"================================================================",
"================================================================",
"================================================================",
"================================================================",
"================================================================"
};
