/* XPM */
static char *result[] = {
/* columns rows colors chars-per-pixel */
"64 64 6 1 ",
"  c #0B0B0B",
". c gray10",
"X c #232323",
"o c #2C2C2C",
"O c white",
"+ c None",
/* pixels */
"++++++++++++++++++++++++++++++++++++++++++++++++++++++++++++++++",
"++++++++++++++++++++++++++++++++++++++++++++++++++++++++++++++++",
"++++++++++++++++++++++++++++++++++++++++++++++++++++++++++++++++",
"++++++++++++++++++++++++++++++++++++++++++++++++++++++++++++++++",
"++++++++++++++++++++++++++++++++++++++++++++++++++++++++++++++++",
"++++++++++++++++++++++++++++++++++++++++++++++++++++++++++++++++",
"++++++++++++++++++++++++++++++++++++++++++++++++++++++++++++++++",
"++++++++++++++++++++++++++++++++++++++++++++++++++++++++++++++++",
"++++++++++++++++++++++++++++++++++++++++++++++++++++++++++++++++",
"++++++++++++++++++++++++++++++++++++++++++++++++++++++++++++++++",
"++++++++++++++++++++++++++++++++++++++++++++++++++++++++++++++++",
"++++++++++++++++++++++++++++++++++++++++++++++++++++++++++++++++",
"++++++++++++++++++++++++++++++++++++++++++++++++++++++++++++++++",
"++++++++++++++++++++++++++++++++++++++++++++++++++++++++++++++++",
"++++++++++++++++++++++++++++++++++++++++++++++++++++++++++++++++",
"++++++++++++++++++++++++++++++++++++++++++++++++++++++++++++++++",
"++++++++++++++++++++++++++++++++++++++++++++++++++++++++++++++++",
"++++++++++++++++++++++++++++++++++++++++++++++++++++++++++++++++",
"++++++++++++++++++++++++++++++++++++++++++++++++++++++++++++++++",
"+++++++++++++++++++++++++++++++  +++++++++++++++++++++++++++++++",
"+++++++++++++++++++++++++++++oooooo+++++++++++++++++++++++++++++",
"++++++++++++++++++++++++++XXXXXXXXXXXX++++++++++++++++++++++++++",
"+++++++++++++++++++++++..................+++++++++++++++++++++++",
"+++++++++++++++++++++++++++++      +++++++++++++++++++++++++++++",
"+++++++++++++++++++++++++++++      +++++++++++++++++++++++++++++",
"+++++++++++++++++++++++++++++      +++++++++++++++++++++++++++++",
"+++++++++++++++++++++++++++O..    ..++++++++++++++++++++++++++++",
"+++++++++++++++++++++++++++O..    ...+++++++++++++++++++++++++++",
"+++++++++++++++++++++++++++O.........+++++++++++++++++++++++++++",
"+++++++++++++++++++++++++++.O........+++++++++++++++++++++++++++",
"++++++++++++++++++++++++++...O........++++++++++++++++++++++++++",
"++++++++++++++++++++++++++....O......O++++++++++++++++++++++++++",
"++++++++++++++++++++++++++.....O....O.++++++++++++++++++++++++++",
"+++++++++++++++++++++++ ++......OOOO..++++++++++++++++++++++++++",
"++++++++++++++++++++++++ +............++++++++++++++++++++++++++",
"+++++++++++++++++++++++++ ............++++++++++++++++++++++++++",
"+++++++++++++++++++++++++ OOO.........++++++++++++++++++++++++++",
"++++++++++++++++++++++++++OOOO........++++++++++++++++++++++++++",
"++++++++++++++++++++++++++OOOOO......+++++++++++++++++++++++++++",
"++++++++++++++++++++++++++.OOOOO.....+++++++++++++++++++++++++++",
"++++++++++++++++++++++++++..OOOO.....+++++++++++++++++++++++++++",
"+++++++++++++++++++++++++++..OOO.....+++++++++++++++++++++++++++",
"++++++++++++++++++++++++++++........++++++++++++++++++++++++++++",
"++++++++++++++++++++++++++++++++++ +++++++++++++++++++++++++++++",
"++++++++++++++++++++++++++++++++++ +++++++++++++++++++++++++++++",
"++++++++++++++++++++++++++++++++++++++++++++++++++++++++++++++++",
"++++++++++++++++++++++++++++++++++++++++++++++++++++++++++++++++",
"++++++++++++++++++++++++++++++++++++++++++++++++++++++++++++++++",
"++++++++++++++++++++++++++++++++++++++++++++++++++++++++++++++++",
"++++++++++++++++++++++++++++++++++++++++++++++++++++++++++++++++",
"++++++++++++++++++++++++++++++++++++++++++++++++++++++++++++++++",
"++++++++++++++++++++++++++++++++++++++++++++++++++++++++++++++++",
"++++++++++++++++++++++++++++++++++++++++++++++++++++++++++++++++",
"++++++++++++++++++++++++++++++++++++++++++++++++++++++++++++++++",
"++++++++++++++++++++++++++++++++++++++++++++++++++++++++++++++++",
"++++++++++++++++++++++++++++++++++++++++++++++++++++++++++++++++",
"++++++++++++++++++++++++++++++++++++++++++++++++++++++++++++++++",
"++++++++++++++++++++++++++++++++++++++++++++++++++++++++++++++++",
"++++++++++++++++++++++++++++++++++++++++++++++++++++++++++++++++",
"++++++++++++++++++++++++++++++++++++++++++++++++++++++++++++++++",
"++++++++++++++++++++++++++++++++++++++++++++++++++++++++++++++++",
"++++++++++++++++++++++++++++++++++++++++++++++++++++++++++++++++",
"++++++++++++++++++++++++++++++++++++++++++++++++++++++++++++++++",
"++++++++++++++++++++++++++++++++++++++++++++++++++++++++++++++++"
};
