/* XPM */
static char *result[] = {
/* columns rows colors chars-per-pixel */
"64 64 9 1 ",
"  c #0B0B0B",
". c gray10",
"X c #232323",
"o c #272020",
"O c #2C2C2C",
"+ c None",
"@ c #E6E6E6",
"# c white",
"$ c None",
/* pixels */
"++++++++++++++++++++++++++++++++++++++++++++++++++++++++++++++++",
"++++++++++++++++++++++++++++++++++++++++++++++++++++++++++++++++",
"++++++++++++++++++++++++++++++++++++++++++++++++++++++++++++++++",
"++++++++++++++++++++++++++++++++++++++++++++++++++++++++++++++++",
"++++++++++++++++++++++++++++++++++++++++++++++++++++++++++++++++",
"++++++++++++++++++++++++++++++++++++++++++++++++++++++++++++++++",
"++++++++++++++++++++++++++++++++++++++++++++++++++++++++++++++++",
"++++++++++++++++++++++++++++++++++++++++++++++++++++++++++++++++",
"++++++++++++++++++++++++++++++++++++++++++++++++++++++++++++++++",
"++++++++++++++++++++++++++++++++++++++++++++++++++++++++++++++++",
"++++++++++++++++++++++++++++++++++++++++++++++++++++++++++++++++",
"++++++++++++++++++++++++++++++++++++++++++++++++++++++++++++++++",
"++++++++++++++++++++++++++++++++++++++++++++++++++++++++++++++++",
"++++++++++++++++++++++++++++++++++++++++++++++++++++++++++++++++",
"++++++++++++++++++++++++++++++++++++++++++++++++++++++++++++++++",
"++++++++++++++++++++++++++++++++++++++++++++++++++++++++++++++++",
"++++++++++++++++++++++++++++++++++++++++++++++++++++++++++++++++",
"++++++++++++++++++++++++++++++++++++++++++++++++++++++++++++++++",
"++++++++++++++++++++++++++++++++++++++++++++++++++++++++++++++++",
"+++++++++++++++++++++++++++  +++++++++++++++++++++++++++++++++++",
"+++++++++++++++++++++++++OOOOOO+++++++++++++++++++++++++++++++++",
"++++++++++++++++++++++XXXXXXXXXXXX++++++++++++++++++++++++++++++",
"+++++++++++++++++++..................+++++++++++++++++++++++++++",
"+++++++++++++++++++++++++#     #++++++++++++++++++++++++++++++++",
"+++++++++++++++++++++++++#     $#+++++++++++++++++++++++++++++++",
"+++++++++++++++++++++++++      $$#++++++++++++++++++++++++++++++",
"++++++++++++++++++++++++++    .$$#++++++++++++++++++++++++++++++",
"++++++++++++++++++++++++++    ..$$#+++++++++++++++++++++++++++++",
"+++++++++++++++++++++++++++......$#+++++++++++++++++++++++++++++",
"++++++++++++++++++++++++++........#+++++++++++++++++++++++++++++",
"+++++++++++++++++++++++++++.......#+++++++++++++++++++++++++++++",
"+++++++++++++++++++++++++++ ......#+++++++++++++++++++++++++++++",
"+++++++++++++++++++++++++++ ......+++.++++++++++++++++++++++++++",
"++++++++++++++++++++XX+++++  ..........+++++++++++++++++++++++++",
"++++++++++++++++++++++XX+++  ..........+++++++++++++++++++++++++",
"++++++++++++++++++++++++XX    .........+++++++++++++++++++++++++",
"++++++++++++++++++++++++++    .........+++++++++++++++++++++++++",
"+++++++++++++++++++++++++      .......@##+++++++++++++++++++++++",
"+++++++++++++++++++++++++     oo.....@#######+++++++++++++++++++",
"+++++++++++++++++++++++++    @ooo...@##########+++++++++++++++++",
"++++++++++++++++++++++++++   ++ooo  ###########+++++++++++++++++",
"++++++++++++++++++++++++++  ++++ooo +#########++++++++++++++++++",
"++++++++++++++++++++++++++++ ++++ooo+++++###++++++++++++++++++++",
"++++++++++++++++++++++++++++++++++oo++++++++++++++++++++++++++++",
"++++++++++++++++++++++++++++++++++++o+++++++++++++++++++++++++++",
"++++++++++++++++++++++++++++++++++++++++++++++++++++++++++++++++",
"++++++++++++++++++++++++++++++++++++++++++++++++++++++++++++++++",
"++++++++++++++++++++++++++++++++++++++++++++++++++++++++++++++++",
"++++++++++++++++++++++++++++++++++++++++++++++++++++++++++++++++",
"++++++++++++++++++++++++++++++++++++++++++++++++++++++++++++++++",
"++++++++++++++++++++++++++++++++++++++++++++++++++++++++++++++++",
"++++++++++++++++++++++++++++++++++++++++++++++++++++++++++++++++",
"++++++++++++++++++++++++++++++++++++++++++++++++++++++++++++++++",
"++++++++++++++++++++++++++++++++++++++++++++++++++++++++++++++++",
"++++++++++++++++++++++++++++++++++++++++++++++++++++++++++++++++",
"++++++++++++++++++++++++++++++++++++++++++++++++++++++++++++++++",
"++++++++++++++++++++++++++++++++++++++++++++++++++++++++++++++++",
"++++++++++++++++++++++++++++++++++++++++++++++++++++++++++++++++",
"++++++++++++++++++++++++++++++++++++++++++++++++++++++++++++++++",
"++++++++++++++++++++++++++++++++++++++++++++++++++++++++++++++++",
"++++++++++++++++++++++++++++++++++++++++++++++++++++++++++++++++",
"++++++++++++++++++++++++++++++++++++++++++++++++++++++++++++++++",
"++++++++++++++++++++++++++++++++++++++++++++++++++++++++++++++++",
"++++++++++++++++++++++++++++++++++++++++++++++++++++++++++++++++"
};
