/* XPM */
static char *result[] = {
/* columns rows colors chars-per-pixel */
"64 64 141 2 ",
"   c #201F1B",
".  c #321E15",
"X  c #41271B",
"o  c #522C16",
"O  c #552F19",
"+  c #563516",
"@  c #583715",
"#  c #553816",
"$  c #5A3B17",
"%  c #58351E",
"&  c #5B3D18",
"*  c #533222",
"=  c #543825",
"-  c #593A25",
";  c #523D2C",
":  c #5D3E29",
">  c #613A28",
",  c #5C4117",
"<  c #5E4318",
"1  c #515414",
"2  c #555916",
"3  c #595C17",
"4  c #5A5E18",
"5  c #614519",
"6  c #644A1A",
"7  c #645B17",
"8  c #655B19",
"9  c #685E1A",
"0  c #5D6018",
"q  c #616418",
"w  c #67691B",
"e  c #696C1A",
"r  c #776916",
"t  c #6E701B",
"y  c #72751B",
"u  c #7F731E",
"i  c #77781E",
"p  c #5C402C",
"a  c #534A3E",
"s  c #60422E",
"d  c #624532",
"f  c #634935",
"g  c #654D39",
"h  c #68513E",
"j  c #6F6F21",
"k  c #6F7021",
"l  c #767522",
"z  c #787722",
"x  c #7A7A22",
"c  c #7A7A28",
"v  c #56314B",
"b  c #5E5546",
"n  c #645B4C",
"m  c #74654E",
"M  c #6B6353",
"N  c #746650",
"B  c #766E5F",
"V  c #76715E",
"C  c #7A466A",
"Z  c #756F61",
"A  c #797161",
"S  c #7E7967",
"D  c #7C7769",
"F  c #7D7869",
"G  c #80741E",
"H  c #855037",
"J  c #807F23",
"K  c #837E6E",
"L  c #838224",
"P  c #85822B",
"I  c #89862D",
"U  c #8B8632",
"Y  c #8E8933",
"T  c #86806F",
"R  c #878272",
"E  c #8A8576",
"W  c #8C8679",
"Q  c #8E897A",
"!  c #908B7E",
"~  c #8A4D8E",
"^  c #975683",
"/  c #9A568E",
"(  c #9E5D8F",
")  c #824D90",
"_  c #9B5A97",
"`  c #9E5D99",
"'  c #A05F8F",
"]  c #99668E",
"[  c #9B688F",
"{  c #A0658F",
"}  c #A1688F",
"|  c #A86E8E",
" . c #A16090",
".. c #A26E90",
"X. c #A2619E",
"o. c #A67490",
"O. c #AA7593",
"+. c #AE7A96",
"@. c #AF7A98",
"#. c #B07B96",
"$. c #B27C9B",
"%. c #AA5EB3",
"&. c #A75FBD",
"*. c #9A61A1",
"=. c #A66CA8",
"-. c #AF60BD",
";. c #B566BC",
":. c #B66BBC",
">. c #AB75B2",
",. c #AF79B6",
"<. c #B17AB7",
"1. c #BA73BD",
"2. c #B27CB9",
"3. c #B666C0",
"4. c #B86AC4",
"5. c #BC67CF",
"6. c #B66CC8",
"7. c #BF77C1",
"8. c #BB71CD",
"9. c #BD69D7",
"0. c #BF76D1",
"q. c #C077C4",
"w. c #C46DD6",
"e. c #C56EDB",
"r. c #C572D7",
"t. c #C178D3",
"y. c #C773D9",
"u. c #C874D9",
"i. c #CA6FE2",
"p. c #CA73E3",
"a. c #CD72E8",
"s. c #DB7AE9",
"d. c #8F8B80",
"f. c #918D81",
"g. c #939087",
"h. c #96948B",
"j. c #98958E",
"k. c #FF92DD",
"l. c #DB93F2",
"z. c #E5B0F5",
"x. c white",
/* pixels */
"y y y y y y y y y y 6 6 6 y y y y y y y y y y y y y y y y y y y y y y y y y y y y y y y y y y y y y y y t y y y y y y y y y y y ",
"y y y y y y y y y 6 P P I 6 y y y y y y y y y y y y y y y y y y y y y y y y y y y y y y y y y y g g g g f f y y y y y y y y y y ",
"y y y y y y 1.1.1.:.1.L P i 6 6 y 1.1.1.1.1.y y y y y y y y y y y y y y y y y y y y y y y g g h R R T R R b f p y y y y y y y y ",
"y y y y y y 1.1.1.:.7.7.1.1.1.1.;.1.1.1.1.1.1.1.1.1.y y y y y y y y y y y i 1.<.1.1.1.1.4.8.8.8.0.0.0.0.0.0.6.6.4.1.1.1.y y y y ",
"y y y y y y 5 6 6 P r.r.u.1.1.:.:.1.r.y.r.r.r.r.r.r.o.y y y y y y y 1.1.1.1.1.1.1.1.1.4.8.8.8.t.0.0.0.0.0.0.6.i.i.1.1.1.1.y y y ",
"y y y y y y 5 P P +.+.O.O.O.O...| { ( ] o.o.o.o.o.o.o.y y y y y 1.1.1.1.1.1.1.1.1.1.3.a.a.a.a.t.0.0.0.0.a.p.a.i.a.;.1.1.1.1.1.y ",
"y y y y y y 5 P P +.+.O...O.O.+.+...[ | { o.o.o.o.o.y y y y y y 1.1.1.y | O.K #.o.` 0.p.u.p.u.t.0.0.0.0.0.a.y.i.*.*._ o.t.t.1.y ",
"y y y 6 6 6 i J c P P e e x +.+.+.+...| ' o.y y y y y y y y y y y y y i O.| | #.` >.0.t.2.2.p.t.0.0.u.p.p.j.2.2.*.*.X._ o.o.y y ",
"y y 6 P P 7.1.7.c x x x x e P P P P w w 7 5 5 y y y y y y y y y y y y y y y y ^ s N =.j.2.2.<.<.<.<.,.,.2.,.j.,.Q b a ;   e y y ",
"y y 6 I 7.7.7.7.1.1.q.1.P x e e w w e 7 7 2 1 y y y y y y y y y y y y y y y y ^ d m N t.2.;.;.2.<.<.<.E E d...E E E a a     y y ",
"1.1.1.;.q.y.$.y.u.u.u.u.#.O.e y t 7 7 7 1 1 1 y y y y y y y y y y y y y y y ^ ^ N N g.o.W W ^ ^ W Q E E E W E W W Q b a ;     y ",
"1.1.1.;.y.o...O.O.O.O.#.#...e e l j t 1 1 5 5 y 5 y y y y y y y y y y y y ^ ^ > N ! E E Q W W ^ ^ Q Q E E Q Q Q W d.a a a ;     ",
"y y ;.r.o.o.j 3 t k k w w e e 7 7 y j l , y y y 5 5 y y y y y ^ K ^ y y y ^ ^ m Q Q W Q Q Q ..W ^ ! Q ! ! Q Q W W d.a a a a ;   ",
"y y ' o.o.y 3 3 l l t 7 w e 7 7 j t l t 1 $ y y y 5 y y y y y y G ^ y y y y ^ ^ T ! W Q W Q K ^ Q ! ! ! f.Q Q E g.n b b a a ;   ",
"y y ( [ 3 3 3 3 t l 7 7 1 1 1 1 y y y 1 1 @ y y y 5 5 y y y y y & ^ u y y s m ^ K K h.W Q Q K K ! ! f.6 6 6 g.g.n n M b a a ;   ",
"y y y y < 5 3 q q 0 1 1 1 3 3 3 1 1 1 1 1 y y y y y 5 5 y y y 5 & ^ r y y C ^ ^ T K K h.g.h./ o.! g.6 P P I < Z n n b b b a p   ",
"y y y y y y , q q 0 q 1 & 3 2 2 3 1 + + + y y y t y y 5 5 5 5 5 y ^ y y : C ^ K K K K K K ^ ^ ! ! h.6 P P P z 6 6 n n b b n p   ",
"y y y y y y y & 0 0 q & y $   | ) ) ) o.o.o.y y l l y y 5 5 y y ^ ^ y y : C ^ K K K K K K ^ C f.h.S 6 P P P i e e 6 n b b b =   ",
"y y y y y y y y $ ;.;.r.] =.` =.X.) ) o.o.o.C y j r y y 5 y y ^ ^ y y y ; C ^ K K K K K K ^ C K 6 6 P P i x e e w < b b b b = t ",
"y y y y y y y 1.1.1.6.e.e.y.p.y.0.4.&.&.1.5.5.1.r K y 5 5 y ^ ^ y y y y - M C K K K K K C ^ K 6 P P P P x z i C e w 6 6 1 b = y ",
"y y y y y 1.1.1.1.w.,.p.p.p.y.p.y.p.w.9.9.e.1.1.y ^ y 5 y C ^ y y y y y - M C N m K K C C K K 5 P L P P i ^ C C P P e e w 5 y y ",
"y y y y y 1.1.1.6.p.a.0.,.,.,.,.,.>.X.) ) -.C y y ^ ^ 5 y C y y H H y y y = C C M N C C 6 s > G c J P P e ^ C P P P P e w < y y ",
"1.1.1.1.1.1.1.:.0.0.a.0.E E R R R D S f     C y y y ^ ^ 5 C C H H y y y l = M C M M C 5 J U I c x J x x ^ ^ e P P P L e e 7 5 5 ",
"1.1.1.1.1.1.4.8.Z d.W E E W W E d.D S S d   C y y y y ^ 5 5 C 5 5 H H H H H * C M M C C U J I J c ^ P P ^ C x e w w e e 7 7 1 1 ",
"y y 1.1.1.:.8.A f.E E E E W W g.D D D D f C C y y y H ^ H H C > > > > > > > C C N M M C C J U I G ^ J I ^ P i e t y 7 7 7 1 1 1 ",
"y y y y y d V V f.W E W W W h.F D D D Z d C   y H H H ^ > > C C * * * * * C C * n M M M C C t t G ^ J z C P e e y k l k 1 1 < < ",
"y y y y y s M M f.f.f.f.d.h.B V O O Z Z p C H H H > > ^ * * C C * * * * C C * * > * * 5 j C l l 2 ^ l e C e e w 7 7 t t y , y y ",
"y y y y y y > M M M n h.h.o o o y y 6 p y C C C > > % ^ * C C * * * * C C * * * * * * 5 C C j 4 3 ^ y C C e w 4 7 l k l l 1 & y ",
"y y y y y y y $ M n n y 6 6 z y y y > > H H > C C C * ^ * C * * * X X C X * * * * * * C C 3 3 3 3 ^ j H 7 1 1 1 1 k y k 1 1 + t ",
"y y y y y y y y O n y 6 e w x y y y 6 H H > > * * C * ^ * C X ^ X X X C X X X * * * * C < < < 4 ^ ^ 3 ) 1 1 3 3 3 1 1 1 1 1 # y ",
"y y y y y y y y l y y 6 e e e x x y y 6 6 > * * * C * ^ X C C k.X X X C X X X X X X C C * * > & ^ 4 C C 1 # 2 3 3 3 1 + + + y y ",
"y y y y y y y y 5 5 6 w w x z i x y y y y * * * C C X X X X C X X X X C k.X X k.X X C * * * * * ^ 5.9.3.p.1.;.:.:.:.;.1.1.1.1.1.",
"y y y o.o.y y 5 y y y P P z O...O.o.O.O.y 6 * X C C X k.k.X C X X v v v X X v X / C 5.-.-.3.-.w.w.5.3.i.i.i.7.;.;.;.1.1.1.1.1.1.",
"y y y o.o.o.y 5 y y P P P @.O.....o.| O.O.O.6 5 & C C k.X X X v v v . k.k.. . . K X s.-.-.5.w.w.i.i.w.w.i.1.r y r y y y y y y y ",
"y y o.o.o.{ ( { y y P +.O.@...O.O.O.x O.O.O.@.@.@.( %.%.. . ^ ^ . . ^ C . . k.k.. X X C C C > 5 3.;.;.w.w.1.1.3.1.1.1.1.1.1.y y ",
"y y o.o.( ] ] { [ o.o.o.o.O.O.o.@.@.P w c $.@.@.@.( ~ %.C . . . k.. ^ C C ^ k.. . . > C > > & 5 G ;.1.1.a.1.1.;.1.1.1.1.1.1.y y ",
"y y y o._ ] ] ] [ } } o.o.o.z y y P P u u J U I 5 > > . . . ^ k.. k.k.k.v . k.k.k.. . > H y 5 y r 5 5 ;.w.w.9.G u r y y y y y y ",
"y y y y y < 5 1 1 y l y j y y y y u u u G l j l 5 i H ^ ^ / ^ k.. ^ k.^ ^ k.k.. . . y y y y y y y u y y y 5 ^ K ^ K y y y y y y ",
"y y y y y y y & l l j 7 7 y y y y y y y 4 6 6 6 t 5 u ^ . . . . . . . . . . . . y y y y y y y y y y y y y y y y 5 l y y y y y y ",
"y y y y y y & 1 e e l t 7 7 y y 7 y y y 6 J I P 5 5 y ^ K . y y y y y y y y y . y r i y y y y y 6 6 6 y y y y y 5 t y y y y y y ",
"y y y y y y , 1 1 t l t 1 1 1 1 7 7 y y 6 P P P x 6 6 . ^ ^ ^ y y y y y x.y y y o.o.o.o.O.o.o.6 Y Y Y 6 y y y y 5 5 5 5 5 5 y y ",
"y y y y y y @ 1 1 1 1 1 3 3 3 1 1 1 q q 6 P P P i w e 6 y t ^ ^ y y y x.x.y y y o.o.o.{ ' { o.{ $.$.$. .y 6 6 y 5 y y y y y y y ",
"y y y y y y y # 5 + 1 3 3 3 3 $ 1 q 6 6 P P x i e e e < y y y ^ K y y y y x.y y y y 6 Y Y Y } #.$.$.O.O.6 l l 6 5 y y y y y y y ",
"y y y y y y y y 5 y + 3 [ [ / o.( ] P @.O.O.x x x x e e 6 < 6 y / ^ y y y y x.y y y 6 Y Y Y L L L L L L x l l l 5 5 y y y y y y ",
"y y y y y y y , 5 ' o./ / / o.o.o.] @.O.$.+.+.w z z P P w w e < r ^ u r y y y 6 6 6 J I J I L L L L L L z z z l 6 y y y y y y y ",
"y y y y y y ' { ' ' o.o.o.o.' {  .+.+.+.+.@...| z P P P O...o.w.i.9.1.1.y y 6 Y $.j.Y J I G L Y Y Y L L J l z 9 9 < 6 < y y y y ",
"y y y y o.| ^ o.o.' w.r.r.w.r.u.y.y.1.p.p.7.r.o...+.@.O.u.y.r.w.i.;.;.u.o.o.{ $.$.$.$.#.I y y Y Y Y Y L J i 9 q 7 k e e < y r y ",
"y y i o.o.t.r.1.1.1.:.1.1.;.7.7.q.p.p.a.a.y.7.y.O...o.r.r.y.y.:.w.i.w.i.p.p.p.w.s.i.q.q.u y y u Y Y Y L i i l k 7 t t t 6 y y y ",
"y y y | | 1.:.1.1.1.u.1.1.1.;.7.q.y.r.w.#.#.u.a.r.| o.p.i.:.e.w.w.i.w.r.r.r.y.t.r.u.O.| r I I i i Y Y i i i J J J 8 e 5 y y y y ",
"y y y 1.1.;.:.1.t.| r.t.u.u.w.u.y.y.O.O.G O.@.y.w.r.e.y.y.y.w.w.w.( y y y i  . .O.#.L r L I I P i i z i i U U U J e 5 y y y y y ",
"y y y 1.1.;.:.<.r.| o.o.O.' o.o.O.| 3 t l t w ..r.y.w.w.o.o.o.& y y y y y 5 P I I Y L L L I I I G u u i i U U I t t e 5 < y y y ",
"y y y y 5 5 5 y i y y y y 5 t t t 3 3 y t l 8 w w 7 7 y k t l 1 & y y y y 6 U U U Y L L Y Y L u u u u y y U I y t t t e e 5 y y ",
"y 6 5 5 5 y 5 y y y y r y 5 3 3 3 3 3 y y 7 7 1 1 1 1 l e l 1 1 $ y y y y 5 U U U y y U U Y L L O.O.o.o.$.#.O.#.O...e e | ] < y ",
"5 5 y y y y 5 y y y y y y y 5 < 5 3 q q q 1 1 1 3 3 3 1 1 1 1 1 + y y y y y 6 i x y y U U o.+.+.q.r.r.u.u.r.u.u.y.y.o.| ] ] < y ",
"5 y y y y y 5 5 y y y y y y y y y , q q q q 1 @ 3 3 3 3 1 + + + y y y y y 5 i c z U U U ....$.$.$.7.7.1.7.1.7.q.1.t.[ e.w.:.1.1.",
"5 y y y y y y 5 y y y y y y y y y y $ q q q , y @ 3 3 3 + t y y y y y y 5 w z l c U $.u.w.y.7.7.q.1.1.7.1.7.7.p.:.y.w.y.w.t.1.1.",
"y y y y y y y 5 y y x.x.y y y y i y y $ $ $ y y y # # # y y y y y y y y < w e w 1.7.y.r.r.1.7.y.r.r.r.r.1.7.1.r.y.y.w.w.] ( y y ",
"y y y y y y y 5 o.o.z.o.o.o.o.o.o.o.o.o.y y y y y y y y y y y y y y y y < y l w 1.:.1.:.t e o.o.[ | ..r.r.w.r.w...] 2 2 1 2 < y ",
"y y y y y o.o.o.z.o.z.z.o.z.t.r.t.r.o.o.o.o.o.o.y y 5 y y y 5 y y y y y < t j w q t e t e t o.o.3 0 t ..| ] { ] 2 2 4 4 3 0 , y ",
"y y 1.1.y o.o.o.z.1.l.l.l.l.1.1.1.1.1.| o.o.o.o.y y 5 y 5 5 5 y y y y y y < < 0 q c c c 0 t e 3 3 3 r r 1 1 1 2 2 2 4 4 0 , y y ",
"y y 1.1.y y y 1.l.l.1.1.l.1.1.1.1.1.1.1.o.o.y y y 5 5 5 5 y y y y y y y y y y < c c c c 3 7 7 3 3 3 7 1 1 1 q e 2 2 0 0 , y y y ",
"1.1.1.1.y y 1.1.1.l.l.l.l.1.1.1.1.1.1.1.1.1.;.;.;.;.5 5 5 5 y y y y y y y y y , c x c , 3 3 3 3 3 2 + 2 2 q q q $ # # # y y y y ",
"1.1.1.1.1.1.1.1.1.1.1.1.1.1.1.u.t.r.r.1.:.:.;.;.1.1.1.1.y y y y y y y y y y y y $ $ $ y & 3 3 2 + # y + 2 q q # y y y y y y y y ",
"y y y 1.1.1.1.1.1.1.1.1.1.1.1.r.o.| w.:.;.1.1.1.1.1.1.1.y y y y y y y y y y y y y y y y y $ @ + y y y y o + # y y y y y y y y y "
};
