/* XPM */
static char *result[] = {
/* columns rows colors chars-per-pixel */
"64 64 15 1 ",
"  c black",
". c #443F3F",
"X c #2D4417",
"o c #72751B",
"O c #163266",
"+ c #103477",
"@ c #8F563B",
"# c #6ABE30",
"$ c #99E550",
"% c #2B4B82",
"& c #2251A7",
"* c #4A6AA4",
"= c #4382F4",
"- c #639BFF",
"; c #9BADB7",
/* pixels */
"oooooooooooooooooooooooooooooooooooooooooooooooooooooooooooooooo",
"oooooooooooooooooooooooooooooooooooooooooooooooooooooooooooooooo",
"oooooooooooooooooooooooooooooooooooooooooooooooooooooooooooooooo",
"oooooooooooooooooooooooooooooooooooooooooooooooooooooooooooooooo",
"oooooooooooooooooooooooooooooooooooooooooooooooooooooooooooooooo",
"oooooooooooooooooooooooooooooooooooooooooooooooooooooooooooooooo",
"oooooooooooooooooooooooooooooooooooooooooooooooooooooooooooooooo",
"oooooooooooooooooooooooooooooooooooooooooooooooooooooooooooooooo",
"oooooooooooooooooooooooooooooooooooooooooooooooooooooooooooooooo",
"oooooooooooooooooooooooooooooooooooooooooooooooooooooooooooooooo",
"oooooooooooooooooooooooooooooooooooooooooooooooooooooooooooooooo",
"oooooooooooooooooooooooooooooooooooooooooooooooooooooooooooooooo",
"oooooooooooooooooooooooooooooooooooooooooooooooooooooooooooooooo",
"oooooooooooooooooooooooooooooooooooooooooooooooooooooooooooooooo",
"oooooooooooooooooooooooooooooooooooooooooooooooooooooooooooooooo",
"oooooooooooooooooooooooooooooooooooooooooooooooooooooooooooooooo",
"oooooooooooooooooooooooooooooooooooooooooooooooooooooooooooooooo",
"oooooooooooooooooooooooooooooooooooooooooooooooooooooooooooooooo",
"oooooooooooooooooooooooooooooooooooooooooooooooooooooooooooooooo",
"oooooooooooooooooooooooooooooooooooooooooooooooooooooooooooooooo",
"oooooooooooooooooooooooooooooooooooooooooooooooooooooooooooooooo",
"oooooooooooooooooooooooooooooooooooooooooooooooooooooooooooooo$$",
"oooooooooooooooooooooooooooooooooooooooooooooooooooooooooooooo$$",
"oooooooooooooooooooooooooooooooooooooooooooooooooooooooooooooo$$",
"ooooooooooooooooooooooooooooooooooooooooooooooooooooooooXXXooo##",
"ooooooooooooooooooooooooooooooooooooooooooooooooooooooooXXXXX###",
"ooooooooooooooooooooooooooooooooooooooooooooooooooooooooXXXXX###",
"ooooooooooooooooooooooooooooooooooooooooooooooooo....#####XXX###",
"ooooooooooooooooooooooooooooooooooooooooooooooo  ....######XX###",
"ooooooooooooooooooooooooooooooooooooooooooooo       ....####XX##",
"oooooooooooooooooooooooooooooooooooooooooo     ;    .....####X$#",
"ooooooooooooooooooooooooooooooooooooooooo    ;;;;;;;  ....###XX#",
"ooooooooooooooooooooooooooooooooooooooo    ;;;;;;;;;   ...$#####",
"ooooooooooooooooooooooooooooooooooooooo  ;;;;;  ;;;;;;  ...#####",
"ooooooooooooooooooooooooooooooooooooooo  ;;;;;  ;;;;;;;  ....###",
"oooooooooooooooooooooooooooooooooooooo   ;;;;;  ;;;;;;;  ....X##",
"oooooooooooooooooooooooooooooooooooooo   ;;     ;;;;;;;;;.....@@",
"oooooooooooooooooooooooooooooooooooooo   ;;    ;;;;       ...@@@",
"ooooooooooooooooooooooooooooooooooooo  ;;;;;;;;;;;        @@@@@@",
"oooooooooooooooooooooooooooooooooooooo ;;;;;;;;;;;  @@@@@@======",
"oooooooooooooooooooooooooooooooooooooo@@@@@@@@@@@@@=============",
"oooooooooooooooooooooooooooooooooooooo@@@@@@@@@@@@==========----",
"ooooooooooooooooooooooooooooooooo@@@@@@@===============------**-",
"ooooooooooooooooooooooooooooooooo@@@@@==============---------**-",
"oooooooooooooooooooooooooooooooo@@@@@==========--***------------",
"ooooooooooooooooooooooooooooooo@@@==========-----***------------",
"ooooooooooooooooooooooooooooo@@@@======----------------***%%%%%%",
"ooooooooooooooooooooooooo@@@@@@=====---***---++++-----***%%%%%%%",
"ooooooooooooooooooooooo@@@@@@======----***---++++--*****%%%%%%%%",
"ooooooooooooooooooooo@@@@@=======------**---%%%%%%******%%%%%%%%",
"ooooooooooooooooooooo@@@=======------------%%%%%%%%%%%%%%%%%%%%%",
"ooooooooooooooooooooo@@===----------------%%%%%%%%%%%%%%%%%%%%%%",
"oooooooooooooooooooo@@====----****----%%%%%%%%%%%%%%%%%++&&&&&&&",
"ooooooooooooooooooo@@====----*****---%%%%%%%%%%%%%%%%&&&&&&&&&&&",
"ooooooooooooooooooo@@===-----***-----%%%%%%%%%%%%%&&&&&&&&&&&&&&",
"ooooooooooooooooo@@@===-------------%%%%%%%%%%&&&&&&&&&&&&&&&&&&",
"ooooooooooooooo@@@@====-------------%%%%%%&&&&&&&&&&&&&&&&&&OOOO",
"ooooooooooooooo@@@====-------%%%%%%%%%%%&&&&&&&&&&&&&&&&&&&&OOOO",
"ooooooooooooooo@@====--------%%%%%%%%%%%&&&&&&&&&&&&&&&&&&&&&&&&",
"ooooooooooooo@@=====-------%%%%%%%%%%%&&&&&&&&&&&&OOO&&&&&&&&&&&",
"ooooooooooo@@@@====------%%%%%%%%%%%&&&&&&&&&&OOOOOOO&&&&&&&&&&&",
"ooooooooooo@@@@==--------%%%%%%%%%&&&&&&&&&&&&OOOOOO&&&&&&&%%%%%",
"ooooooooooo@@====--------%%%%%%%&&&&&&&&&&&OOOOOOOOO&&&&&&%%%%%%",
"oooooooooo@@=====--------%%%%%%%%&&&&&&&&&OOOOOOOO&&&&&&%%%%%---"
};
