/* XPM */
static char *result[] = {
/* columns rows colors chars-per-pixel */
"128 21 2 1 ",
"  c black",
". c white",
/* pixels */
"................................................................................................................................",
"..                                                                                                                            ..",
"..                                                                                                                            ..",
"..                                                                                                                            ..",
"..                                                                                                                            ..",
"..                                                                                                                            ..",
"..                                                                                                                            ..",
"..                                                                                                                            ..",
"..                                                                                                                            ..",
"..                                                                                                                            ..",
"..                                                                                                                            ..",
"..                                                                                                                            ..",
"..                                                                                                                            ..",
"..                                                                                                                            ..",
"..                                                                                                                            ..",
"..                                                                                                                            ..",
"..                                                                                                                            ..",
"..                                                                                                                            ..",
"..                                                                                                                            ..",
"..                                                                                                                            ..",
"................................................................................................................................"
};
