/* XPM */
static char *result[] = {
/* columns rows colors chars-per-pixel */
"64 64 11 1 ",
"  c #2D4417",
". c #72751B",
"X c #163266",
"o c #103477",
"O c #8F563B",
"+ c #6ABE30",
"@ c #2B4B82",
"# c #2251A7",
"$ c #4A6AA4",
"% c #4382F4",
"& c #639BFF",
/* pixels */
"........OOOO%%%%&&&&&&&&&@@@&&&&@@#######XXXX##########@@@@&&&&&",
"........OOO%%%%%&&&&&&&&&&&&&&&@@@#######XXX##########@@@&&&&&&&",
".......OOOO%%%%&&&&&&&&&&&&&&&@@@@###################@@@&&&&&&&&",
".......OOOO&&&&$$$&&&&&&&&&&&&@@@##################@@@@&&&&&&&&&",
".......OO%%%%&$$$$&&&&&&&&&&&@@@###################@@@&&&&&&&&&&",
".......OO%%%%&$$$&&&&&&&&&&&&@@###################@@@&&&&&&&&&&&",
".......OO%%&&&$$&&&&&&&&&&&&&@@#################@@@@&&&&&&&$$$$$",
".......OO%%&&&$$&&&&&&$$&&&&&@@@@##############@@@@&&&&&&$$$$$$$",
".......OO%%&&&$$&&&&&&$$&&&&&@@$$$@@@@@@@@@@@@@@@&&&&&&&$$$$$$$$",
".......OO%%&&&$$&&&&&&&&&&&&&&&$$$$$$$@@@@@@@@@@&&&&&&&$$$$$$$$$",
"........O%%&&&&&&&&&&&&&&&&&&&&&$$$$$$&&&&&&&&&&&&&&&$$$$$$$$$$$",
"........O%%&&&&&&&&&&&&&&&&&&&&&&&&&&&&&&&&&&&&&&&&&$$$$$$$$$$$$",
"........O%%&&&&&&&&&&&&&&&&&&&&&&&&&&&&&&&&&&&&&&&&$$$$$$$&&&&$$",
"........O%%%&&&$$$&&&&&&&&&&&&&&&&&&&&&&&&&&ooo&&&&$$$$$$&&&&&&&",
"........O%%%%%&$$$$&&&&&&$$$$&&&&&&&&&&&&&&ooooo&&&&&&&&&&&&&&&&",
"........OO%%%%&&$$$$&&&&&$$$$$$&&&&&&&&&&ooooooo&&&&&&&&&&&&&&&&",
"........OOOO%%%%&$$$&&&&&$$$$$$$$&&&&&&&&ooooo&&&&&&&&&&++&&&&&&",
".........OOO%%%%%&&&&&&&&&&$$$$$$$$$&&&&&&&&&&&&&&&&&&&&++&&&&&&",
"..........OOOO%%%%%%&&&&&&&&&$$$$$$$$$$$&&&&&&&&$$  &&&&+++&&&&&",
"...........OOOOO%%%%%&&&&&&&&&&&$$$$$$$$$&&&&&&&$$  ++&&+++&&&&&",
".............OOOOO%%%%&&&&&&&&&&&&&$$$$$$&&&&&&&&&  +++& ++&$$ +",
"..............OOOOO%%%%%%%%%&&&&&&&$$$$$&&&  &&&&&& +++&  &$$  +",
"...............OOOOO%%%%%%%%%&&&&&&&&&&&&&&    &&&&  ++&  &$+++ ",
".................OOOOOOO%%%%%%%&&&&&&&&&&&&    +++&&   &  &++++$",
"...................OOOOOO%%%%%%%&&&&&&&&&&&&&  +++&&      ++++&&",
".....................OOOOOO%%%%%%%&&&&%%&&&%%%% ++ &++    +++&&&",
".........................OOOOO%%%%%%%%%%%%%%%%%%    ++      &&&&",
"..........................OOOOO%%%%%%%%%%%%%O%%%    +++     &+++",
"............................OOOOOOOOOOOOOOOOOOOO%   +++    &++++",
".............................OOOOOOOOOOOOOOOOOOOOO   +++   %+++ ",
"................................OOO.........OOOOOOO  +++   +++  ",
"..................................................OO  ++   +++%%",
"....................................................  ++  +++ %%",
"..................................................... ++  +++OO%",
"..................................................... ++  ++OOOO",
"......................................................++  ++...O",
"......................................................      ....",
"................................................................",
"................................................................",
"................................................................",
"................................................................",
"................................................................",
"................................................................",
"................................................................",
"................................................................",
"................................................................",
"................................................................",
"................................................................",
"................................................................",
"................................................................",
"................................................................",
"................................................................",
"................................................................",
"................................................................",
"................................................................",
"................................................................",
"................................................................",
"................................................................",
"................................................................",
"................................................................",
"................................................................",
"................................................................",
"................................................................",
"................................................................"
};
