/* XPM */
static char *result[] = {
/* columns rows colors chars-per-pixel */
"64 64 95 2 ",
"   c #201F1B",
".  c #321E15",
"X  c #41271B",
"o  c #522C16",
"O  c #552F19",
"+  c #563516",
"@  c #583715",
"#  c #553816",
"$  c #5A3B17",
"%  c #58351E",
"&  c #5B3D18",
"*  c #533222",
"=  c #543825",
"-  c #593A25",
";  c #523D2C",
":  c #5C3E2A",
">  c #613A28",
",  c #5C4217",
"<  c #5E4218",
"1  c #515414",
"2  c #585213",
"3  c #555916",
"4  c #595C17",
"5  c #5A5E18",
"6  c #614519",
"7  c #644A1A",
"8  c #645B17",
"9  c #655B19",
"0  c #685E1A",
"q  c #5D6018",
"w  c #616418",
"e  c #676A1A",
"r  c #696C1A",
"t  c #766916",
"y  c #6E701B",
"u  c #72751B",
"i  c #7F731E",
"p  c #77781E",
"a  c #5E412D",
"s  c #534A3E",
"d  c #60432F",
"f  c #624532",
"g  c #644936",
"h  c #664C39",
"j  c #684E3B",
"k  c #6F6F21",
"l  c #6F7021",
"z  c #767522",
"x  c #787722",
"c  c #7A7A22",
"v  c #7A7A28",
"b  c #5E5546",
"n  c #605647",
"m  c #605748",
"M  c #635A4C",
"N  c #73654E",
"B  c #6B6353",
"V  c #766E5F",
"C  c #786F5F",
"Z  c #76715E",
"A  c #7E486D",
"S  c #756F61",
"D  c #7A7363",
"F  c #7E7967",
"G  c #7C7769",
"H  c #7E7869",
"J  c #80741E",
"K  c #855037",
"L  c #807F23",
"P  c #837E6D",
"I  c #847F71",
"U  c #838223",
"Y  c #85822C",
"T  c #89862C",
"R  c #8B8632",
"E  c #8E8833",
"W  c #86806F",
"Q  c #878172",
"!  c #898474",
"~  c #8C8679",
"^  c #8D897A",
"/  c #908C7E",
"(  c #76428A",
")  c #7E4693",
"_  c #874C9E",
"`  c #D77BBA",
"'  c #AC60C9",
"]  c #C56EE6",
"[  c #8F8B80",
"{  c #918D81",
"}  c #939087",
"|  c #96948B",
" . c #98958E",
".. c #FF92DD",
"X. c white",
/* pixels */
"u u u u u u u u u u 7 7 7 u u u u u u u u u u u u u u u u u u u u u u u u u u u u u u u u u p u u u u u u u u u u u u u u u u u ",
"u u u u u u u u u 7 Y U Y 7 u u u u u u u u u u u u u u u u u u u u u u u u u u u u u u u u u u h j h g g g u u u u u u u u u u ",
"u u u u u u u u u 7 U Y Y c 7 7 u u u u u u u u u u u u u u u u u u u u u u u u u u u u u h j j ! ! W ! W b g f u u u u u u u u ",
"u u u u u u u u u 7 T Y Y p r r 7 u u u u u u u u u u u u u u u u u u u u u u u u u u u h ^ Z Z W W ! W W ! b m a u u u u u u u ",
"u u u u u u 6 7 2 Y Y x c r r e 7 u u u u u u u u u u u u u u u u u u u u u u u u u u d Z ^ ^ / ! W W W ! ! b M a u u u u u u u ",
"u u u u u u 6 Y Y Y Y c p c p r r 6 6 7 u u u u u u u u u u u u u u u u u u u u u u d P P ^ ^ ! ! ! ! ! ! W ! M M a u u u u u u ",
"u u u u u u 6 Y Y L Y p r p x Y Y e e r 7 u u u u u u u u u u u u u u u u u u u u d Z P Z / ^ ! ! ! W ! ! ! ! M M s , u u u u u ",
"u u u 7 7 7 p L v Y Y r r x Y Y Y U r r 6 u u u u u u u u u u u u u u u u u u u d Z P P / ^ ^ ! W ! ! ! ! ! ! ! s s s a u u u u ",
"u u 7 Y R L c c v c v c c r L T Y Y e e 8 6 6 u u u u u u u u u u u u u u u u u d N N / ^ ^ W ! ! ! ! ! ! ~ ! ! / s s ;   y u u ",
"u u 7 Y T T T v r T R L L v e r e e e 8 8 1 1 u u u u u u u u u u u u u u u u u d N N ^ ^ ^ ^ ! ! ! ! ! ~ ! ! ! ^ ^ s s     u u ",
"u u u 7 L R R J J L R R Y c r k y 9 8 8 3 1 1 u u u u u u u u u u u u u ] u u a N N / ^ ^ ^ ^ ^ ^ ^ ! ! ! ^ ! ^ ^ ^ s s ;     u ",
"u u u 6 z k y J J J x L Y e e z z y k 1 1 < 6 u 6 u u u u u u u u u u u u u u d N / ^ ^ ! ^ ^ ^ ~ ^ ^ ! ! ^ ^ ^ ^ ^ s b s a     ",
"u u 6 u k z y 4 z k u e e r e 8 8 u y z , u u u 6 u u u u ..u u u u u u u u - N / ^ ! ^ ^ ^ ^ ^ ^ / ^ / ^ / ^ ^ ! [ s s s s a   ",
"u u 6 k u y 4 4 y u k 8 e e 8 8 u u u y 1 , u u u u u u u u u u u 8 u u u u a N W ..~ ^ ^ ^ ^ ^ / / / / / / ~ ! } M m b s s ;   ",
"u u 6 4 4 4 5 5 z k 8 8 1 1 1 1 y y y 1 1 @ u u u u 6 u u u u u 2 2 t u u d N P W W } ~ ~ ^ ^ / / / / 8 a 7 } } M M m m s s ;   ",
"u u u u < 6 4 w w q 1 1 1 4 4 4 1 1 1 1 1 u u u u u 6 6 u u u 6 6 t u ] u 7 P W W W W ~ ^ | ../ } / 7 U Y Y 3 Z M M b b b s ;   ",
"u u u u u u < w q w w 1 & 4 5 4 4 1 + + + u u ..u u u 6 6 6 6 6 u u ) u a P P P P P ~ / P W | / / } 7 U Y Y p 6 7 M m M m n a   ",
"u u u u u u u & w q w & u #   u       u u ..u u u u u u 6 6 u u u u ..u a W H P P ^ ~ W P P | } | P 7 T Y Y x r r 7 m m n b =   ",
"u u u u u u u u & & & l 4 h j j j     u u u u u u u u u 6 u u u u ....u = H W P P ^ P P W | D P 7 7 Y Y c c r e r 7 b m b b = y ",
"u u u u u u u u u u h g j Q I I I h     u u u u ' u u 6 6 u u u u ) ) u : B B W P ` ` P P | P 7 ..Y Y Y p x c p e e 6 6 2 b = u ",
"u u u u u u u u l h Q I H Q Q H I Q h     u u u u u u 6 u u u u u ) u u = B B B N P ` P { G G 7 Y Y Y Y x e c c Y Y e r e < u u ",
"u u u u u u u u g [ ! ! ~ Q Q Q I G g       u u ' ' u 6 u u ..u K ) u u u % B B B B ` ` 7 7 7 v c c Y Y e e p Y Y Y U e e < u u ",
"u u u u u u u g S [ ~ ! ~ ~ Q Q Q G F g       u ' u u 6 6 K ..K K ) ) u u = B B B B ( ( Y Y Y v c c c c c c e Y Y Y Y e e 8 6 6 ",
"u u u u u u g C S [ ! ! ~ ~ ~ ! ^ G F F g     u ' u u u 6 ....6 6 K ) K K K = B B B ( 7 Y T T Y c r T T ....c e r r e e 8 8 3 3 ",
"u u u u u g C D [ ! ! ! ! ~ ~ | G G G G g     u _ _ K K K ..> > > > ) : > : * B B B ( B 7 Y Y Y i i Y ....Y c r y y 8 8 8 1 1 1 ",
"u u u u u f D C { ! ~ ~ ! ~  .G G G G S f     u K _ K > > * > * * % * * % * % * B B ( M 6 z u k i i i i Y Y e e y z z z 1 1 , , ",
"u u u u u d B B } [ [ [ ^  .V V O O S S > K K K K _ > > * * * * * ) * * * * * * > * ( ( z z r u ..y l z r r e e 8 w z r u & u u ",
"u u u u u u < N B B M  .| o o + u u 7 a ....K > > _ * * * * * * ) ) * * * * * * * O * ..r z z 4 4 z u l 8 r e 8 8 l y z z 1 & u ",
"u u u u u u u , B M B y 7 7 c y u u > > K ....> * * * * * * * ) ) X X X X * ..* * * * ..4 4 4 4 4 y z 8 8 1 1 1 1 l y z 1 1 + y ",
"u u u u u u u u O M u 6 r r c u u u 7 K K > : * * _ * * * * ..) X X X X X A ..* * * * * < < 6 5 w w q 1 1 1 3 4 4 1 1 1 1 1 + u ",
"u u u u u u u u z u u 7 r r r x c u u 6 7 > % * _ * * * X X ..) ) X X X X A X X X X * * * * > & w q q w 1 $ 4 4 4 4 1 # + + u u ",
"u u u u u u u u 6 6 6 r r p x p c u u u u = * * _ X X X X X ..X X X X X X A X X X X X ( * * * = ..w w w $ u # 4 4 4 + u u u u u ",
"u u u u u u u 6 u u u Y Y p x r x u u u u 6 % X _ _ X X X X ..X X X X X X A X X X ( ( X * * * * > & & @ u u u @ @ @ u u u u u u ",
"u u u u u u u 6 u u U Y Y Y c r e u u L c L 7 d 7 X X X X X ..A A . . . A A . . ( ( X X X * > > > > u u u u u u u u u u u u u u ",
"u u u u u 6 6 8 u u Y Y Y Y r p c v L v L v R R Y 7 . . . . . A A . . A A . . ( ( X X X X X > 6 > > u u u u u u u u u u u u u u ",
"u u u u 6 3 1 8 8 u u u u y x u L Y L r c T L E Y 7 . . . . . A A . . A . . . ( . . > > > > 6 6 u 6 u u u u u u u u u u u u u u ",
"u u u u 6 1 1 1 8 w 8 u l u x u p T L L i L L L 6 > > . . . A A . . . A . . . . . . . 6 K u 7 u u 6 6 6 6 6 u u u u u u u u u u ",
"u u u u u , 6 1 1 y k z z u u u u J J J L u z k 7 u K . . . . . . . . . . . . . . . u u u u u u u u u u u 6 6 6 6 u u u u u u u ",
"u u u u u u u & u z u 8 8 u u u u u t z 4 7 7 7 u 6 u u . . . . . . . . . . . . u u u u u u u u u u u u u u u u 6 u u u u u u u ",
"u u u u u u $ 1 k r z k 8 8 u u 8 u u u 7 Y Y Y 7 6 u u . . u u u u u u u u y . u u u u u u u u 7 7 7 u u u u u 6 u u u u u u u ",
"u u u u u u $ 1 1 l z y 1 1 1 1 8 8 u u 7 Y Y Y c 7 2 . . . u u u u u u X.u u u u u u u i u u 7 E E E 6 u u u u 6 6 6 6 6 6 u u ",
"u u u u u u @ 1 1 1 1 1 4 3 3 1 1 1 q w 7 Y Y Y p r r 7 u u u u u u u X.X.u u u u u u 7 7 0 u 7 E E E 7 u 7 7 u 6 u u u u u u u ",
"u u u u u u u @ 6 + 1 4 4 4 4 $ 1 w 7 7 Y Y c x r r r < u u u u u u u u u X.p u u u 7 T E E 7 U R E U U 7 x x 6 6 u u u u u u u ",
"u u u u u u u u 6 u + 4 4 4 # u + 7 Y Y Y Y c x c p r r 6 6 6 p u u u u u u X.u u p 7 E E E U U U L U U x x z z 6 6 u u u u u u ",
"u u u u u u u 6 6 6 u + + # u y p 7 Y Y Y L x r x p Y Y e r r 6 u u u u u u u 7 7 7 U U U U U U U U U U c z z z 7 u u u u u u u ",
"u u u u u u 6 6 6 6 u u u u 7 7 7 v c c Y Y e r x Y Y Y Y r r 6 u u u u u u 7 E E E E T T p U E E E U U U x x 0 8 2 6 6 u u u u ",
"u u u u u u 6 u u 6 < u u 7 Y T Y c c c c c x x r Y Y Y Y e e 8 6 6 u u u u 7 T E E E T T u p E E E E U U u 0 0 8 t r r 2 u u u ",
"u u u u u u 6 u u u 6 u u 7 T T T Y c y Y Y Y Y p r e e r r 8 8 1 1 6 u u u u 7 E E T U p p u p E E E U p z u u 8 y y t 6 u u u ",
"u u u u u u 6 u u u u u u u 2 U T T J i L L R L L w k k 8 8 8 1 3 3 < u u u u u 7 U T t t T T p c E E p p p c L c 0 r 6 u u u u ",
"u u u u u 6 6 u u u u u u u 7 i k u J i J L L L k k z k y z 1 1 , < u u u u 7 7 U U U t U T T T p p p p x R E R L y 6 u u u u u ",
"u u u u u 6 6 u u u u u u 6 t u y y 4 u k k r r e e 9 8 y l z & u u u u u 7 Y T T E U U U T T T i i i p z R R R u r y 6 < u u u ",
"u u u u 6 6 6 u u u u u u 6 u u u 4 4 u k z 9 r e 9 9 y z l y 1 $ u u u u 6 R R E E U U E E L c i i i u u R T z r y r y y < u u ",
"u 2 6 6 6 u 6 u u u u u u 6 4 4 4 4 4 u u 8 8 1 1 1 1 y z r 1 1 @ u u u u 6 E E R u y E E E U U U i u u R U c U c y y r y 3 , y ",
"6 6 u u u u 6 u u u u u u u < < 6 4 w w q 1 1 1 4 5 4 1 1 1 1 1 # u u u u u 6 p v u u E E r L U U U u R R L L c c y r r 3 3 < u ",
"6 u u u u u 6 6 u u u u u u u u u , w q q w 1 @ 4 5 4 4 1 + + + u u u u u 6 p v z R R R r r R R R U L U L c R Y c y 4 8 3 , u u ",
"6 u u u u u u 6 u u u u u u u u u u , w w w , u @ 5 4 4 + u u u u u u u 6 e x x x R R R e e R R R y L c y T T R r y 3 q , u u u ",
"u u u u u u u 6 u u X.X.u u u u u u u , , @ u u u @ + @ u u u u u u u u 6 r r r r R R y e e T R u y y y y Y U y y r 3 3 1 , u u ",
"u u u u u u u , u u X.u u u u u u u u u u u u u u u u u u u u u u u u u , u y e w q y y y y y y 9 y y y y 4 4 r r 4 3 3 3 1 , u ",
"u u u u u u u u X.u X.X.u X.u u u u u u u u u u u u 6 u u u 6 u u u u u , z z e w y y y y y y y 5 5 y r y 1 2 3 3 3 5 5 q 4 , u ",
"u u u u u u u u X.u X.X.X.X.u u u u u u u u u u u u 6 u 6 6 6 u u u u u u , , 5 q v v v q r r q 5 5 y r 2 2 2 4 3 3 5 5 4 , u u ",
"u u u u u u u u X.X.u u X.u u u u u u u u u u u u 6 6 6 6 u u u u u u u u u u , v v v v 5 8 8 4 4 3 8 2 2 2 w w 3 3 4 4 , u u u ",
"u u u u u u u u u X.X.X.X.u u u u u u u u u 6 6 , 6 6 6 6 6 u u u u u u u u u & c c v & 5 5 5 4 4 4 # 3 3 w w w # $ # , u u u u ",
"u u u u u u u u u u u u u u u u u u u u 6 6 6 6 u u u u u u u u u u u u u u u u , $ $ u @ 5 4 3 + # y # 3 w w @ u u u u u u u u ",
"u u u u u u u u u u u u u u u u u u 6 6 6 u u u u u u u u u u u u u u u u u u u u u u u u @ + + u u u u o + # u u u u u u u u u "
};
