/* XPM */
static char *result[] = {
/* columns rows colors chars-per-pixel */
"64 64 14 1 ",
"  c #686F16",
". c #72751B",
"X c #787B21",
"o c #605C48",
"O c #64604B",
"+ c #807F72",
"@ c #7F8124",
"# c #88867D",
"$ c #89877F",
"% c #5B6EE1",
"& c #5FCDE4",
"* c #8D8B83",
"= c #B2B2A8",
"- c None",
/* pixels */
"................................OOOO******oo=%%%&&&%%%%%&%%%&&&%",
"...............................O******$$$$$**o%%%%%%%%%%%%%%%%%%",
"...............................#++++++++++++*o%%%%%%%%%&%%%%%%%%",
"......................@........#++++++++++++*o%%%%%%%%%%%%%%%%%%",
".....................XX..@XX...#++++++++++++*o&&&%%%%%%%%%%%%%%%",
"..................@..X .X@@....#++++++++++++*o%%%%%%&%%%%%%%%&%%",
"...................@X .XX@ ....#++++++++++++*o%%%%%%%%%%%%%%%%%%",
".................. XX..XX X@...#++++++++++++*o&%%%%%&%%%%%&&&&%%",
"................... X..X XX ...#++++++++++++*o%%%%%%%%%%%%%%%%%%",
".................... ..  X ....#++++++++++++*o%%&%%%%%%%%%%%%%%%",
"...............................#++++++++++++*o%%%%%%%%%%%%%%%%%%",
"...............................#++++++++++++*o&&&&%%%%%%%%&&%%%%",
"...............................#++++++++++++*o%%%%%%%%%%%%%%%%%%",
"...............................#++++++++++++*o&&&&&%%%%%%%%&&%%%",
"...............................o++++++++++++*o%%%%%%%%%%%%%%%%%%",
"...............................o#######o***ooo&&%%%%%&&&%%%&%%%%",
"...............................#oooooooooooooo%%%&%%%%%%&%%%%%%%",
"...............................#******$$$$$**o%%%%%%%%%%%%%%%%%&",
"...............................#++++++++++++*o%%%%%%%%%%%%%%%%%%",
"...............................#++++++++++++*o%%%%%%%%%%%%%%%%%%",
"...............................#++++++++++++*o&&&%%%%%%%%&&&%%%%",
"...............................#++++++++++++*o%%%%%%%%%%%%%%%%%%",
"...............................#++++++++++++*o%%%%%%%%%%%%%%%%%%",
"................................++++++++++++*o&&%%%%%%%%%%%%%%%%",
"...............................#++++++++++++*o%%%%%%%%%%%&&&&&%%",
"...............................#++++++++++++*o%%%%%%%%%%%%%%%%%%",
"...............................#++++++++++++*oo%%%%%%%%%%%%%%%%%",
"...............................#++++++++++++**o&&%%%%%&&&%%%%%%%",
"...............................#++++++++++++**o%%%%%%%%%%%%%%%%%",
"...............................###############o%%%%%%%%%%%%%%%%%",
"................................ooooooooooooooooOooooooooooooooo",
"....@..........................******************##########++#+-",
"...XX..@XX.....................*++++++++++++++++#+##++#########+",
"@..X .X@@......................**+++++++++++++++###++++++++++#++",
".@X .XX@ ......................*++++++++++++++++#++++++++++++#++",
" XX..XX X@.....................*++++++++++++++++#++++++++++++#++",
". X..X XX .....................*+++++++++++++++##++++++++++++#++",
".. ..  X ......................*+++++++++++++++##++++++++++++#++",
"...............................*+++++++++++++++##+++++++#++++#++",
"...............................*++++++++++++++++#++++++++++++#++",
"................................++++++++++++++++#++++++++++++#++",
"...............................*##++++++++++++++#++++++++++++#++",
"...............................oo####+++#########++++++++++++#++",
".................................ooo##+##ooooooooooo#########*##",
"....................................o###ooo........ooooooooooooo",
"....................................ooXX..@XX...................",
"...................................@..X .X@@....................",
"....................................@X .XX@ ....................",
"................................... XX..XX X@...................",
".................................... X..X XX ...................",
"..................................... ..  X ....................",
"................................................................",
"................................................................",
"................................................................",
"................................................................",
"................................................................",
"................................................................",
"................................................................",
"................................................................",
"................................................................",
"................................................................",
"................................................................",
"................................................................",
"................................................................"
};
