/* XPM */
static char *result[] = {
/* columns rows colors chars-per-pixel */
"64 64 107 2 ",
"   c #4F3210",
".  c #544F13",
"X  c #594E19",
"o  c #535513",
"O  c #5B5415",
"+  c #565914",
"@  c #5B5C14",
"#  c #57551A",
"$  c #5B541B",
"%  c #5D5C18",
"&  c #625D16",
"*  c #61561C",
"=  c #645D1A",
"-  c #695E1B",
";  c #5E6115",
":  c #5D6118",
">  c #636416",
",  c #6A6616",
"<  c #666816",
"1  c #6A6B17",
"2  c #656419",
"3  c #6A651B",
"4  c #666819",
"5  c #6C6C1A",
"6  c #706B17",
"7  c #71651F",
"8  c #726D1D",
"9  c #6E7017",
"0  c #6F711A",
"q  c #72741B",
"w  c #79751F",
"e  c #76791E",
"r  c #79791F",
"t  c #5C4F22",
"y  c #5A4F2B",
"u  c #5D5424",
"i  c #5F5926",
"p  c #5D542A",
"a  c #575136",
"s  c #5C5333",
"d  c #57533A",
"f  c #5A543A",
"g  c #645726",
"h  c #635C23",
"j  c #685D25",
"k  c #62572E",
"l  c #645B2C",
"z  c #6A5E2B",
"x  c #605433",
"c  c #655B33",
"v  c #695E34",
"b  c #665B3F",
"n  c #656623",
"m  c #6A6323",
"M  c #6E6B22",
"N  c #65632A",
"B  c #6B6429",
"V  c #736522",
"C  c #756D22",
"Z  c #786E24",
"A  c #757321",
"S  c #7A7523",
"D  c #7C7B23",
"F  c #747129",
"G  c #7D7529",
"H  c #7E7B2A",
"J  c #666336",
"K  c #6A6233",
"L  c #6F6837",
"P  c #5D5944",
"I  c #615B43",
"U  c #645D4C",
"Y  c #6E6546",
"T  c #64604F",
"R  c #6B624B",
"E  c #736948",
"W  c #656253",
"Q  c #6C6250",
"!  c #69665B",
"~  c #6D6A5F",
"^  c #726751",
"/  c #766D55",
"(  c #766E5C",
")  c #7A715E",
"_  c #6E6B60",
"`  c #736F64",
"'  c #757063",
"]  c #7C7462",
"[  c #7E7866",
"{  c #7B756A",
"}  c #817E25",
"|  c #807628",
" . c #827E2A",
".. c #857F30",
"X. c #817B6C",
"o. c #817C72",
"O. c #848226",
"+. c #85822B",
"@. c #89852D",
"#. c #868230",
"$. c #8A8531",
"%. c #8E8831",
"&. c #928C37",
"*. c #858178",
"=. c #89867E",
"-. c #8B8780",
";. c #8D8A83",
/* pixels */
"q q q q q q q q q q q q q C D 8 A +.S S C q q q q q q q q q q q q q q q q q q q C Z    .@.+.+.%.+.  8 8 9 q q q q q q q q q q O.",
"q q q q q q q q q q q 9 q q @...D D  .@.      q q q q q q 8 6 q q   C 8 q q q 7   @.} +.%.@.O.%.O.} |     8 q q q q q q q q q 9 ",
"q q q q e q q q q q 9 0 C   +.@.@.O.%.@.w w 8 8 q q q q q w | 8 8 @.S Z C q q 8  .%.+.+.@.%.%.%.@.O.O.}     8 q q q q q q q q q ",
"q q q q q q q q q q . } @.} +.%.@.O.@.O.S w w   5 q q q 8 w    .} S  .@.| 3 S    .@.@.r } &. .+.O.O.O.w q r   8 q q q q q q q q ",
"q q q q q q q q q 8    .@.+.+.@.%.%.%.@.O.+.O.r q   8 w Z 8  .%.+.+.%.O.w 8   } 8 } D q } @.D q } O.O.} r O.} 8 q q q q q q q q ",
"q q q q q q q q q G .. .%.@.w | &.+.+.@.O.O.r q w w   ..    +.%.@.O.%.@.| w w 8 8 w 5 1 q r D D O.O.@.%.} q   7   9 q q q q e q ",
"q q q q q q q q 7   +.q O.r q } O.S q r O.O.} r } S 7  .%.@. .@.&.@.&.O.+.+.} w w   , 1 q } O.O.O.r } +.w q 8 2   1 9 9 q q q q ",
"q q q q q q q 9   5 q r r 5 , q r O.D @.O.%.%.} 8   .. .@.@.w | &.+.O.@.O.O.q r S 8 >   q } @.@.e O.O.r q w w < 4     9 9 q q q ",
"q q q q 8   8    .q r } q > 5 e } O.O.} r }  .S 8   @.q O.D 9 } @.D q D O.O.O.r } } 3 > > 8 r @. .w } r 5 , 3 2 4 1     4 q q q ",
"q q q q   ..C C  .8 0 r > > < q } +.@.r } O.q V V 3 q e r 5 1 q r r D O.O.@.%.} w 7 ,   7 } q w w 8 w q 8 5 & @ < : < 0 5 5 q q ",
"q q 8 5 C #...S 5 < q 5 @ > < & 6 r %. .8     G  .q e } q > 5 r O.O.@.D D } O.r q 3 = 5 3   , = V S r q r r > > 0 1 9 q   3 q q ",
"q 0     G $. .A > 4 S 0 ; 5 5 q } w S 8 Z ..Z C  .q 0 r > > 1 8 } O.@.e O.O.w q r r , 4 3   3 + z C r r D r 6 q e 0 r e 1 q q q ",
"  8 +.+. . .8 q r q q 5 > > 5 q 5 4 = m   #.+.S 5 4 8 5 @ > < & 6 r @. .w } r 5 3 8 > 4 3 A 8   c , q D } O.r } +.q r 8   q q q ",
"q 1 5 D D S S } @.r q 4 > < > @ @ 2    .G %. .q > 4 S q ; 4 5 q O.r S S 8 r q 5 , & @ < > < 0 3 j q D } } r D +.S > 5 r C 7 2 , ",
"5 3 q +.$.$. .} } D  .D < < > & ;    .+. . .8 q r q q 1 > > 5 q 5 1 ; Q } S w r r < @ 5 < 0 q   - q r  .S S O.A : @ 1 q w & , , ",
"q 3 A $. . .%.}  .q A 5 > > < < @ 2 5 S D S S O.+.S q 1 > 1 > @ @ @ R R 8 q D } r 6 q r q r r   } q 6 w q A O.q < ! i $ < > > > ",
"q 2 5 S 5 S $.+.+.q > > > > ; @ @ 4 q  .$.$.+.H +.D O.D 4 4 > & ; ; Q R 3 q r } } S H +.r r w 8 } D 6 r r q q 2 > # u . + @ ; ; ",
"8 & < 4 > q A e O.S 8 1 , , @   < 3 A $. .+.$.} } 8 q 8 2 > < 4 ; + Q B q r O.O.r D O.S @ 1 w C C   7 } D r 5 c u ! u 3 @ + @ ; ",
"q 5 Q & & 3 = 5 r r r 5 j =   > , = 8 A 0 A $.+.@.w > > > > @ @ + ; m V q w O.w S O.q @ @ 1 S w =     1 V C 5 ! s s + 5 > < > ; ",
"5 3 - & Q @ @ q D r S 5 u = @ ; > & < 2 > q G q } r 5 1 , , R @ < q } } q 9 q w S O.A < @ i @ > > > >   q 7 @ o u g @ < 1 9 ; @ ",
"8 A 5 < Q > 4 e w 3 2 ; : C 4 4 r 3 & & ; 4 = 5 e r e 3 j & @ > 5 q D O.r 6 r r q A 2 > # ! Q + @ > ; < q & o . i 0 5 1 9 1 + > ",
"5 +.D 4 @ < 4 q 5 @ o   4 5 0 q 8 3 3 > ; @ @ 8 D S r q Q h ; : > 1 r O.r } O.r e 5 x ! p Q 3 @ + @ @ < q 3 4 j N 0 0 0 e q , q ",
"S H A : < 1 - 3 3 + @ 0 5 4 5 3 8 A 1 < @ < 1 r q 3 > ; 2 M 4 > r 5 } O.D O.q H } q ! R s @ 0 > > > ; <   3 3 0 > 0 0 1 A 5 < q ",
"O.H 0 4 q 1 u c + o + > 0 q A 3 5 +.H > @ < 5 5 5 % + > < 5 q q r r O.O.r q 9 q V @ ! Q i + 4 1 1 > @ 1 3 . p n 0 O.H A S 8 5 S ",
"#.+.H H H q 2 c #   o : 4 A F G G H e ; < 1 = 3 4 + % q 0 > 0 5 r O.D S ! q , , @ o . h 0 5 1 0 1 @ ; H S @ B n 0 H 7 q q H A S ",
"#.H H +.S q 5 K 2   @ 4 > H C  . .H 0 < q 5 u R @ o o > 0 q q q  .@.D ! ! @ + o @ 4 h N 5 0 0 A q 4 q G = 4 q 5 5 S q < 4 5 > > ",
"7 5 q 2 2 3 5 5 5 Q 5 q 5 5 4 Z #.+.D  .H q 2 Q # + o ; 1 A H A D q j ! ; + + o + 5 0 2 0 0 1 q 5 3 q V 3   0 S 0 q : @ @ < < O ",
"& < & * 4 A q q D 0 A D 8 4 V ..#. .H ..S q 5 J 2 > @ 4 < H H H 8 ! ! ! ! ! ! o o p n 0  .G A D 5 0 S H C 8 8 +.q ; + o o @ > + ",
"& ; @ 1 H +.H H #.S S A q 5 F  .5 3 w * & 1 5 5 0 4 5 q 3 0 5 F F o u ! ! + o + @ N n 0 S 8 q q H A A A 7 A S D < > > @ o o @ + ",
"5 > @ : A D D +.H Q Q @ 5 4 = - & < & & 4 r q e D 0 A D q 4 1 5 q > X h + + + ; 3 q 5 0 r 8 1 < 5 < > < 7 S V } r 1 , , + o + + ",
"q > + + ; 1 A  .B Q O . @ Q = 2 % @ @ 1 D +.H H #.G S A q q 4 > < 4 > 8 q + ; 1 5 0 D 5 q > + ; < < O O q 8 C  . . .5 ! > 1 + @ ",
"> o + > > 4 1 4 j s + @ o # Q Q 3 > ; ; A G S +. .5 , @ 4 5 2 ; < < 4 D D > 8 D 8 q +.q > o o o @ > + > w 2 7 S q r ! 1 q q ; e ",
"5 4 > q q 3 S H A z $ + o # t Q 0 > + o : 1 A  .B * o . @ % = 4 > > > 0 S q S O.} D D 4 > > @ o + + + ; < > & 8 q 5 1 1 5 5 9 } ",
"8 q q O. .r O.O.7 k g o o g * < > # + 2 > < , ! j p + @ o # s + o + > H O.} H D  .} } S 4 , , O o o + ; > & 2 6 q r q 1 6 r } q ",
"} D D +.D D O. .q z s % 3 3 q A 0 4 > q A , D H ! ! O O + # u o + @ 1 q O.+.A e D } } ..+.8 & > 1 + ; < > = q 9 , q 5 , , 8 D r ",
" .D +. .q  .+.} +.S j C S 3 G +.A q q  .+.r H O.! ! g o o p = + + ; 1 e H S 5 0 q +.| q q 4 1 q q ; S D < & & & O & 1 8 @ o > & ",
" .S } ! ! > M O. .S S  .8 Z  .+.D } D O.D H O.O.q ! ! + , = < @ o > 5 r q 5 q q 1 q q 8 9 1 1 5 1 q D r 2 & o o o > q q > + & & ",
"+. .S   ! ! Q H 2 1 } D 3 | S O. .S     q O.+.H +.S z C D q < + ; 9 5 > @ 4 w q > 1 5 q r q 1 8 D D q S | X o ! @ 5 1 @ @ + & 5 ",
"A Z } 8 > @ = Q & > 5 1 1 3 7 D } S }   4 : 5 }  .D S  .S q 5 @ < ; > + + > 5 5 5 q q 2 w 9 4 , q S r - - ! ! ! h 3 8 + @ @ & q ",
"& = 5 3 &   = R 1 4 q > 3 D 3 S +. .S 8 % + C   3 4 } S 5 q q q q ; @ ; 1 < & q , , & O & 5 5 @ + & > O . ! + o 2         & 8 q ",
"    <   > & 5 = q r S q 3 3 < 5 A Z  .8 > @ & & @ > 9 1 5 q D  .q > + > 3 u u 4 2 o . o > 8 q > + & ! ! o o @   6 q q q q q q q ",
"5 3 q q q q 0   } 7 S ! ! ! * * & = 5 & & > O &   1 9 > , D  . .S < + + X a ! . . o o + 5 4 @ + @ t * 4       , q q q q q q q q ",
"q q q q q q q 5 3 3 & > + ! ! X O & & * y ! ! &     S C 3 } - - 8 O + O p ! . . o + o g 2 5 @ @ @ ! 8 q q   8 q q q q q q q q q ",
"q q q q q q q q q     @   $ ! y O = q h ! ! > - G V V     g ! . O & & O y ! O o o o o y b * 5 h y y 0 e e q q q q q q q q e q q ",
"q q e q q q q q q 9 1 5   % a a 3 q 3 ! ! 3 7 V 7 @.S - * y ! ! @ O q - a ! Q o o @ & g T I k f P i q q q q 8 V 7 q q q q q q q ",
"q q q q q q q q q q q q 5   s P g q g ! y 3 | @.O.O.} q 8 * f ! O , 0 h d $ 2 4 < O 3 j W ! W W Q Q q 0 7 8 8 @.S 3 5 q q q q q ",
"q q q q q q q q q q q q q q l T I Q Q I Z  .@.} O.%.O.D 5 *   ! Q q 5 s a 3 Q q q q q 5 R Q Q ! U 5 0 5 | @.} O.} w q 3 q q q q ",
"q q q q q q q q q q q q q q m W ! W W I V @.O.r } %.@.S 8 3 3 x ! ! h d s R q q q q q 1 R ' Q ~ v 7 Z ..@.} @.@.O.D 5 > < 9 q q ",
"q q q q q q q q q q q q q e 5 R _ Q ! b 7 } D O.O.} r r +.A h U I ! I P W Y q q q q q 9 Y R [ ' B q V @.O.D D %.@.r 8 3 3 3 q q ",
"q q q q q q q q q q q q q q 5 R ` ` ~ z ....O.@.} | } @.+.q 4 l T W W I W q q e e e q q L *.W ' M 5 7 } D O.O.D S D @.A 3 5 q q ",
"q q q q q q 8 V 8 q q q q q q Y { { ` z | D  . .O.} @.+.} q 4 % I ~ W R 9 q q q e } e q L =.=.) 3 7 @.+.O.$.O.r } @.O.q 4 = 0 q ",
"q q q q 8 V 8 @.S 3 3 q q q q L o.*.( - q +. .A @.} D } +.A % p R ' _ N q q q q 9 e q e L Q =.( M M G D O.H O.O.@.+.H q 5 % 2 q ",
"q q 8 5 | @.} O.O.S C 3 q q q L =.=.^ 3 5 M q 0 G 5 q 5 M 4 + # R { ' W W q q q q q 9 q L =.;.[ 3 3 A +.+.0 #.} H H #.0 % % 5 q ",
"9 q Z  .@.} @.@.O.D 7 - > 8 q L =.=./ = 2 5 F 1 4 ; 3 @ + + @ % ( *.] 5 q q q q q q q q J o.;.[ m 3 3 A A M D M 0 0 M 2 @ # 3 q ",
"q q q +.O.r } %.O.r 8 4 3 3 q L Q Q Q 3 n F M : % # % @ % % O g =.=.) Q q q q q q q q 9 / =.;.X.B - 2 5 q 4 4 : 1 @ o % @ @ 3 q ",
"q 9 9 O.w O.O.D D D @.q - 5 q K o.;.[ M 5 2 4 : o = = X * 5 8 L =.=.( Q q q q q q q q 9 [ ;.=.{ c 8 - F M : % # # @ % O O < q q ",
"q m #.@.O.@.O.r } @.+.0 3 2 2 ( =.W X.M q q q 0 9 q q 9 0 q q L -.Q Q M q q q q q q q 9 E =.=.[ B q 9 < < @ + < 2 O & 5 5 q q q ",
"q 5 G S +.} O.O.@.+.O.A 0 % = ) ;.=.X.J q q q q q q q q q q q J o.;.[ Q q q q q q q q q e / ' E 0 q q q q 9 9 e q 5 q q q q q q ",
"0 3 A +.+.0 $.H D H +.0 % * 5 / =.=.[ J q e q q q q q q q q 0 ( =.;.[ M q q q q q q 9 e e 9 4 0 q q q q q q e e q q q q q q q q ",
"5 3 5 F A 5 S 5 0 0 M 4 + o 3 M / [ E e e q q q q q q q q e 9 ' ;.-.{ ! q q q q e 9 e q q q e q q q q q q q e e q q q q q q q q ",
"0 3 - 5 q 5 4 : 4 @ o + % # 3 q 9 9 9 e e q q q q q q q q e 0 / ;.=.R L q q q q q q q q q q q q q q q q q e e q q q q q q q q q ",
"q 0 - F M * % # O @ = O + 3 q q q 9 9 q q q q q q q e q e q e F / R E 9 q q q q q q q q q q q q q q q e q 9 9 q q q q q q q q q ",
"q q 5 3 3 @ O & 2 X & 5 9 q q q e q e 9 q q q q q q q e q 0 e e 9 5 9 q q q q q q q q q q q q q q q q q q q q q q q q q q q q q ",
"q q q q q 0 8 q q 8 q q q q q q 9 q q q e q q q q q q e q q e q e e q q q q q q q q q q q q q q q q q q q q q q q q q q e 9 e q "
};
