/* XPM */
static char *result[] = {
/* columns rows colors chars-per-pixel */
"64 64 83 1 ",
"  c #72751B",
". c #71741B",
"X c #6F731A",
"o c #767A20",
"O c #71751C",
"+ c #73771E",
"@ c #777B21",
"# c #76791E",
"$ c #7B7E23",
"% c #73761C",
"& c #74771D",
"* c #777A20",
"= c #6F741B",
"- c #70731A",
"; c #6F741C",
": c #70741C",
"> c #75771D",
", c #70741A",
"< c #75781D",
"1 c #76791F",
"2 c #71761D",
"3 c #6C721A",
"4 c #71751B",
"5 c #70751D",
"6 c #6B7019",
"7 c #75781E",
"8 c #73761B",
"9 c #7B7E22",
"0 c #777A1F",
"q c #74781F",
"w c #787B21",
"e c #6E731A",
"r c #6F731B",
"t c #74771C",
"y c #75781F",
"u c #74781D",
"i c #797C22",
"p c #73771D",
"a c #767920",
"s c #72761E",
"d c #6E731B",
"f c #70741B",
"g c #72761D",
"h c #71761E",
"j c #70741D",
"k c #6D721A",
"l c #6D711A",
"z c #72761C",
"x c #75791F",
"c c #787B20",
"v c #7A7D22",
"b c #777B20",
"n c #797C21",
"m c #71751D",
"M c #6C711A",
"N c #757920",
"B c #74771E",
"V c #6E721A",
"C c #76781E",
"Z c #7A7C21",
"A c #71761C",
"S c #70751C",
"D c #73781E",
"F c #71741A",
"G c #74781E",
"H c #6D721B",
"J c #72751C",
"K c #6E7319",
"L c #73751B",
"P c #74761C",
"I c #75791E",
"U c #7A7D21",
"Y c #77791F",
"T c #70751B",
"R c #6F741A",
"E c #7B7D22",
"W c #6F7319",
"Q c #72771D",
"! c #77791E",
"~ c #787B1F",
"^ c #797C20",
"/ c #73771C",
"( c white",
/* pixels */
"       .XoO                +@#$%                  &*%           ",
"         =.                -;;:.               %>%*:            ",
"                            ,XX                <$1234           ",
"                                                =56-            ",
"                                                .X              ",
"                                                         %  78  ",
"                                                        *9%*0   ",
"                                                        Oq1w&   ",
"                                                         e:r,   ",
"                                                          ..    ",
"                                                                ",
"                                                                ",
"                                                                ",
"                                      %                         ",
"                                     %9< %<                     ",
"                 &% 0%              %ty*7ou                     ",
"                 wip2&&%            &*+;a;,                     ",
"                 ps*d12f             ry4gX                      ",
"                 2hj%rk.             .4      %% 71              ",
"                 -Ol.4                       zx&cp.             ",
"                                             .kogf              ",
"                                              X2.               ",
"                                                                ",
"                                                          %7%   ",
"                                                         %*v&   ",
"       %0%                                                5r    ",
"        *b&%n7                                           4X4    ",
"        -dO0w                                                   ",
"         ,4mr                                                   ",
"           X.                                                   ",
"                                                                ",
"             78                                                 ",
"             vc                                                 ",
"             OoO7*t                                     7& &0   ",
"             ,M+N&%                                     1v%*x   ",
"&7             Bd.                                      fd&2V   ",
"*&                                                       .Xk    ",
"3.                   t            7<%&%                         ",
"                    &0          CtBzZZ%                         ",
"                    *z4         zcf7but                         ",
"                    ks1         ,A%zSD4                         ",
"                    4::          ,4Xff                          ",
"        &7  %&       F.                                         ",
"       %1iGBot                                                  ",
"       7$sMNH4              8                                   ",
"       .Sy.mX              &9C                                  ",
"        ,J                  py                                  ",
"                            ,K                                  ",
"                                                                ",
"                                                                ",
"                                                                ",
"      L%                                                        ",
"      4c#                               P&                      ",
"      4Iw&7&                           %Z&                      ",
"       KGwU       Y8tt                 p7.                      ",
"       4KTR    %t&p&E0                 ,W                       ",
"         F4     07,1+&                                  %08&#   ",
"                %4%AQp                                %<&O&n0   ",
"                  4KJ,                                ,A1f*Qu   ",
"             !U&                                       XRzTpA   ",
"  &%          px            ~< <7                  P^7   4X F   ",
"  zG          ,K          JY~xpc/                   <*%         ",
"  ,,                       0wRzgX                   ,e.         ",
"      &~  &&               Rg&%,                                "
};
