/* XPM */
static char *result[] = {
/* columns rows colors chars-per-pixel */
"64 64 13 1 ",
"  c #686F16",
". c #72751B",
"X c #787B21",
"o c #605C48",
"O c #64604B",
"+ c #807F72",
"@ c #7F8124",
"# c #88867D",
"$ c #89877F",
"% c #5B6EE1",
"& c #5FCDE4",
"* c #8D8B83",
"= c None",
/* pixels */
"%&&&%%%&%%%%%&&&%%%ooo******++OO................................",
"%%%%%%%%%%%%%%%%%%o**$$$$$******O........@......................",
"%%%%%%%%&%%%%%%%%%o*++++++++++++#...XX@..XX.....................",
"%%%%%%%%%%%%%%%%%%o*++++++++++++#....@@X. X..@..................",
"%%%%%%%%%%%%%%%&&&o*++++++++++++#.... @XX. X@...................",
"%%&%%%%%%%%&%%%%%%o*++++###+++++#...@X XX..XX ..................",
"%%%%%%%%%%%%%%%%%%o*++++#+#++++##... XX X..X ...................",
"%%&&&&%%%%%&%%%%%&o*++++++###+###.... X  .. ....................",
"%%%%%%%%%%%%%%%%%%o*++++++++###+#...............................",
"%%%%%%%%%%%%%%%&%%o*++++++++++++#...............................",
"%%%%%%%%%%%%%%%%%%o*++++#+++++++#...............................",
"%%%%&&%%%%%%%%&&&&o*++++#++++++##...............................",
"%%%%%%%%%%%%%%%%%%o*+++##++++++##...............................",
"%%%&&%%%%%%%%&&&&&o*++##+++++++##...............................",
"%%%%%%%%%%%%%%%%%%o*############o...............................",
"%%%%&%%%&&&%%%%%&&ooo***o*oo*o*.................................",
"%%%%%%%&%%%%%%&%%%o*o*oooo*OOOOoo...............................",
"&%%%%%%%%%%%%%%%%%o**$$$$$******O...............................",
"%%%%%%%%%%%%%%%%%%o*++++++++++++#...............................",
"%%%%%%%%%%%%%%%%%%o*++++++++++++#...............................",
"%%%%&&&%%%%%%%%&&&o*++++++++++++#...............................",
"%%%%%%%%%%%%%%%%%%o*++++++++++++#...............................",
"%%%%%%%%%%%%%%%%%%o*++++++++++++#...............................",
"%%%%%%%%%%%%%%%%&&o*++++++++++++#...............................",
"%%&&&&&%%%%%%%%%%%o*++++++++++++#...............................",
"%%%%%%%%%%%%%%%%%%o*++++++++++++#...............................",
"%%%%%%%%%%%%%%%%%oo*++++++++++++#...............................",
"%%%%%%%&&&%%%%%&&o**++++++++#+++#...............................",
"%%%%%%%%%%%%%%%%%o**++++#+++++++#...............................",
"%%%%%%%%%%%%%%%%%o*##############...............................",
"ooooooooo#oooooOooooo*ooo*ooo+o#................................",
"o+#++++++++++++******************...............................",
"=+#++++++++++++#++++++++++++++++*...............................",
"=+#+++++++++#++#+++++++++++++++**..........................@....",
"=+#++++++++++++#++++++++++++++++*.....................XX@..XX...",
"=+#+++++++++++##++++++++++++++++*......................@@X. X..@",
"=+#+++++++++++##++++++++++#+++++*...................... @XX. X@.",
"=+#++++++++++++#++++++++++++++++*.....................@X XX..XX ",
"=+#+###++++++++#++++++++++++++++*..................... XX X..X .",
"=+#+#++++++++++#++++++#+++++++++#...................... X  .. ..",
"=+#++#+++++++++#++++++#++++++#+##...............................",
"=+#++##+++++++##++##############oo..............................",
"=+#++++####++######ooooooooooooo................................",
"############*#ooooo.....@.......................................",
"ooooooooooooooo....XX@..XX......................................",
"....................@@X. X..@...................................",
".................... @XX. X@....................................",
"...................@X XX..XX ...................................",
"................... XX X..X o*..................................",
".................... X  .. .*...................................",
".................*..o...........................................",
"....................*....o.+o.*.................................",
"...............................o................................",
"................................................................",
"................................................................",
"................................................................",
"................................................................",
"................................................................",
"................................................................",
"................................................................",
"................................................................",
"................................................................",
"................................................................",
"................................................................"
};
