/* XPM */
static char *result[] = {
/* columns rows colors chars-per-pixel */
"64 64 14 1 ",
"  c #686F16",
". c #72751B",
"X c #787B21",
"o c #605C48",
"O c #64604B",
"+ c #807F72",
"@ c #7F8124",
"# c #88867D",
"$ c #89877F",
"% c #5B6EE1",
"& c #5FCDE4",
"* c #8D8B83",
"= c #B2B2A8",
"- c None",
/* pixels */
"................................................................",
"................................................................",
"................................................................",
"................................................................",
"................................................................",
"................................................................",
"................................................................",
"................................................................",
"................................................................",
"................................................................",
"................................................................",
"................................................................",
"................................................................",
"........................@.......................................",
"...................XX@..XX......................................",
"....................@@X. X..@...................................",
".................... @XX. X@....................................",
"...................@X XX..XX ...................................",
"................... XX X..X .*..................................",
".................... X  .. .*...................................",
"++#++++++++**...**..............................................",
"++#++++++++++++#*...*....*.+*.*.................................",
"+##+++++++++++.#+++++++++++++++.*...............................",
"+##++++++++++++#++++++++++++++++*...............................",
"++#++++++++++++#++++++++++++++++*...............................",
"+##++++++++++++#++++++++++++++++*..........................@....",
"+###+++++++++++#++++++++++++++++*.....................XX@..XX...",
"++#++++++++++++#++++++++++++++++*......................@@X. X..@",
"++#++++++++++++#++++++++++++++++*...................... @XX. X@.",
"++#++++++++++++#++++++++++++++++*.....................@X XX..XX ",
"+##++++++++++++#+++++++++++++++**..................... XX X..X .",
"+##+++++++##+++#++++++++++++++++*...................... X  .. ..",
"-+#+#######+####*****************...............................",
"oooooooooooooooOooooo*ooo*ooo+oo................................",
"%%%%%%%%%%%%%%%%%o**++++++++++++#...............................",
"%%%%%%%%%%%%%%%%%o**++++++++++++#...............................",
"%%%%%%%&&&%%%%%&&o**++++++++++++#...............................",
"%%%%%%%%%%%%%%%%%oo*++++++++++++#...............................",
"%%%%%%%%%%%%%%%%%%o*++++++++++++#...............................",
"%%&&&&&%%%%%%%%%%%o*++++++++++++#...............................",
"%%%%%%%%%%%%%%%%&&o*++++++++++++#...............................",
"%%%%%%%%%%%%%%%%%%o*++++++++++++#...............................",
"%%%%%%%%%%%%%%%%%%o*++++++++++++#...............................",
"%%%%&&&%%%%%%%%&&&o*++++++++++++#...............................",
"%%%%%%%%%%%%%%%%%%o*++++++++++++#...............................",
"%%%%%%%%%%%%%%%%%%o*++++++++++++#...............................",
"&%%%%%%%%%%%%%%%%%o**$$$$$******O...............................",
"%%%%%%%&%%%%%%&%%%o*o*oooo*OOOO.................................",
"%%%%&%%%&&&%%%%%&&ooo***o*oo*o*.................................",
"%%%%%%%%%%%%%%%%%%o*++++++++++++o...............................",
"%%%&&%%%%%%%%&&&&&o*++++++++++++#...............................",
"%%%%%%%%%%%%%%%%%%o*++++++++++++#...............................",
"%%%%&&%%%%%%%%&&&&o*++++++++++++#...............................",
"%%%%%%%%%%%%%%%%%%o*++++++++++++#...............................",
"%%%%%%%%%%%%%%%&%%o*++++++++++++#...............................",
"%%%%%%%%%%%%%%%%%%o*++++++++++++#........@......................",
"%%&&&&%%%%%&%%%%%&o*++++++++++++#...XX@..XX.....................",
"%%%%%%%%%%%%%%%%%%o*++++++++++++#....@@X. X..@..................",
"%%&%%%%%%%%&%%%%%%o*++++++++++++#.... @XX. X@...................",
"%%%%%%%%%%%%%%%&&&o*++++++++++++#...@X XX..XX ..................",
"%%%%%%%%%%%%%%%%%%o*++++++++++++#... XX X..X ...................",
"%%%%%%%%&%%%%%%%%%o*++++++++++++#.... X  .. ....................",
"%%%%%%%%%%%%%%%%%%o**$$$$$******O...............................",
"%&&&%%%&%%%%%&&&%%%=oo******OOOO................................"
};
