/* XPM */
static char *result[] = {
/* columns rows colors chars-per-pixel */
"64 64 12 1 ",
"  c #2D4417",
". c #72751B",
"X c #0A3744",
"o c #163266",
"O c #8F563B",
"+ c #6ABE30",
"@ c #99E550",
"# c #2B4B82",
"$ c #2251A7",
"% c #4A6AA4",
"& c #4382F4",
"* c #639BFF",
/* pixels */
"................................................................",
"................................................................",
"................................................................",
"................................................................",
"................................................................",
"................................................................",
"................................................................",
"................................................................",
"................................................................",
"................................................................",
"................................................................",
"................................................................",
"................................................................",
"................................................................",
"................................................................",
"................................................................",
"................................................................",
"................................................................",
"................................................................",
"................................................................",
"................................................................",
"...  ...........................................................",
"..   ...........................................................",
".    ...........................................................",
".   ............................................................",
"   ...@@@.......................................................",
"   ..@@@@.......................................................",
"  ...+++........................................................",
"+ ..++++........................................................",
"+ ..++..........................................................",
"+ .+++.....OO.OOOO..............................................",
"+ .++..OOOOOOOOOOOOOO.OO........................................",
"+ @++..OOOOOOOOXOOOOXOOOO..OOOO.OO..............................",
"+ @++OOOOOOOOOOXOOOOOOOOOOOOOO...OOOOO..........................",
"+O@++OOOOOOOOOOOOOOOOOOOOOOOOOOOOOOOOXOO........................",
"OOOOOOOOOOOOOOOOOOOOOOOOOOOOOOOOOOOOOOOXOO......................",
"OOOOOO&&&&&&&&&&&OOOOOOOOOOOOOOOOOOOOOOOOXOO....................",
"OOO&&&&&&&&&&&&&&&&&OOOOOOOOOOOOOOOOOOOOOOOXO...................",
"OOO&&&&&&&*****&&&&&&&&&&&&&&&&&&OOOOOOOOOOOOO..................",
"&&&&&&&&****%%%%**&&&&&&&&&&&&&&&&OOOOOOOOOOXOOO................",
"&&&&&&%*****%%%%***************&&&&OOOOOOOOOOOOOO...............",
"***%%%%********%%%********%%%***&&&&OOOOOOOOOXOO................",
"***%%%*********%%%********%%%%%%*&&&&OOOOOOOOOXOO...............",
"***************************%%%%%**&&&&**OOOOOOOOOO..............",
"********#####*****************%%***&&&&&&OOOOOOOXOOO............",
"******#########*******######********&&&&&&*OOOOOOOOO............",
"###*###########################********&&&&*OOOOOOOOO...........",
"###############################*******%%&&&&*OOOOOOOOO..........",
"###############################*******%%%&&&&&OOOOOOOOO.........",
"################################**********&&&&&*OOOOOOOO........",
"#################################***********&&&&OOOOOOOO........",
"#########$$$$#####################***********&&&&OOOOOOOO.......",
"$$$$$$$$$$$$$$$$$$######$#############********&&&&&OOOOOOO......",
"$$$$$$$$$$$$$$$$$$$$$$$$$$############********%&&&&*OOOOOO......",
"$$$$$$$$$$$$$$$$$$$$$$$$$$$############*******%%*&&*OOOOOO......",
"$$$$$$$$$$$$$$$oooooo$$$$$$$############*********&&&OOOOOOOO....",
"oooooo$$ooooo$$oooooooo$$$$$#############********&&&&&OOOOOO....",
"oooooooooooooooooooooooo$$$$$$$$##########********&&&&OOOOOO....",
"$$$$oooooooooooooooooooooooo$$$$$###########********&&**OOOO....",
"$$$$$$$$$$$$oooooooooooooooooo$$$$###########*******&&*OOOO.....",
"$$$$$$$$$$$$$$oooooooooooooooo$$$$$$$########*******&&&OOOO.....",
"####$$$$$$$$$$$ooooooooooooooooo$$$$$$$######*******&&&&OOOO....",
"#####$$$$$$$$$$$$$$$$$oooooooooo$$$$$$$$#####********&&&OOOOO...",
"***####$$$$$$$$$$$$$$$oooooooooo$$$$$$$$$####******%%*&&&OOOO..."
};
