/* XPM */
static char *result[] = {
/* columns rows colors chars-per-pixel */
"64 64 11 1 ",
"  c #2D4417",
". c #72751B",
"X c #163266",
"o c #103477",
"O c #8F563B",
"+ c #6ABE30",
"@ c #2B4B82",
"# c #2251A7",
"$ c #4A6AA4",
"% c #4382F4",
"& c #639BFF",
/* pixels */
"&&&&&@@@################XXXXXXXXXXX######@@@@&&&&&$$$&%%%OOOO...",
"&&&&&&@@@##################XXXXXXXX#######@@@&&&&&$$$&&%%OOOO...",
"&&&&&&&@@@##########@@@@#####XXXXXX#++###@@@&&&&&&$$&&&%%%OOOO..",
"&&$$$$&&@@@########@@@@@######XXXXX+++##@@@&&&&&&&$$&&&%%%OOOO..",
"&&$$$$&&@@@#####@@@@@&@@@@########@+++@@@@&&&&&&&&&&&&&&%%OOO...",
"&&$$$$&&&@@@@###@@@@&&@@@@@@@@@@@@@++@@@&&&&&&&&&&&&&&&&%%OOO...",
"$$$$$$$&&&@@@@##@@&&&&&&@@@@@@   @@++&&  &&++&&&&&&&&&&%%%OO....",
"$$$$$$$&&&&&@@@@@@&&&&&&&&&&&&    &++&&  &+++&&&&&&&%%%%%OOO....",
"$$$$$$$&&&&&&@@@@@&&&&&&&&&&+++    ++&   ++++    %%%%%%%%OOO....",
"$$$$$$$&&&&&&&&&&&&&&&&&&&$$+++&   ++&   +++     %%%%%&OOOO.....",
"$$$$$$&&&&&&&&&&&&&&&&&&$$$$$+++&  ++O  O++    OOOOOOOOOOO......",
"$$$$$&&&&&&&&&&&&&&&&&$$$$$$$++++        ++  OOOOOOOOOOO........",
"$$$&&&&&&&&&&&&&&&&&$$$$$$$$  ++++       ++OO....O..............",
"&&&&&&&&&&&&&&&&&&&&$$$$$$&&   +++++    +++OO...................",
"&&&&&&&&&&&&&&&&&&&$$$$$$&&&    ++++ ++ +++OO...................",
"&&&&&&&&&&&&&&$$$$$$$$$$&&&&&     +++++  ++OO...................",
"&&&&&&&&&&&&&&$$$$$$$&&&&&&&&&&   +++    OO.....................",
"&&&&&&&&&&&&&&&&&&&&&&&&&&&&&&&O  ++++  ++......................",
"&&&&&&&&&&&&&&&&&&&&&&&&&&&&&&&+++++++++++......................",
"&&&&&&&&&&&&&&&&&&&&&&&&&&&&&&&+++++++++O.......................",
"+$&&&&&&&&&&&&&&&&&&&&&&&&&&&&&&O++++++O........................",
"+$$$$&&&&&&&&&&&&$$$&&&&&&&&&&&&OOOO OO.........................",
"$$$$$$&&&&&&&&&&&$$$&&&&&&&&&&&&OOOOO...........................",
"$$$$$$&&&&&&&$$$$$$&&&&&&&&&&%%%OO..............................",
"$$   $$&&&$$$$$$$$$&&&&&&&&&%%%%O...............................",
"&    $$$$$$$$$$$$$$&&&&&&&&&%%%OO...............................",
"    $$$$$$$$$$$$$$&&&&&&oo&%%%OOO...............................",
"   &$$$$$&&&$$$$$&&&&&&&oo&%%%OO................................",
"  &&&&&&&&&&&&&&&&&&&&&ooo&%%%OO................................",
" &&&&&&&&&&&&&&&&&&&&&oooo&%%%O.................................",
"&&&&&&&&&&&&&&&&&&&&&&ooo&%%%O..................................",
"%&&&&&&&&&&&&&&&$$&&&&&&&%%%%...................................",
"%%%%&&&&&$$$$$$$$$&&&&&&%%%%O...................................",
"%%%%%%&&&$$$$$$$$$&&&&&%%%%OO...................................",
"OO%%%%%%&&&&&&&&&&&&&&%%%%OO....................................",
"OOOO%%%%%&&&&&&&%%%%%%%%%OOO....................................",
"OOOOO&%%%%%%&%%%%%%%%%%%OOO.....................................",
"..OOOOO%%%%%%%%%%%&&&OOOO.......................................",
"....OOOOO&%%%%%&OOOOOOOO........................................",
"......OOOOOOOOOOOOOOOO..........................................",
".........O....OOO...............................................",
"................................................................",
"................................................................",
"................................................................",
"................................................................",
"................................................................",
"................................................................",
"................................................................",
"................................................................",
"................................................................",
"................................................................",
"................................................................",
"................................................................",
"................................................................",
"................................................................",
"................................................................",
"................................................................",
"................................................................",
"................................................................",
"................................................................",
"................................................................",
"................................................................",
"................................................................",
"................................................................"
};
