/* XPM */
static char *result[] = {
/* columns rows colors chars-per-pixel */
"64 64 91 1 ",
"  c #201F1B",
". c #321E15",
"X c #41271B",
"o c #522C16",
"O c #552F19",
"+ c #563516",
"@ c #583715",
"# c #553816",
"$ c #5A3B17",
"% c #58351E",
"& c #5B3D18",
"* c #533222",
"= c #543825",
"- c #523D2C",
"; c #5C3E2A",
": c #613A28",
"> c #5C4217",
", c #5E4218",
"< c #515414",
"1 c #585213",
"2 c #555916",
"3 c #595C17",
"4 c #5A5E18",
"5 c #614519",
"6 c #644A1A",
"7 c #645B17",
"8 c #655B19",
"9 c #685E1A",
"0 c #5D6018",
"q c #616418",
"w c #676A1A",
"e c #696C1A",
"r c #766916",
"t c #6E701B",
"y c #72751B",
"u c #7F731E",
"i c #77781E",
"p c #5E412D",
"a c #534A3E",
"s c #60432F",
"d c #624532",
"f c #644936",
"g c #664C39",
"h c #684E3B",
"j c #68513E",
"k c #6F6F21",
"l c #6F7021",
"z c #767522",
"x c #787722",
"c c #7A7A22",
"v c #7A7A28",
"b c #56314B",
"n c #5E5546",
"m c #605647",
"M c #605748",
"N c #635A4C",
"B c #73654E",
"V c #6B6353",
"C c #736650",
"Z c #766E5F",
"A c #786F5F",
"S c #76715E",
"D c #756F61",
"F c #7A7363",
"G c #7E7967",
"H c #7C7769",
"J c #7E7869",
"K c #80741E",
"L c #855037",
"P c #807F23",
"I c #837E6D",
"U c #847F71",
"Y c #838223",
"T c #85822C",
"R c #89862C",
"E c #8B8632",
"W c #8E8833",
"Q c #86806F",
"! c #878172",
"~ c #898474",
"^ c #8C8679",
"/ c #8E897B",
"( c #908C7E",
") c #975683",
"_ c #8F8B80",
"` c #918D81",
"' c #939087",
"] c #96948B",
"[ c #98958E",
"{ c #FF92DD",
"} c white",
/* pixels */
"yyyyyyyyyy666yyyyyyyyyyyyyyyyyyyyyyyyyyyyyyyyyyyyyyyyyyyyyyyyyyy",
"yyyyyyyyy6TTT6yyyyyyyyyyyyyyyyyyyyyyyyyyyyyyyyyyhhgfffyyyyyyyyyy",
"yyyyyyyyy6YTTi66yyyyyyyyyyyyyyyyyyyyyyyyyyyyygjj!!!!Qmfdyyyyyyyy",
"yyyyyyyyy6RTTiee6yyyyyyyyyyyyyyyyyyyyyyyyyyyfSSS!!!!!QMNpyyyyyyy",
"yyyyyy56,TTcieee6yyyyyyyyyyyyyyyyyyyyyyyyyygSSS(~~Q~Q~NMpyyyyyyy",
"yyyyyy5TTTTxiciew656yyyyyyyyyyyyyyyyyyyyyysGII(~~!~QQ~!NNpyyyyyy",
"yyyyyy5TTTTieicTTwee6yyyyyyyyyyyyyyyyyyyysIIS/^~~~~~~~~NNa>tyyyy",
"yyy666iPcTTeexTTYYwe5yyyyyyyyyyyyyyyyyyy&IAI(~/~~Q~~~~~~aaapyyyy",
"yy6TEPcPcccccwTTTTww755yyyyyyyyyyyyyyyyysBB(^^~~~~~~~~^~/an- tty",
"yy6TEEPctTTTTcewwww772<yyyyyyyyyyyyyyyyysBB(^^/~~~~~^~~~//aa  yy",
"yyy5EPTxiTTTTxwyt877222yyyyyyyyyyyyyyyypBB(/^//^//~~~~~///aa-  y",
"yyz6kzyuuuuTTwwzzkt<<&&y5yyyyyyyyyyyyyypC////^/^~//~~//^//aaap  ",
"yy5yztl3tztweew77eyz>yyy55yyyyyyyyyyyy&B'^^//^^(((((((^^^^aaaap ",
"yy5ktz33lyl7we77yyyt<>yyy5yyyyyyy1yyyypBQ/^^///((((((/^^'NMnaa- ",
"yy533333zt77<<<<tyt<<@yyy55yyyyy76yyypBIQQ'^^/^((((7,s]]NNMMaa- ",
"yyyy,,3wq0<<<332<<<<<yyyyy55yyy55ryyy5QIQQQ]]]((((6YTT<SNNnnnap ",
"yyyyyy5q0qq<$3333<+++yyyyyy55555yyyypQQJIIIQIQ[((]6YTTy66NNMMn- ",
"yyyyyyy&qqq$y@ y   yyyyyyyyy55yyyyyypQJ!IIQIII['[I6RTTcww6MMMn- ",
"yyyyyyyy$$$t3hhhh  yyyyyyyyy5yyyyyyy=J!JIIIII[IF66YTicwww5Mmnn=y",
"yyyyyyyyyygghUUUUh  yyyyyyy55yyyyyyy;VVIIIIII]H6TTTTccciee56>n*y",
"yyyyyyyytgUUUUUUU!g  yyyyyy5yyyyyyyy=VVCCIII`HI6TTTTcwccTTeee6yy",
"yyyyyyyyf/^^!!!!UJf   yyyyy5yyyyLLyyy=VVVVVV666xccTTwwiTTYTwe>yy",
"yyyyyyyfD_!^~^!!!HHf   yyyy55LLLLyyyy=VVVVC6TTPcccccccwTTTYee7>5",
"yyyyyyfSD_^^^^^!/HHGf  yyyyy5555>LLLLL=VVVV6TEETctTRTTcwwwee7722",
"yyyyyfSS`~~^~^^]JJHHd  yyyLLLL::s:;::;*VVVVV6TTEKKTTTTcetl777<<<",
"yyyyysSS`^~^^^]HHJHDs  yLLL::::*%%**O***NVVV5yytuKKcTTwwztzl<<,,",
"yyyyypVB````_]ZSOODDsLLLL:::************:**5tztk2tlteeww78ltt>yy",
"yyyyyypBVVN]]oooyy6;yLL:::*****************5ykz33zzt7ew87tyzz<&y",
"yyyyyyy$VNNy66cyyy;:LL::*********XXXX******542333ky88<<<<zez<<#t",
"yyyyyyyyONy6ewiyyy6LL::*******X)XXX)XXX*****5,52qqq<<<232<<<<<#y",
"yyyyyyyyzyy6wwexcyy66:***{**XXX{XXX{XXXXXX****:,qqqq<$3333<+##yy",
"yyyyyyyy565eecxccyyyy****XXXXXXXXXXX{XX{XX{*****,08q$y@333+yyyyy",
"yyyyyyy5yyyTTiiecyyyy6*XXXX{{XbXXbbbXXbX)X{X****:&$$yyy@@@yyyyyy",
"yyyyyyy5yyTTTTceeyyccv666XX{XXXbbb.{{...)X{XX*::::yyyyyyyyyyyyyy",
"yyyyy557yyTTTTexcvccccTTR6....))..)...{{.XXXXX:5::yyyyyyyyyyyyyy",
"yyyy>2277yyyytxyTTTtcERTT6..b...{.)))){...::::55y5yyyyyyyyyyyyyy",
"yyyy>2<<777tztcyyTTKuTTT6::...){.{{{b.{{{..,Ly6yy55555yyyyyyyyyy",
"yyyyy,,<<tzytyyyyKuuutyz5yL..)){.){)){{...yyyyyyyyyyy5555yyyyyyy",
"yyyyyyt&ltt87yyyyyyy0666y5yy............yyyyyyyyyyyyyyyy5yyyyyyy",
"yyyyyy&<zzyl78yy7yyy6TTT65yy..yyyyyyyyy.yyyyyyyi666yyyyy5yyyyyyy",
"yyyyyy><<ztz<<<<77yy6TTTx66...yyyyyy}yyyyyyyuyy6EEW6yyyy551555yy",
"yyyyyy@<<<<<223<<<0q6TTTcee6ytyyyyy}}yyyyyy666y6WWW6y66y5yyyyyyy",
"yyyyyyy#5+<3332$<q66TTiieee5yyyyyyyyy}yyyy6RWW8YWWYY6xz55yyyyyyy",
"yyyyyyyy5y+233$y$6TTTTcciiee5>6yyyyyyy}yyi6WWWYYYYYPxxzx55yyyyyy",
"yyyyyyy>55y#++yyi6TTTTxexxTTwee5yyyyyyy666YYYYYYYYYYcxxx5yyyyyyy",
"yyyyyy5555yyyy666cccTYewiTTTTwe5yyyyyy6WWWWWRiYWWWYYPcx8751>yyyy",
"yyyyyy5yy55yy6TRTvcccvxieTTTTew755yyyy6WWWWYRiyWWWWYPy987ytt>yyy",
"yyyyyy5yyy,yy6RTRTctTTTTiwweew77<<5yyyy6WWYRiiyiWWWYiiyy9etr5yyy",
"yyyyyy5yyyyyyy1YPEPKPPEPPqkk777<22>yyyii6YYrrWRycWWiiyPPP8e5yyyy",
"yyyyy55yyyyyyy6uztKKKKPPkkkzze<<>>yyyt66YYYrYRRRyciizWEEPt5yyyyy",
"yyyyy55yyyyyy5yyty3ykkeeww87zzy$yyyyy6TTWWYYYRRRKuKiyEEEttt5,yyy",
"yyyy555yyyyyy5tyy33ykz8ew88yezk<>yyyy,EERWYYWWYuKuuyyEEztetee5yy",
"y1655y5yyyyyy533333yy77<<<<yzk<<$yyyy6REWytWWWYYPKyyRPcPctete2,y",
"55yyyy5yyyyyyy>5>2qq0<<<322<<<<<#yyyyy,ccyyEEeYYPPyWWPPPcete22>y",
"5yyyyy55yyyyyyyyy>q0qq<@3423<+++yyyyy6xvxEEEeeWEWYPPcPEEPt782>yy",
"5ryyyyy5yyyyyyyyyy>qqq>y$244+yyyyyyy>exxcEEEwwEEWePPtEEPte22>yyy",
"yyyyyyy6yy}}yyyyyyy>>@yyy@@@yyyyyyyy5wwweEEtwwEEtrtttRTtee2<<>yy",
"yyyyyyy>yy}yyyyyyyyyyyyyyyyyyyyyyyyy>yzwqqtttttt8tett22tt2222<>y",
"yyyyyyyy}y}}y}yyyyyyyyyyyy5yyy5yyyyy,kkwqeteetet00tte112<20300>y",
"yyyyyyyy}y}}}}yyyyyyyyyyyy5y555yyyyyy>,qqvvv0tt302tt1<<322300>yy",
"yyyyyyyy}}yy}yyyyyyyyyyyy5555yyyyyyyyyy>vvvv48832041110w2220>yyy",
"yyyyyyyyy}}}}yyyyyyyyy55>55555yyyyyyyyy&vcv&432322#23qqq#$$>tyyy",
"yyyyyyyyyyyyyyyyyyyy5555yyyyyyyyyyyyyyyy$>&y&322@#y#20q@yyyyyyyy",
"yyyyyyyyyyyyyyyyyy555yyyyyyyyyyyyyyyyyyyyyyyy@@@yyyyo+#yyyyyyyyy"
};
