/* XPM */
static char *result[] = {
/* columns rows colors chars-per-pixel */
"64 64 97 2 ",
"   c #201F1B",
".  c #321E15",
"X  c #41271B",
"o  c #522C16",
"O  c #552F19",
"+  c #563516",
"@  c #583715",
"#  c #553816",
"$  c #5A3B17",
"%  c #58351E",
"&  c #5B3D18",
"*  c #533222",
"=  c #543825",
"-  c #593A25",
";  c #523D2C",
":  c #5C3E2A",
">  c #613A28",
",  c #5C4217",
"<  c #5E4218",
"1  c #515414",
"2  c #585213",
"3  c #555916",
"4  c #595C17",
"5  c #5A5E18",
"6  c #614519",
"7  c #644A1A",
"8  c #645B17",
"9  c #655B19",
"0  c #685E1A",
"q  c #5D6018",
"w  c #616418",
"e  c #676A1A",
"r  c #696C1A",
"t  c #766916",
"y  c #6E701B",
"u  c #72751B",
"i  c #7F731E",
"p  c #77781E",
"a  c #5E412D",
"s  c #534A3E",
"d  c #60432F",
"f  c #624532",
"g  c #644936",
"h  c #664C39",
"j  c #684E3B",
"k  c #68513E",
"l  c #6F6F21",
"z  c #6F7021",
"x  c #767522",
"c  c #787722",
"v  c #7A7A22",
"b  c #7A7A28",
"n  c #5E5546",
"m  c #605748",
"M  c #635A4C",
"N  c #73654E",
"B  c #6B6353",
"V  c #736650",
"C  c #766E5F",
"Z  c #76715E",
"A  c #7E486D",
"S  c #756F61",
"D  c #7A7363",
"F  c #7E7967",
"G  c #7C7769",
"H  c #7E7869",
"J  c #80741E",
"K  c #855037",
"L  c #807F23",
"P  c #837E6D",
"I  c #847F71",
"U  c #838223",
"Y  c #85822C",
"T  c #89862C",
"R  c #8B8632",
"E  c #8E8833",
"W  c #86806F",
"Q  c #878172",
"!  c #898474",
"~  c #8C8679",
"^  c #8E897B",
"/  c #908C7E",
"(  c #76428A",
")  c #7E4693",
"_  c #874C9E",
"`  c #D77BBA",
"'  c #A95EC6",
"]  c #AC60C9",
"[  c #C56EE6",
"{  c #D778FB",
"}  c #8F8B80",
"|  c #918D81",
" . c #939087",
".. c #96948B",
"X. c #98958E",
"o. c #FF92DD",
"O. c white",
/* pixels */
"u u u u u u u u u u 7 7 7 u u u u u u u u u u u u u u u u u u u u u u u u u u u u u u u u u u u u u u u u u u u u u u u u u u u ",
"u u u u u u u u u 7 Y Y Y 7 u u u u u u u u u u u u u u u u u u u u u u u u u u u u u u u u u u h j h h g g u u u u u u u u u u ",
"u u u u u u u u u 7 U Y Y p 7 7 u u u u u u u u u u u u u u u u u u u u u u u u u O.u u u h j k Q ! W ! W n g f u u u u u u u u ",
"u u u u u u u u u 7 T Y Y p r r 7 u u u u u u u u u u u u u u u u u u u u u ' ' [ { u u g o.Z Z Q W ! W W W M M a u u u u u u u ",
"u u u u u u 6 7 < Y Y v p r r r 7 y u u u u u u u u u u u u u u u u u u u ' ' O.u u u h Z o.o./ ! Q W ! W ! M m a u u u u u u u ",
"u u u u u u 6 Y Y Y Y c p v p r e 7 7 6 u u u u u u u u u u u u u u u u ' ' O.u u u f F F Z o.! ! Q ! Q Q ! ! m n a u u u u u u ",
"u u u u u u 6 Y Y Y Y p r c v Y U r r r 7 u u u u u u u u u u u u u u ' ' [ u u u d F F F / o.! Q ! Q ! ! ! ! m M s , u u u u u ",
"u u u 7 7 7 p L v Y Y r r p Y Y Y U r r 6 u u u u u u u u u u u u u u ' [ u u u a D F P / o.o.! ! ! ! ! ! ! ! ! n s s a u u u u ",
"u u 7 Y R R L b v v v v v e Y Y Y Y e e 8 6 6 u u u u u u u u u u u u ' u u u u d V V / o.o.W ! ! ! ! ! ! ! ~ ! ~ s s ;   y y u ",
"u u 7 Y L L L c y Y Y Y Y v e e e e e 8 8 1 1 u u u u u u u u u u u u ' u u u u f N V / o.^ ^ ! ! ! ! ! ~ ~ ! ! ~ ^ s s     u u ",
"u u u 7 R R Y L p Y Y Y Y v r u l 8 8 8 1 3 1 u u u u u u u u u u u u ' [ u u a N N / ` ` ^ ^ ^ ^ ^ ! ! ~ ! ~ ~ ^ ^ n s ;     u ",
"u u u 7 l l u i i i i Y Y e e u x u z 1 1 < < u 6 u O.u u u u u u u u ' ' u u : V ^ ^ ^ ` ! ^ ^ ^ ^ ^ ! ! ^ ~ ^ ~ ^ s s s a     ",
"u u 7 y r x x 4 y x z e e r e 8 8 x y x , u u u 6 O.u u u u u u u u u u ' u : N | ^ ~ ^ ` ` ~ ^ ^ ^ / / } / ~ ~ ~ ~ s s s s a   ",
"u u 6 y x u 3 3 x y z 8 r e 8 8 y u x r 2 , u u u O.u u u u u u t 2 u ' ' u a N W ^ ~ ^ ~ ` ^ ^ ^ / / / } } ~ !  .M m n s s ;   ",
"u u 6 5 5 5 4 4 z y 8 8 1 1 1 1 y u y 1 1 @ u u ' ' ' u u u u u 2 7 u ' u a N P W P ..! ` ` ~ / / / / 8 < 7  . .M M n m s s s   ",
"u u u u < < 4 w e q 1 1 1 4 4 4 1 1 1 1 1 u u ] ' ' 6 , u u u 6 6 t A ' u a P P W W W ` ` ../  . ./ 7 U Y Y 2 Z B M n n n s =   ",
"u u u u u u < w w q w 1 @ 4 4 4 4 1 # + + u u ] ' u u 6 6 6 6 6 u u ( ] a F P P ' W ` ` W W ../ /  .7 U Y Y p 7 7 m M m m m ;   ",
"u u u u u u u & w q w & u &   u       u u u u ] ' ' u u 6 6 u u u y o.] a P P P ' ` ` P P W ......P 7 Y Y Y c r r 7 m n n n ;   ",
"u u u u u u u u & $ @ u 4 h j j j     u u u u ] ] ' u u 6 u u u u o.o.u - F P P ' ` ' P W ..F F 7 7 Y Y p v r e e 7 n n n n = y ",
"u u u u u u u u u u h h h Q I I I j     u u u u ] ' u 6 6 u u u u ( ( u - B B ' P ` ' ' P ..F 7 Y Y Y Y v c v p r r 7 6 < n = u ",
"u u u u u u u u y h I I I I I I I I h     u u u ] ' u 6 u u u u u ( ( u - B ' ' B P ` ] / D P 7 Y Y Y Y v e v v Y Y e r r 6 u u ",
"u u u u u u u u g } ~ ~ Q Q Q Q I G g       u u ] ( u 6 u u o.u K ( ( u u = ' B B B ` ' 7 7 6 v v v Y Y e e p Y Y Y U r r < u u ",
"u u u u u u u g S } ~ ~ ! ! Q Q Q G G g       u ] ( ( 6 6 K o.K K ) ( u u = ' B B B ' ' Y R Y v v v v v v v e Y Y Y U e e 8 6 6 ",
"u u u u u t d P S } Q ~ ~ ~ ~ ! ^ G F F g     u ' ( ( u 6 o.o.6 6 K ( K K K ' ' B B ' ( Y Y R T v y Y T Y Y v e e e r r 8 w 1 3 ",
"u u u u u g Z D | ! ! ~ ~ ~ ~  .H H G G g     u ( ( ( K K o.> > > > ( : > - * ] B B ' ' 6 Y Y Y i i Y Y Y Y c r u y 8 8 8 1 1 1 ",
"u u u u u f Z D | ! ! ~ ~ ~ ..G H H H S f     u ( _ ( > > o.> * * % ( * % * ( ' B B ( ' 6 u l u i i i i Y Y r e z x x u 1 1 & < ",
"u u u u u d B B  .} } } } ..C Z O O S S a K K K ( ( ( > * o.* * * ) ( * * * ( ' > * ( ' ( y x l 3 x z x r e e r 8 8 z z u $ u u ",
"u u u u u u < N B B M X...o o o u u 7 : u K K > > ( ( ( * o.* * ) ( ( * * * ( ' * * * ' ( x y 4 4 y y x 9 r e 8 8 u x y x 1 & u ",
"u u u u u u u $ B M M u 7 7 c u u u > > K K > > * ( _ ( * * * ) ( ( X X X * ( * * * * ( ( 4 4 4 4 x y 8 8 1 1 1 1 x y x 1 1 + y ",
"u u u u u u u u O M u 7 r e v u u u 7 K K > > * ( ( _ ( * * o.) ( X X X X A ( * * * * o.( < 6 4 w w q 1 1 1 3 4 3 1 1 1 1 1 # u ",
"u u u u u u u u u u u 7 e r r c v u u 7 7 > * * ( ( ( ( X X o.) ( X X X X A ( X X X * o.( * > < w q w w 1 $ 3 4 3 4 1 + + # u u ",
"u u u u u u u u 6 7 6 r r c c v v u u u u * * * ( ( ( X X X o.X X X X X X A ( X X X X ( ( * * * & w w w $ u $ 4 4 4 # u u u u u ",
"u u u u u u u 6 u u u Y Y c p r v u u x p 7 * X ( ( ( X X X o.X X X X X X A ( X X ( ( ( ( + * * > $ $ $ u u u # @ + u u u u u u ",
"u u u u u u u 6 u u Y Y Y Y v e e u u L v v 7 7 7 X X X X X o.A A . . . A A ( . ( ( ( ( X * > > > > u u u u u u u u u u u u u u ",
"u u u u u 6 6 8 u u Y Y Y Y e v v v v v v b Y Y T 7 . . . . . A A . . A ( ( ( ( ( ( X X X X > 6 > > u u u u u u u u u u u u u u ",
"u u u u 6 1 3 8 8 u u u u y c u Y Y Y r v T Y T Y 7 . . . . . A A . . ( ( . . ( ( . > > > > 7 < u 7 u u u u u u u u u u u u u u ",
"u u u u < 1 1 1 8 8 8 u x y v u u Y Y i J Y Y Y 7 : > . . . A A . . . ( . . . . ( . . > K u 6 u u 6 6 6 6 6 u u u u u u u u u u ",
"u u u u u < < 1 1 y u y u u u u u J J i i u x l 6 u K . . . . . . . . . . . . . . . u u u u u u u u u u u 6 6 6 2 u u u u u u u ",
"u u u u u u u & x y x 8 8 u u u u u u u 5 7 7 7 u 7 u u . . . . . . . . . . . . u u u u u u u u u u u u u u u u 6 u u u u u u u ",
"u u u u u u & 1 y z x y 8 8 u y 8 u u u 7 U Y Y 6 6 u u . . u u u u u u u u u . u u u u u u u p 7 7 7 u u u u u 6 u u u u u u u ",
"u u u u u u , 1 1 y y x 1 1 1 1 8 8 u u 7 Y Y Y v 7 7 . . . u u u u u u O.u u u u u u u p p p 7 R E E 6 u u u u 6 6 6 6 6 6 u u ",
"u u u u u u # 1 1 1 1 1 4 3 4 1 1 1 w w 7 Y Y Y p r r < u u u u u u u O.O.u u u u u u 7 7 7 u 7 E R E 7 u 7 6 p 6 u u u u u u u ",
"u u u u u u u @ 6 # 1 4 4 4 3 $ 1 w 7 7 Y Y c p r r r < u u u u u u u u u O.u u u u 7 T E E 7 U E E U U 7 v x 6 6 u u u u u u u ",
"u u u u u u u u 6 u + 4 4 4 + p @ 7 Y Y Y Y c v v p r r 7 < 7 u u u u u u u O.u u p 7 E E E U U U U U U c x x x 6 6 u u u u u u ",
"u u u u u u u , 6 6 u + # # u u p 7 Y Y Y Y p e c c Y Y e r e 7 u u u u u u u 7 7 8 L U U U U U U U U U b c c x 7 u u u u u u u ",
"u u u u u u 6 6 6 6 u u p u 7 7 7 v v v Y Y r e p Y Y Y Y e r < u u u u u u 7 E E E E E T i U E E E U U L c c 0 w 6 6 < u u u u ",
"u u u u u u 6 u u 6 6 u u 7 T Y Y b v v v v p c r Y Y Y Y r e 8 6 6 u u u u 7 T E E E T T p p T E E E U L u 0 8 8 y y r , u u u ",
"u u u u u u 6 u u u 6 u u 6 Y Y T Y b y Y Y Y Y p e r e r e 8 8 1 3 6 u u u u 7 E E U U p p u p E E E U p p u p 0 r t t 2 u u u ",
"u u u u u u 6 u u u u u u u 7 U R Y J J L R Y Y v r u x 8 8 8 1 1 1 < u u u u u 7 U T t t T T p p E E p p u L L L 8 r 6 p u u u ",
"u u u u u 6 6 u u u u u u u 7 u y y J J J J Y Y e e u l x y 1 1 < < u u u u 7 7 U U U t U T T T p p p p p R R R L y 6 p u u u u ",
"u u u u u 6 7 u u u u u u 6 u u y u 4 u l x e r e e 9 9 x l z $ p u u u u 7 Y Y T E U U U T T T J i J p p R R R y y y 6 < u u u ",
"u u u u , , 7 u u u u u u 6 u u u 4 4 u l y 8 e e 8 8 y y x y 1 $ u u u u 7 R R R E U U E E U i i J i u u R R u y r r r r < u u ",
"u 2 6 6 6 u 6 u u u u u u 6 4 4 4 4 4 u u 8 8 1 1 1 1 x r x 1 1 $ u u u u 6 R R R u y E E E U U U i u u R L L L v y y r r 3 < u ",
"6 6 u u u u 6 u u u u u u u 6 < , 4 w w q 1 1 1 4 4 4 1 1 1 1 1 # u u u u u 7 p v u u R E r U U U U u R R L L v v y r r 3 3 < u ",
"6 u u u u u 6 6 t u u u u u u u u , w w q w 1 $ 4 5 4 4 1 + + + u u u u u 7 v b c R R R r e E R R L L U L v R Y L r 8 5 3 , u u ",
"6 u u u u u t 7 u u u u u u u u u u , q w w $ u + 5 4 4 + u u u u u u u < e c x v R R R e e R R T u L v y R R R r y 3 3 , u u u ",
"u u u u u u u , u u O.O.u u u u u u u , , @ u u u @ # @ u u u u u u u u 6 r r r r R R y e e R R y y y y y T T y y r 3 3 1 , u u ",
"u u u u u u u 7 u u O.u u u u u u u u u u u u u u u u u u u u u u u u u , u y e w w y y r y y y 8 y y y y 3 3 r r 4 3 3 3 1 , u ",
"u u u u u u u u O.u O.O.u O.u u u u u u u u u u u u 6 u u u 6 u u u u u , l z e w r y r y r u y 5 4 y r y 2 2 3 3 3 5 5 q 4 , u ",
"u u u u u u u u O.u O.O.O.O.u u u u u u u u u u u u 6 u 6 6 6 u u u u u u < < w w b b b q y r 4 4 4 y r 2 1 2 4 3 3 5 5 4 , u u ",
"u u u u u u u u O.O.u u O.u u u u u u u u u u u u 6 6 6 6 u u u u u u u u u u < b b b b 5 8 8 4 4 5 8 2 2 2 w w 3 1 4 q , u u u ",
"u u u u u u u u u O.O.O.O.u u u u u u u u u 6 6 , 6 6 6 6 6 u u u u u u u u u , c v b < 5 5 5 4 4 3 # 3 4 w w w $ $ $ $ u u u u ",
"u u u u u u u u u u u u u u u u u u u u 6 6 6 6 u u u u u u u u u u u u u u u u $ , $ u @ 5 4 3 # # u + 1 w w @ u u u u u u u u ",
"u u u u u u u u u u u u u u u u u u 6 6 6 u u u u u u u u u u u u u u u u u u u u u u u u # + + u u u u o # # u u u u u u u u u "
};
