/* XPM */
static char *result[] = {
/* columns rows colors chars-per-pixel */
"64 64 129 2 ",
"   c #4F3210",
".  c #4E4C0F",
"X  c #50510F",
"o  c #4D4E12",
"O  c #4D4B1E",
"+  c #524E13",
"@  c #594F14",
"#  c #504618",
"$  c #534D1B",
"%  c #5A4E1B",
"&  c #4E5211",
"*  c #545512",
"=  c #5B5515",
"-  c #565913",
";  c #5B5C14",
":  c #555419",
">  c #5C541B",
",  c #5D5D19",
"<  c #605716",
"1  c #625D16",
"2  c #62571A",
"3  c #645D1A",
"4  c #695F1B",
"5  c #5E6115",
"6  c #5D6118",
"7  c #636416",
"8  c #6A6616",
"9  c #666916",
"0  c #696B17",
"q  c #656419",
"w  c #6A641B",
"e  c #666819",
"r  c #6C6C1A",
"t  c #706B17",
"y  c #71661F",
"u  c #716D1C",
"i  c #6E7017",
"p  c #6F711A",
"a  c #72741B",
"s  c #79751F",
"d  c #76781E",
"f  c #79791F",
"g  c #534327",
"h  c #574D25",
"j  c #594D20",
"k  c #574E2D",
"l  c #594F2B",
"z  c #565122",
"x  c #5B5524",
"c  c #5F5A25",
"v  c #57522C",
"b  c #5D542B",
"n  c #564E33",
"m  c #575136",
"M  c #5B5233",
"N  c #5B563F",
"B  c #645723",
"V  c #625C23",
"C  c #685E26",
"Z  c #61552C",
"A  c #645B2D",
"S  c #685D2E",
"D  c #645B34",
"F  c #685B31",
"G  c #665E3B",
"H  c #656422",
"J  c #6C6524",
"K  c #6E6B22",
"L  c #65632A",
"P  c #6B642A",
"I  c #726721",
"U  c #746D21",
"Y  c #786D25",
"T  c #72632C",
"R  c #756B2D",
"E  c #796B2B",
"W  c #757321",
"Q  c #7A7523",
"!  c #777B21",
"~  c #7C7B23",
"^  c #7D7529",
"/  c #7E7B29",
"(  c #666336",
")  c #6D6436",
"_  c #6F6837",
"`  c #6D633C",
"'  c #706034",
"]  c #706836",
"[  c #77683D",
"{  c #5D5944",
"}  c #635A44",
"|  c #625C49",
" . c #64604F",
".. c #6D634D",
"X. c #716444",
"o. c #736949",
"O. c #7A6E4B",
"+. c #696456",
"@. c #6D6A5F",
"#. c #716650",
"$. c #776D56",
"%. c #756D5B",
"&. c #786D58",
"*. c #79715E",
"=. c #736E62",
"-. c #786F61",
";. c #757064",
":. c #7B7362",
">. c #7E7866",
",. c #7B756A",
"<. c #817E25",
"1. c #807629",
"2. c #827E2A",
"3. c #857F30",
"4. c #817B6C",
"5. c #837E74",
"6. c #848126",
"7. c #85822B",
"8. c #89852D",
"9. c #8C892E",
"0. c #868230",
"q. c #8A8531",
"w. c #8E8831",
"e. c #928C37",
"r. c #868076",
"t. c #87837A",
"y. c #8A867E",
"u. c #8C887F",
"i. c #8D8982",
/* pixels */
"a a u w w a Q f 0 9 a f <.f 6.6.8.9.<.u t t w y U u s 2.8.f <.<.Q 7./ 0.q./ W p 0 7 9 ~ 7.  a a a a a a a a a a a a a a a a d ! ",
"u r E 3.a d 6.a 9 r d <.6.6.<.<.<.7.s a t w r w Y W Q 0.q.6.6.8.q.2.~ a r e i e 5 5 9 p ~   ^ u a a a a a a a a a a a d a a a a ",
"0.U Y 6.a g d g 7 e u <.8.8.a 6.6.d a f W 9 8 8 y Y   W 2.9.8.1.Q 7.2.a p a ~ W 9 7 7 r / q.2.  u a a p a a a a a a a a a a a a ",
"0.7.Q r g g r ; 7 9 7 u f q.2.s <.f u 8 y y 1.y   8.  1.1.q.8.a a W Q 6.<.f ~ / p 9 a / Q 8.  2.  a   W r p a a a a a a a a a a ",
"q.2.a 7 q Q a 5 r i a <.a s s g s a t 8 < U 8.2.<.~ <.9.  Y <.8.~ p 6.6.! / W 9 9 7 r u r Q   r w u a Q     a a i a a a a a d d ",
"2.Y a g a a r 7 7 r W r 0 7 I Q N a f Y u y 2.8.7.8.w.8.    s 8.2.W / W 7 r = H 7 ; 9 u 0 0 0 r r I Q Q 7.2.u   p i a a a a d i ",
"W Q <.8.f a 9 7 9 7 ; 5 , = S N N <.Q 2.3.<.8.9.8.6.9.6.<.s     W 6./ 6 5 5 z l & ; r     ~ r Q W J 7.7.2.U r Q     i i a a i d ",
"q.7.<.7.~ 6.~ q 9 7 ; 5 5 > N g t s 1.    8.2.8.q.w.e.6.6.8.<.f   ^ W - & * z $     5 7 ! 2.2.Q w ^ 0.2./ a r a d 5 . d i a a i ",
"6.q.<.<.W a u q 7 7 7 5 - g P a W ^ 2.  = 9.f <.e.7.6.8.6.<.d d Q   a 7 * - x -   - 9 7 9 8 <.a ; Q / Q 2.7.~ a ! W ; W ^ a a a ",
"Q q.7.8.u 7 5 7 7 5 ; N g J K a Y 2.  = - ~ a ~ 7.Q a ~ 6.6.<.f / 6.4 ; 5 = 7   ; 6 0 5 X - 0 7 = 3 ; Y 0./ W i r e e     I   a ",
"a W d <.~ u 9 t 7 ; ; 9 g <.~   w   - ; f i e a f 6.~ 6.6.9.w.<.s y 3   7 7 9 9 a r Q p - ; 0 9 5 9 6 , r e p 0 5 5 9 i Q 0.- p ",
"q q u a f f r V 7 1 7 r u Y Q ^ 2.a a 6.a 7 r d 6.6.6.<.~ <.8.f u u w   w 7 0 r W x H e - 6 r 8 9 r 5 ; w p ~ W 9 5 6 i ~ q.^ Y ",
"; , u ~ Q ~ p b V ; ; 7   3.Y Y 6.a r Q q 7 9 a <.7.8.d <.<.s a d d q 0 w U I W L m * - ; 5 7 9 0 9 9 1 W ~ / ~ a 9 a / / 0./ 6.",
"7 0 f f w 7 5 q U e w W u 0.2.~ r 9 W r ; 7 9 1 t f 9.7.s <.f 8 8 t 7 e w a   4 W G v N e 9 9 a a a w w 1 U W r 9 q 0 r 0 ~ p w ",
"9 r t N = - 7 e r r 1.  ^ q.2.f 7 q f a 7 0 i a <.a Q s u f a t t 1 , 7 e 9   0 4 j N N r a a a Q w = - 7 < = V 7 ; 0 p 0 9 r r ",
"0 N g 9 - 6 p r 9   2.2.2.2.u a a a a r 7 q r a u 9 1 J <.g a d f q ; r e p a - : O N   a p 7 ; a , * - ; > : j X ; e r a ~ p Q ",
"r g D - * - 6 p   w p Q / Q Q 6.8.! a 0 7 9 7 ; 5 ; - A g a ~ <.d u a W a f f   * N   * u 9 ; - , ; 0 7 7 8 w > X * 5 7 Q 6./ Q ",
"a q g = * * 6 r W w p 7.8.q.7./ <.~ 7.~ q 7 7 1 5 ; g g w a f <.<.~ <.6.f f u   N N o * 9 1 * - - e r w d / q = 1 1 9 7 9 w ~ a ",
"a r ( w 5 6 9   / U W q.7.2.q.2.<.W a r 7 7 7 7 5 - g P a Q 6.<.d <.2.W ; r f     = < * = * * - ; 7 0 a ~ r ; ; 9 1 r 5 * * r q ",
"8 r r r 0 r a 0 J 1 a W p ! q.6.8.u q 7 7 7 5 ; - 7 J u a f 7.f s <.a 5 ; 0 Q a 1 w 8 X , = - ; r a 9 9 Q a u 5 9 t Y r - 5 9 9 ",
"a a a Q p d ~ p 7 1 q 7 7 a W f 6.Q u 9 r 8 ; ; 8 a <.<.d i d d s 2.Q 9 = c g 9 7 5 7 1 U r w 7 9 r r 0 p Q a 7 r ~ y q X 5 i 0 ",
"0./ 2.3.Q Q W a u q 1 1 5 w 1 r d f d r C 7 1 7 0 a f 6.f t f f a a q 7 > g N - ; 7 5 7 u w q 7 r u u a Q g g a t u < ; 5 5 7 0 ",
"~ ~ { N t w , 0 w 4 < 7 ; ; ; u f f / p x c ; 5 7 0 s 6.<.<.<.f f r A x g   ; ; - ; 5 9 W 3 ; 9 a 7 r a N g r a ~ ~ Q x g 9 9 a ",
"0 W g C g - * < a W r 9 ; e 9 d f 8 7 5 1 W e 7 f i <.<.<.<.a / 2.r g g N   - 7 9 9 5 6 0 q * ; ; * K g g * * 9 f Q A g g a p a ",
"w 8 { N g = ; = r 7./ 9 ; e r p r , * 7 e r p a ~ Q 6.6.Q a i a u ; - N - - e 9 r 6 5 r w , ; 5 7 z g g - * - U 4 % l g p a 9 ; ",
"8 Q g g g g w ^ Q / W 6 9 0 g g 9 = ; a r e r r f 6.~ f 0 a 9 7 = * * V a 0 0 r 0 = 7 / Q w 0 0 e M N - * * 7 / 4 k g g p 9 ; - ",
"Q <.7.g Z j 4 2./ / p e u r c g g * - 7 i a ! W 2.7.~ 6.r ; * * ; 9 V L r p p f a 9 a Q 4 w 7 7 r e 7 r 6 5 u Q / C g * 9 1 * * ",
"~ <.<.g { M g Y 0.7./ / <.a 7 D g g & 5 e W / ! ~ W C r 5 5 g & N r u q p p w a r w W a q 8 9 7 9 9 a W q e ^ 3 P > X X = * * ; ",
"6.8.<.7.g N Y 2.0.2.<.2.Q a r ( H 9 , e 6 / 2.Q U 1 b g * g N N & b H p 2.Q ! Q r p Q / y 7 i 0 r f u 1 ; 1 , ; 5 - * * - X - 5 ",
"q r <.<.Q W g 2.r r s q 1 r r r r 0 r a e p e Q Y * x g g { N * , P H a / u W a / a Q W = 1 t r 9 9 1 * + * ; 9 7 7 5 - ; 5 i 5 ",
": W / q r <.Y 4 1 7 1 1 e Q a W Q p W / a e e p p 9 : g N - - 5 e a r r ! u e 9 0 9 7 7 8 1.w a 8 ; X = X & - 7 9 9 7 9 5 ; 7 9 ",
"5 , 1 , 7 r 9 9 3 ; ; 8 ~ 0.~ / 7.~ ! W a p e e e 9 q a u * 1 r r p ~ r a 7 ; ; 7 9 = = u Y 4 a f 8 = X - - - 9 i 7 9 r 3 - ; 7 ",
"  = 1 0 r u 3 4 r 9 ; 6 W ^ ~ 7.2.r 0 = 0 r 7 5 9 9 9 / ~ w t <.a p 7.a 5 * * * 5 6 ; 5 d 9 4 a f y 1 - - 9 7 7 7 9 r > m z ; ; ",
"q   3 a d ~ w r p 7 - - 6 0 g g P 2 = & ; ; 1 9 - 7 5 r ~ a Q 6.2./ ~ e 7 7 5 * * ; - 5 9 9 7 y Q Y b g 7 r 9 9 7 a ! 5 c H ; 5 ",
"a a   2.u U y 8 7 : - 6 7 e 0 g g b = 5 * : M ; * - 9 / 2.<./ ~ 6.6.<.Q 9 8 7 - * - - 7 7 1 < 1 < < g w a u a a a W 9 p a i 9 0 ",
"a a t   1 w a Q p e q a W 8 Q g g g g = * x - - * 5 9 W <.7.~ a W / 6.7.7.u 1 7 e * 5 7 7 7 B M M g & 5 0 9 u Q W 1 ; = e i 9 5 ",
"a a a a q 3 Q 2.a a a 2.7.f 6.6.y g g g * x ; - - 6 i d <.Q a r a 2.1.a a 0 0 a a 6 Q / 7 1 < x H = . * 7 0 f s 7 * X ; 9 w 9 7 ",
"a a a a 8 Y 2.2.~ / ~ 7.Q / 6./ a S - = w 1 9 5 * 6 r ! W 8 a u 0 a a u a 9 r r 0 u ~ f w w 3 - 9 0 5 7 7 a t 7 * * : N 9 7 p 0 ",
"a a a a     ~ 6.6.Q 6.7.a 6.7.6.8.Q A W ~ a 7 - 5 p r 9 ; 7 f a w 9 t a f a 8 t ~ <.a Q ^ 3 7 5 9 r 0 9 9 7 ; X o z N N - 1 p r ",
"a a a a a r J ~ 6.Q <.2.e 7 K / 2.~ Q 2.! a 0 5 9 5 7 - ; 7 r r r a a 8 a a 9 8 u ~ f w 4 1 r 9 9 Q a 9 9 7 7 ; + M N   - 0 a a ",
"a a a a a i   a 2.2.W t ; - W / w 9 <.~ 0 a W a a 5 ; 5 0 9 1 a 9 w 1 = 1 9 r ; = 7 7 , 7 7 a a f Q r 8 a 9 7 1 l N   X - 7 0 i ",
"a a a a a 9   i W Y 2.u 7 ; 1 1 1 7 r 0 0 a / 2.a 7 ; 5 9 x x 9 7 * + * 7 a a 7 - 1 < 1 0 3 3 Q Q ~ r a 8 r W b N - - - - 7 a f ",
"a a a a a i 9   1 q w ) H 1 > 1 9 r a 1 w ~ ~ 2.Q 7 * ; %   $ + * - * = 0 0 ; - ; < 7 8 7 h N Q = 1 ~ f t f E N   - 9 - 7 u f u ",
"a a a a a a a i     { %.{ G S 1 a f f a w 2.4 w u 1 =   l k   * * ; > G J r   , ;   t 0 8 + N Z 8 8 a Y u w N { 7 7 8 9 r 8 7 1 ",
"a a a a a a a a p 8 _ N 5.:.K w / I Q Q < B b @ = = 1   M l - = & - * %.#.g ; @ @   9 1 @ . # N Y u 9 = > 2 {   5 t t r r u 8 8 ",
"a a a a a a a a a a g y.i.%.r g r q < q * l m   ; = a 3 m %   * * ; G 5.-.g 7 w   ;   ; - - -   < x = h k   = 8 8 0 0 y i a r a ",
"a a a a a a a a a a g y.{ %.w a a       , > N   = 9 a V N   7 q q > ,.N %.N a a 9 1 1 9       1 #   n { N # 1 s i a s w w W y a ",
"a a a a a a a a a a ] u.5.[ g a a a u a     m n w a r M n   a a a ` u.N -.N a a a 8 8 a i a i u =   N N M   1 4 u s U u r r a a ",
"a a a i a a a ! i i g O.O.0.Q w r ~ ! p r 1 M { V p V { N r a a a o.u.N r.g a p a a a a a a a a a   | | N w a a w y u a a a a a ",
"d a a d a a a a a 9 / 7.<.7.<.Q Y w ! a p W    .{ A N N B a a a r ..t.i.r.g a d ! ! a a a a a a a A | N } u a a i a a a a a a a ",
"d i a i a a a i ! 2.8.6.7.9.6.~ r 4 4 p p a   +.+.N N { r a a a a o.u.u.:.K a a ! ! d i a a a a a   +.+.| y I y a a a a a a a a ",
"a a a d a a a a K 8.6.! ~ 9.7.f a w w w d p p  .{ { +.} r a a a a g ( ` N p a a i a i d d d a a a ` ;.X.' I 8.Q w 8 a a a a a a ",
"a a a a a a a i y <.f 7.6.<.f f 7.W w u a a p g =.=.@.( p a a a a u g N g a a a d i a d a a a a a   &.1.8.<.6.6.W U 0 d a a a a ",
"a a d i a a a 9 8.8.6.8.6.1.<.8.7.a w 3 p a p g =.,.;.P a a a I U y 8.^ r r a a a a d i a a a a a E 3.6.<.6.w.6.~ I 3 w i a a a ",
"a a a d a a a i ^ ~ 2.2.6.<.9.7./ a 0 , 7 a a _ t.N :.K a p r 1.9.<.6.<.d a i i a a a a a a a a a R 8.<.f <.w.6.f a w w 0 a a a ",
"a a d i a a i i W 2.2.a 8.<.~ <.7.W , , r a a _ y.y.%.w p Y 2.0.<.6.9.6.! i 5 9 i a a a a a a a r T 2.1.2.6.<.f ~ 7.a q i a a a ",
"a a a a a a i 9 r W W p W p p K K e - - q W a N N y.%.r a U 8.<.f ~ 8.6.s u r w w a a a a a a a J 0.8.6.9.<.f / 7.7.W e q r a a ",
"a a a a a a p 9 q r W r e 6 e , - - , = q d a _ y.{ >.K u I <.~ 6.6.<.f <.8.a 4 r a a a a a a a w ^ ! 2.<.6.6.8.7.<.! e , 3 a d ",
"a a a a a a a i V W J , , - = = 6 = = 9 a a p ) 5.N >.r y 3.0.6.8.2.1.<.7.2.a w q u a a a a a i w W 2.7.a 0.2.~ / 8.p 6 , p a a ",
"a a a a a a a a u w w < : 3 q = , p d ! ! d r g t.i.4.T y Q ! 7.6.6.<.8.8.6.! w , 7 a a a a a i w r W W p Q K p p K e : = e a a ",
"a a d a a a a a a a a a u a a r i i ! ! f a r :.{ N ,.F w W 0.2.K 0.6.~ / 7.a , > p a a a a a p C 3 r W w e 6 r ; = - 6 = w a a ",
"a a a a a a a a a a a a a a d a a a i a p a p g i.t.,.A q r W W p ! p p p K e : - e a a a a a a a 4 W J 1 , - = = ; : = q a a a ",
"a d a a a a a a a a a a a a a p a a a a a a a K $.*.o.Y q H p K r e 6 w , - 6 : - r a a a a a a a p w w = = 3 q = < i i a a a a ",
"a i a a a a a a a a a a a a a a a a a a a a a a r r p a p q R K , 6 = = = , - - 9 a a a a a a a a a a a a r a d r a a a a a a a "
};
