/* XPM */
static char *result[] = {
/* columns rows colors chars-per-pixel */
"64 64 102 2 ",
"   c #201F1B",
".  c #321E15",
"X  c #41271B",
"o  c #522C16",
"O  c #552F19",
"+  c #563516",
"@  c #5A3B17",
"#  c #5B3D18",
"$  c #533222",
"%  c #543825",
"&  c #593A25",
"*  c #523D2C",
"=  c #5B3E29",
"-  c #613A28",
";  c #5C4217",
":  c #5E4218",
">  c #515514",
",  c #555916",
"<  c #595C17",
"1  c #614519",
"2  c #654A1A",
"3  c #645B17",
"4  c #655B19",
"5  c #685E1A",
"6  c #616418",
"7  c #676A1A",
"8  c #696C1A",
"9  c #766916",
"0  c #6E701B",
"q  c #72751B",
"w  c #7F731E",
"e  c #77781E",
"r  c #5F432E",
"t  c #534A3E",
"y  c #60432F",
"u  c #614532",
"i  c #644A36",
"p  c #664C39",
"a  c #684E3B",
"s  c #68513E",
"d  c #6F7021",
"f  c #767522",
"g  c #787722",
"h  c #7B7A22",
"j  c #56314B",
"k  c #5E5546",
"l  c #605647",
"z  c #605748",
"x  c #635A4C",
"c  c #74664E",
"v  c #6A6253",
"b  c #736650",
"n  c #766E5F",
"m  c #786F5F",
"M  c #76715E",
"N  c #7A466A",
"B  c #756F61",
"V  c #777060",
"C  c #7A7363",
"Z  c #7E7967",
"A  c #7C7769",
"S  c #7E7869",
"D  c #80741E",
"F  c #855037",
"G  c #807F23",
"H  c #8E5178",
"J  c #91557A",
"K  c #94597B",
"L  c #847E6E",
"P  c #8E6077",
"I  c #8D6379",
"U  c #92667A",
"Y  c #946A7A",
"T  c #986E7B",
"R  c #847F71",
"E  c #9D737C",
"W  c #A1767F",
"Q  c #838223",
"!  c #85832C",
"~  c #89862C",
"^  c #8B8632",
"/  c #8E8833",
"(  c #86806F",
")  c #878172",
"_  c #898475",
"`  c #8C8679",
"'  c #8E897B",
"]  c #908C7E",
"[  c #975683",
"{  c #A17783",
"}  c #A96192",
"|  c #AC60AE",
" . c #AD6BAE",
".. c #B473B1",
"X. c #DC7CD8",
"o. c #8F8B80",
"O. c #918D81",
"+. c #939087",
"@. c #96948B",
"#. c #E684C7",
"$. c #FF92DD",
"%. c white",
/* pixels */
"q q q q q q q q q q 2 2 2 q q q #.N #.q q q q q q q q q #.#.#.q q q q q q q q q q q q q q q q q q q q q q q q q q q q q q q q q ",
"q q q q q q q q q 2 ! ! ! 2 q q N N N #.q q q q q q q q q N #.#.q q q q q q N q q q q q q q q q a a a i p r q q q q q q q q q q ",
"q q q q q q q q q 2 Q ! ! e 2 2 q N #.#.#.q q q q q q q N N N #.#.N q q q N N N #.#.#.q q p a s ( _ ( ( ( k i u q q q q q q q q ",
"q q q q q q q q q 2 ~ Q ! e 8 8 2 q q #.#.#.N q q q q q q N N N N N N #.#.#.N #.#.#.#.#.i M M M _ ( _ ( _ _ k k r q q q q q q q ",
"q q q q q q 1 2 : ! ! h h 8 8 8 2 q q q #.N N N q q q q q #.N N N N N #.#.#.#.#.#.#.#.u M L M ] _ _ _ ( _ _ x x r q q q q q q q ",
"q q q q q q 1 ! ! ! ! e g e g 8 8 1 1 1 #.N N N q q q q #.N N N N N N #.#.q q q q q u L M M ] _ _ #._ _ _ ( #.x k r q q q q q q ",
"q q q q q q 1 ! ! ! ! g 8 e e ! ! 8 8 8 1 #.N N q q q #.N N N N N N N N #.N q q q y M L ( ' ' _ _ #.( ( _ _ _ k x t r q q q q q ",
"q q q 2 2 2 e G h ! ! 7 8 h ! ! ! Q 7 8 1 N N N N q N #.#.N q q #.N N N N N N q y M L L ] _ _ _ _ _ ( ` _ _ _ _ t t t ; q q q q ",
"q q 2 ! ^ G g w h h h h h 8 ! ! ! ! 7 7 4 1 N N #.N N N q q q q q q N #.#.N #.} r c c ' ' ' _ _ _ ( #.` _ _ ` ) ' t t r   0 q q ",
"q q 2 ^ ^ ^ G G 8 ! ! ! ! h 8 7 7 7 7 3 3 , , q #.#.N #.q q q q q q q #.#.#.#.#.r c c ' _ } } _ _ ` ( _ _ ` _ ` ' ' t t     q q ",
"q q q 1 ^ G ! G e ! ! ! ! h 7 0 d 3 3 3 , #., q q #.#.N #.q q q q q q q q #.N #.#.c ] ' ' ' } } ' ' _ _ _ _ ` ` ' ' t t %     q ",
"q q f 1 f d q D D D D ! ! 8 7 q q d 0 > > # # q 1 q N N N #.q q q q q q q N N N #.] ` ' ' _ ' } } ' ' _ _ #.' ` ' ' t t t t     ",
"q q 1 q f 0 d < d q f 7 7 7 8 3 3 0 f f ; q q q 1 1 N N #.#.#.} W } 9 0 N } N #.#.` ` ' ' ' _ ' } ] ] ' ' o.' ` ` ` t t t t r   ",
"q q 1 0 d 0 < < f d 0 3 8 8 3 3 f q 0 d > @ q q q N N N N #.#.#.q } N N N N #.#.( N ` ' ' _ ' } ' ] ] ] o.' ` ` +.x x k t t *   ",
"q q 1 < < < < < 0 d < 3 > > > > q 8 0 > > @ q q q 1 N N #.#.N #.1 N N N N #.#.} N N N ` ' ' } } ] ] ] 3 : 2 +.+.x x z z * t *   ",
"q #.q q 1 1 < 6 6 6 > > > < < < > > > > > q q q #.#.#.#.N N N N H N N N N #.} } N N N @.@.@.} ] ] ] 2 ~ ! ! , M v x k k k t t   ",
"#.#.#.q q q # 6 6 6 6 > #., < < < > + + + #.q q q #.#.N N N N #.q N N N N N } L N N N R L } } O.+.@.2 Q ! ! e 1 2 x x k l k r   ",
"#.#.#.#.N q q # 6 6 6 @ q N N q       q q q q q q #.#.#.N #.#.#.#.N N N N N } L N N N L L } N O.@.Z 2 %.! ! g 7 8 2 x l k k *   ",
"q #.#.N N N q q @ @ @ q N N N %.a     q q q N q q #.#.N 1 #.#.#.#.#.N q & N } L N N N L L } N L 2 2 %.%.%.g 7 7 8 1 k l k k % 0 ",
"q #.N N N N q q q q p p a N %.%.%.N     q N N q q #.N N N N #.N N #.#.q & #.N L N N N L N } A 2 ! ! N %.N h h N 8 8 1 2 ; k $ q ",
"q N N N N #.q q q p R R R R R %.N N N     N q q N N %.N N N N N N N q q & v N v N N N N N } L 2 ! ! N N N } N N ! Q 8 7 8 ; q q ",
"q N N N N #.#.q i o._ _ ) ) ) R N N N N   N N N N %.%.%.N N #.N N F q q q % N N N N N N 2 2 1 h h h N N N } N ! ! ! ! 8 8 ; q q ",
"q #.N N N N #.#.B o.` ` _ _ _ R ( A N N N   N q N N %.N N N #.#.F q q q q % v N %.N N 2 ! ! G h h h N N N } 8 ! Q ! Q 8 8 3 ; 2 ",
"q q N N N #.#.m B o.) ` ` ` ` _ ' A A N N N N q q #.#.#.N #.#.#.1 F F F F F % %.%.%.N N ! ^ ^ ! h N N N #.N h 8 7 7 8 8 3 6 , , ",
"q q #.N #.u M C O._ _ ` ` ` ` +.S S A A N N N q q q #.} F F #.- - - - - - - N N %.N N N N ! ! ^ N N N ! } ! h 7 d d 3 3 3 > > > ",
"q q #.#.#.y m M O._ _ ` ` ` @.A S S A V u N N N F F F } - - N N $ O $ $ #.N N N N N v v N N q N N N D g N ! 7 8 q d d f > > : : ",
"q q q #.#.#.v v o.o.o.o.o.@.n n O O V B r N N N N - - } $ $ N N $ $ $ $ N N N N N $ $ 1 0 #.N N N } 0 #.N 7 8 7 3 3 d 0 q ; q q ",
"q q q #.#.#.r b v v v #.@.%.o o q q 2 = q N N N N N %.N N N N $ $ $ $ N N N N N $ $ $ 1 N N N N < } f N N 8 7 3 3 f 0 f f > # q ",
"q q q q #.#.#.#.N #.N #.%.%.%.#.#.#.N N N #.- N N %.%.%.N N N N N X N N N $ $ $ $ $ $ N N N N < < } 0 N 3 > > > > f 0 q > > + 0 ",
"q q q #.#.#.#.N N N N N N %.N N #.N N N N N N #.$ N %.N N N N N N %.N N X X X $ $ $ N N N N 1 < } } 6 N > > , < , > > > > > + q ",
"W #.#.#.#.#.#.#.N N N N N N N #.#.#.N N N N N N #.N $ } X N N N %.%.%.N X X X X N N N N N $ - # } 6 N N > @ < < < < > + + + q q ",
"#.#.#.#.N N N #.#.#.N N #.W W W { E E E E N N N N #.X X X X N X N %.N N $.X X N N N N N $ $ $ $ } N N #.@ q @ < , < + q #.q q q ",
"E #.#.N N N N N #.#.#.! ! h e 7 { E E E E K [ N #.#.#.$.$.X N X N N N N N X j X N N N X $ $ $ } #.#.#.#.#.#.q + + + q q q q q q ",
"q q #.#.N N N N N #.! ! ! ! h T T E E { { { : 2 2 #.N $.X X X j j N . N $.. . . K X $.X X N } } - %.#.#.#.N #.q q q q q q q q q ",
"q q q 0 q #.#.N q q Q ! ! ! 7 h W h h h h G ! ! ! 2 N N . . [ [ . . [ N . . $.$.. X X N N N - 1 %.%.%.#.N N N #.N q q q q q q q ",
"q q q q 1 > , 3 3 q q q q 0 g q ! ! #.0 h ! ~ ! ! 2 . N N . . . $.. [ %.%.[ $.#.N . - N - - 1 1 q %.q q } N #.N N N q q q #.q q ",
"q q q q : , > , 3 3 3 q d q h q q ~ ! D w ! ! #.#.N #.#.#.. [ $.. $.%.%.%.%.#.N N N . - F q 2 q q 1 1 1 } } #.#.N #.#.#.#.#.q q ",
"q q q q q ; ; > > 0 d f q q q q q e D D w q #.#.N N N #.#.#.[ $.. [ $.%.%.N #.#.N . q q q q q q q q q q q 1 } #.#.#.#.#.#.#.q q ",
"q q q q q q 0 @ 0 d 0 3 3 q q q q q q q < #.#.N N N #.#.#.#.#.. . . N N N N N . q q #.#.#.q q q q q q q q q q q 1 q #.#.N #.q q ",
"q q q q q q # > f f 0 f 3 3 q q 3 q q q #.#.#.N N N q } #.#.#.q #.N N N N N q . q q q q #.#.q e 2 2 2 q q q q q 1 q q N N N #.q ",
"q q q q q q @ > > f 8 f > > > > 3 3 q #.#.#.N N N 1 2 . #.#.#.N #.q N #.#.q q q q q q q w q q 2 ^ ^ ^ 2 q q q q 1 1 1 1 N #.#.q ",
"q q q q q q @ > > > > > < , < > > > #.N 2 #.N N N 8 8 2 0 #.N N N #.#.#.%.q q q q q q 2 2 2 q 2 / / ^ 2 q 2 1 q 1 q q q #.#.#.q ",
"q q q q q q q + 1 + > < < < , @ > #.N N N #.#.N 8 8 8 1 q q N N N #.#.q q %.q q q q 2 / / / 5 Q / / Q G 2 g f 2 1 q q q q #.N #.",
"q q q q q q q q 1 q + < < < #.#.N #.#.N #.#.e h h e 8 8 1 1 2 N #.#.#.q q q %.q q q 2 / / / Q Q Q Q Q Q g g g g 1 1 q q q N N N ",
"q q q q q q q N #.#.N #.#.#.#.N N N #.#.#.! g 7 g e ! ! 8 7 7 2 #.#.#.#.#.q q 2 2 2 Q Q Q Q Q Q Q Q ! Q g g g g 2 q q q q N N N ",
"q q q q q q N N N N N N N #.#.#.N #.#.#.! ! 7 7 e ! ! ! ! 8 7 : q #.#.#.N #.2 / / / / ~ ~ e Q / / / Q Q G g g 5 3 2 ; ; q N N N ",
"q q q q q #.#.N #.N N N N N #.#.#.#.h G h h e h 8 ! ! ! ! 7 7 3 } 1 q N N N #./ / / / ~ ~ e q / / / / Q G #.6 3 3 0 0 0 ; N N N ",
"q q q q N #.#.#.#.#.N N N #.#.#.! ^ h 8 ! ! ! ! e 8 7 7 8 8 3 3 } } : q N #.#.2 / / ~ Q e q e q / / / Q e q e q 3 0 0 8 2 q N N ",
"q q q N N N #.#.#.#.#.#.#.#.2 Q ! ! D D G ^ ! ! h 8 q q < 3 3 > , } : q 0 #.%.#.2 Q ! 9 9 ~ ~ e e / / e e q G G G 4 8 1 e q #.N ",
"q q q #.N #.1 q q q E E E E K W 0 q D D X.G ! ! 8 T T { { E > > ; : q q q %.%.%.Q Q Q 9 Q ~ ~ #.#.#.#.#.e ^ ^ ^ G 0 1 q q q q #.",
"q q q #.#.#.; E E E E E W K W W E 0 < 0 9 q 7 T T T K U { T E ; q q q q q #.%.#.~ / #.Q ! ~ ~ ~ D D D e f ^ ^ ^ 0 #.0 1 : q q q ",
"E E E E #.K K W E E E E E K T E E U U E W T U T T U U W E T E J J E E E #.#.#.#./ / Q Q / / Q w D D D q q ^ ^ q 0 8 8 0 8 ; q q ",
"E P P K K W K W E E E E E P P U P Y U W E Y P P K > > q f 8 I I J E E E #.#.#./ ^ q 0 / / / Q Q Q w q q ~ G G G h 0 0 0 8 , : q ",
"K P E E E E P E E E E E E E K K P P Y Y Y P P > < < < > > > > I H E E X.#.N #.g h 0 q / ^ 8 Q Q Q Q q ^ ^ G G h G 8 8 8 , , : q ",
"1 q q q q q 2 1 q q q q E E W E E P Y I Y Y > @ , #.< < > + + + q q #.#.N N N h g ^ ^ ^ 8 8 ^ ^ ~ G G Q G G ^ ! h 0 3 3 , : q q ",
"1 9 q q q q 9 2 q q q q q W E E q q ; 6 6 6 @ q @ < < < O q #.q q #.N #.#.N g g g ^ ^ ^ 7 7 ^ ^ ^ q G h 0 ^ ! ^ 8 0 , , : q q q ",
"q q q q q q 9 1 q q %.%.#.q q q q q q ; ; @ q q q + + #.#.q q q #.N N N #.7 7 7 8 ^ ^ 0 7 7 ^ ^ 0 0 0 0 0 ~ ! 0 0 8 , , , ; q q ",
"q q q q q q q > q q %.q q q q q q q q q q q q q q q q q #.q q #.#.#.N #.: q f 7 6 6 0 #.0 0 0 0 3 #.0 8 0 , , 0 0 > , , , > ; q ",
"q q q q q q q q %.q %.%.q %.q q q q q q q q q q q q 1 q q q 1 #.#.N #.q : #.d 6 6 0 8 E T T E E U U T E E K P , , , < < < < ; q ",
"q q q q q q q q %.q %.%.%.%.q q q q q q q q q q q q 1 q 1 1 1 #.N N N q q ; K Y U { { { U E T I U U .. . .I P I > < < < 6 ; q q ",
"q q q q q q q q %.%.q q %.9 q q q q q q q q q q q 1 1 1 1 q q #.#.N q q E E E K { { { { U  . . . . . . . . . ...I I Y Y J E E E ",
"q q q q q q q q 9 %.%.%.%.q q q q q q q q q 1 1 1 1 1 1 1 1 q #.#.#.q E E E E K { { ..K  . . . .I I H U I Y Y  . .H J K E E E E ",
"q q q q q q q q q q q q q q q q q q q q 1 1 2 ; q q q q q q q q #.q q q E E q q # J J .. . . . .| | E H I  . .| ......E E E E E ",
"q q q q q q q q q q q q q q q q q q 1 1 1 q q q q q q q q q q q q q q q q q q q q q E E ..H H H E E E E H H H E E E E E E E q q "
};
