/* XPM */
static char *result[] = {
/* columns rows colors chars-per-pixel */
"64 64 191 2 ",
"   c #201F1B",
".  c #321E15",
"X  c #41271B",
"o  c #522C16",
"O  c #563516",
"+  c #5A3B17",
"@  c #5B3C18",
"#  c #533222",
"$  c #563C29",
"%  c #4E2538",
"&  c #613A28",
"*  c #6C353A",
"=  c #713C35",
"-  c #5C4217",
";  c #5E4218",
":  c #505414",
">  c #555916",
",  c #595C17",
"<  c #624619",
"1  c #654A1A",
"2  c #645B17",
"3  c #626418",
"4  c #696C1A",
"5  c #6E701B",
"6  c #72751B",
"7  c #7F731E",
"8  c #5E412C",
"9  c #534A3E",
"0  c #674D32",
"q  c #644B38",
"w  c #764236",
"e  c #784637",
"r  c #7A4837",
"t  c #6D5334",
"y  c #68513E",
"u  c #775335",
"i  c #7A5D37",
"p  c #7A7A22",
"a  c #7B6037",
"s  c #7E6438",
"d  c #6C264F",
"f  c #743A43",
"g  c #602753",
"h  c #772C53",
"j  c #742865",
"k  c #5D5345",
"l  c #754249",
"z  c #605749",
"x  c #645C4D",
"c  c #76515F",
"v  c #74654E",
"b  c #6C6454",
"n  c #756A56",
"m  c #76715E",
"M  c #7C5965",
"N  c #797161",
"B  c #80741E",
"V  c #855037",
"C  c #865E34",
"Z  c #82663B",
"A  c #8D663A",
"S  c #836838",
"D  c #896C3E",
"F  c #8F723E",
"G  c #90723F",
"H  c #84354F",
"J  c #853C4E",
"K  c #853550",
"L  c #873A51",
"P  c #8A3E51",
"I  c #833358",
"U  c #843C5D",
"Y  c #8C3B5D",
"T  c #872C65",
"R  c #923562",
"E  c #963D64",
"W  c #903369",
"Q  c #97396C",
"!  c #942B77",
"~  c #A13C73",
"^  c #A63D7D",
"/  c #824B4F",
"(  c #8A574E",
")  c #905E4F",
"_  c #8D4252",
"`  c #844F50",
"'  c #8E4F52",
"]  c #904753",
"[  c #865151",
"{  c #8C5551",
"}  c #8E5852",
"|  c #905152",
" . c #925C53",
".. c #8A6D40",
"X. c #927345",
"o. c #96754A",
"O. c #98774B",
"+. c #9A784C",
"@. c #976055",
"#. c #986253",
"$. c #9F6659",
"%. c #A16155",
"&. c #A06758",
"*. c #A46B5D",
"=. c #8E4563",
"-. c #85456B",
";. c #994165",
":. c #934B63",
">. c #994A63",
",. c #924769",
"<. c #9D4069",
"1. c #9C5465",
"2. c #8C4E72",
"3. c #9B4275",
"4. c #97487E",
"5. c #955778",
"6. c #A54966",
"7. c #A05767",
"8. c #A15965",
"9. c #A85866",
"0. c #A05568",
"q. c #A65B69",
"w. c #A95E6A",
"e. c #A34673",
"r. c #A84974",
"t. c #A95174",
"y. c #AC5379",
"u. c #B05777",
"i. c #B25579",
"p. c #B3597D",
"a. c #B8587C",
"s. c #87646F",
"d. c #837D6D",
"f. c #8D6B77",
"g. c #906F7A",
"h. c #93727D",
"j. c #A66C61",
"k. c #AA6E63",
"l. c #AB606D",
"z. c #AE6272",
"x. c #B06372",
"c. c #85822B",
"v. c #89872D",
"b. c #8D8833",
"n. c #878272",
"m. c #898474",
"M. c #8C8779",
"N. c #8D887A",
"B. c #908C7E",
"V. c #A43E80",
"C. c #AF3D83",
"Z. c #B93B91",
"A. c #9C4E83",
"S. c #9A5E82",
"D. c #AC4885",
"F. c #B64E83",
"G. c #B6428F",
"H. c #B8458C",
"J. c #BC4D8C",
"K. c #A5578D",
"L. c #BC528A",
"P. c #AB4E92",
"I. c #BD4991",
"U. c #AB5E94",
"Y. c #B15699",
"T. c #B3599D",
"R. c #9E6486",
"E. c #9F6488",
"W. c #967581",
"Q. c #987783",
"!. c #9A7A87",
"~. c #9C7B89",
"^. c #A26589",
"/. c #A4698C",
"(. c #AD6196",
"). c #A76C91",
"_. c #A96E93",
"`. c #AF6298",
"'. c #B1649B",
"]. c #AC7197",
"[. c #AD7299",
"{. c #B0779F",
"}. c #B178A1",
"|. c #C04596",
" X c #918D81",
".X c #95938A",
"XX c #A08192",
"oX c #E88ED9",
"OX c #EFA4E3",
"+X c #F8C0EF",
"@X c #F5D7F0",
/* pixels */
"6 6 6 6 6 6 6 6 6 6 1 1 1 #.#.#.6 6 6 6 6 6 6 6 6 6 6 6 6 6 6 6 6 6 6 6 6 6 6 6 6 6 6 6 6 6 6 6 6 6 6 6 6 6 6 6 5 6 6 6 6 6 6 6 ",
"#.#.#.8.8.S S S S 1 c.c.*._ #.#.#.#.#.#.#.#.8.8.8.8.8.8.8.8.8.8.%.#.#.#.#.#.#.6 6 6 6 6 6 6 6 6 y q ,.:.=.-.#.#.#.#.#.#.#.#.#.#.",
"#.#.8.8.8.8.8.8.8.e X.c.c.$._ ] #.#.#.#.#.%.8.8.8.8.8.8.8.8.8.8.8.8.8.8.8.8.#.#.#.#.#.6 6 q y y n./.U.U.U.4.3.Q 8.8.8.8.8.8.8.#.",
"#.8.8.8.8.8.8.8.8.>.w.l.X.D a a _ #.#.#.#.#.8.8.8.8.8.8.8.8.8.8.8.8.8.8.8.8.8.#.#.#.#.#.0 m m m h.R.Y.(.U.U.4.4.Q 8.8.8.8.8.8.8.",
"6 6 S 6 6 #.' _ _ l.l.q.8.a a a w 6 6 6 6 6 6 6 6 6 6 S S S S S S S S S S S 6 #.#.#.#.q N N N !.h.h.R.R.h.h.M c l A Z Z S S S 6 ",
"6 6 6 6 6 6 ; c.c.*.*.8.q.q.D a 4 - < 1 6 6 #.#.#.#.#.6 #.#.8.8. .S S ) S S 6 6 6 #.=.R.^.R.'.(.(.(.(.m.m.m.m.x z $ 6 p 6 6 6 6 ",
"6 6 6 6 6 6 < c.c.c.X.D 1.D D c.c.4 4 4 < #.#.#.#.#.#.#.8.8.8.t.9.7.S S S S S 6 #.Y ^.^.R.]._.(.(.(.(./.).).).2.2.-.U  .#.#.#.#.",
"6 6 6 1 1 1 7 p p c.c.a a 6 c.c.c.c.4 4 < 6 #.#.#.#.#.1.8.8.8.8.0.D S S S S 6 6 8 R.^.^.].)._.).(.(.(.(.(.(.(.(.-.-.c _ #.#.#.#.",
"6 6 1 c.c.c.p p p p p p p 4 c.c.j.c.4 4 2 < < 6 6 6 6 8.S S S S S S S S S 6 6 6 8 v v  XM.M.m.m.m.h.h.(.(.(.(.`.'.-.-.U g #.#.#.",
"6 6 1 c.b.c.b.p  .j.*.l.l.q.1.1.1.1.i u u : > 6 6 6 S ) S ) ) ) ) ) S S S S 6 6 8 v v  XN.N.N.m.m._.m.h.Q.Q.h.h.M. X9 9     6 6 ",
"6 6 5 < c.c.c.%.%.*.z.l.l.q.1.1.0.>.,.u t t : 6 6 6 S )  .) ) ) ) ) ) S D 6 6 $ v v  XN.N.N.N.N.].].).).(.'.`.`.(.M.9 9 $     6 ",
"6 6 p < 5 p @.$.%.9.9.l.l.1.1.1.Z 0.0.=.0 @ - 6 < 6 6 ) S A S S S 8.#.#.#.#.#.U 5.].N.N.N.N.N.N.N._.].(.(.'.`.'._.[.9 9 9 $     ",
"6 6 < 6 p 5 5 =.5 5 s 4 4 4 a u u ..1.1.E 8.8.#._ _ #.#.8.#.#.#.#.#.#.#.#.#.U 5.]._._.N.N.N.N.N.B.N.'.'.'.'.`._._.N.9 9 9 9 9   ",
"6 6 < 6 5 5 , , 5 p 5 2 4 4 2 2 5 5 ..1.] E 8.8.8.P #.#.#.#.#.#.#._ #.#.#.) =.5./.].M.N.N.W.Q.N.B.B.B.h.!.Q.M.m..Xx x 9 9 9 $   ",
"6 6 ; , , , , , p 5 2 2 : : : : p 5 5 : ` R 8.8.8.E E #.#.#.8.8.E w S S S l [ g.h.g..XW.Q.Q.Q.~. XB.B.2 w 1 .X.Xx x x x 9 9 $ g ",
"6 6 6 6 < < , 3 3 , : : : , , , : : : : : 6 6 S S S = w S S S = w S S S S f W.g.h.g.g.].XXXX~.B.B.B.1 v.c.c.> m x x z x z 9 j g ",
"6 6 6 6 6 6 - 3 3 3 i 0 + , , , , : + O O 6 6 6 6 S S w w w w w S S S S f g.g.U.U.U.U.U.U.U.{.].{.{.] *.*.*.$._ _ 2.2.2.2.2.U g ",
"6 #.#.#.#.#.#.P :.1.:.R 1.L g 5       6 5 6 6 6 6 6 6 S w = 6 6 6 6 6 6 8 d.^.^.^./././././.{.{.{.^.] *.*.*.$.}  .] 2.2.2.2.U   ",
"#.#.#.#.#.#.#.8.E R E 1.[ ,.,.,.y     5 6 6 6 6 6 6 6 6 < 6 6 6 6 6 6 6 $ N d././././././.{.^.R.] P l.l.8.8.1.}  ._ 2.2.2.-.$ 6 ",
"#.#.#.#.#.#.8.8.8.8.3.3.3.(.(.(.(.3.j j j.8.8.8.#.#.#._ _ #.#.6 6 6 6 6 $ n b d.d.d.d.d.d.XXf.w X.X.X.X.D D D D 4 4 < < ; k # 6 ",
"#.#.#.#.#.#.#.8.1.4.U.U.U.U.U.U.U.Y.3.j j 5.0.0.8.#.#.P #.#.#.#.6 6 6 6 # b b b b d.d.d.!.f.f.e X.X.X.X.D i D D ..c.4 4 4 1 6 6 ",
"#.#.i.#.#.1.8.t.V.T.Y.Y.Y.Y.Y.Y.Y.Y.V.j T T t.t.#.#.#._ #.#.#.#.6.6.6 6 6 $ b b b b b n e e w D A A X.X.i s D X.X.c.c.4 4 ; 6 6 ",
"6 #.#.8.S S ) e.P.T.T.`.(.(.U.(.U.K.U.4.j j j 8.9.#.#._ P 6.V 6.^ 9.j.1.A * M M M b b w X.X.X.....D D D D D i X.X.c.c.a a 3 ] _ ",
"6 6 8.S S ) U S.S./.W.W.W.W.W.W.!.f.f.M l % % S 6 #.#.#.P _ _ = E r.r.r.r.r.R A.A.A.A.;.y.p.p.w.w.0.l.l.w.z.q.1.1.3.t.r.>.>.( l ",
"6 6 6 S S 0 s.K.'.).).)._._._.{.E.E.E.E.=.    #.#.#.6.6.6.6.Y Y = f ~ Q Q Q W A.D.A.A.D.~ p.p.p.t.t.i.p.u.u.y.r.t.t.3.e.e.` / ` ",
"6 6 S S S l K.K.'.).)._._._.}.E.E.E.E.S.=.g g  .6.6.6.Y Y R Y I I I I # I I I I 2.A.A.A.~ 1.0.5.9.9.9.9.z.u.t.r.t.t.y.1.` ` - @ ",
"6 S S S S l M A.'.'.[.[.[.}.5.R.I K S.R.=.6.6.6.6.Y Y Y I I I I I I I I # # # # $ # # < 6 6 6 ..u Z Z Z ( ( ( ( u 2 6 5 6 @ 6 6 ",
"6 6 S S S s f M M b x .X.Xo o o 6 6 1 $ 6 6.6.& & & # # # # I I I I I W W W W * f * * < 5 5 5 , > p 4 p , a i u u s ..s Z 0 = 6 ",
"6 ) S S S S S = b x x 6 1 1 p 5 6 6 & & V V & & # # # # # # # # I h T T T W W W W W W E [ [ [ [ ` #.p , 2 : 0 0 0 Z Z Z 0 0 = Z ",
") ) ) S S S S 6 o x #.1 4 4 p 5 6 6 1 V V & & # # # # # # # X X X h T T T T T W W W W W E P _ ` { { { / ` ` ` ` t 0 0 q 0 0 * 6 ",
") ) ) S 1.8.#.#.$.@.#._ 4 4 4 p 7 6 6 1 1 & # # # o # # % X X X X X X T T T % T T T W W W I Y P { { { { ` L [ [ :.:.] R R R #.#.",
") ) ) #.#.#.#.#._ _ _  .} p $.$.#.8.8.8.8.W W W W T T T W T h h X X X X h h h I h T T W W W W W E >.{ { L #.L :.:.:.R 8.8.#.#.#.",
") S 8.t.8.8.9.E 8.8.S *.j.#.#.1.q.8.0.q.8.;.Q T T T T T T h h h h X X X X h h h h h T T W W W W Q R E L #.8.8.R R R 8.#.#.#.#.#.",
"S 1.t.t.) S S w S s X.l.*.j.q.1.1.8.8.q.w.w.E Q ;.T T T h h h h . . . . . . d d h h h T T W ~ f f f 6 6 S S S S S S S S S S 6 6 ",
"S S 1.) S w w u S S l.z.l.l.1.9.q.q.q.q.w.w.q.w.*._ d . . . . . . . . . . . . . . X X X X X & = f f S S S S S S S S S S S S S S ",
"S S y.7.E ] =.:.>.1.8.8.8.8.q.8.l.l.w.1.q.X.X.o.X.1 . d d d d d d d . . . . . . . . & & = f = e S E 8.9.8.8.S S S S S S S S S S ",
"6 j.#.1.E :.:.:.>.>.>.1.1.Z q.8.8.w.X.A A X.X.o.1 & Y d d d d d d d d d . . . . d d d Q r.8.E 8.8.E E E E ;.8.8.8.8.8.9.1.8.8.8.",
"6 6 #.#.#.P L / ` #.5 p p 6 6 6 6 B B B p 6 6 6 < 6 V d d d d d d d d d d d d d d d #.#.9.8.0.0.F.F.F.F.F.C.C.C.C.F.F.u.u.u.i.#.",
"6 6 6 6 6 6 6 $ p 5 5 2 2 6 6 6 6 6 6 6 , 1 1 1 6 1 6 6 . . . . . . d d ! ! ! ! i.i.i.i.u.F.a.F.F.9.8.8.8.8.i.i.^ u.u.u.i.i.i.i.",
"6 6 6 6 6 6 + : 5 5 5 p 2 2 6 6 2 6 6 6 1 *.*.*._ _ #.#.d d #.#.6 7  . .i.i.i.! #.#. .#.8.8.8.9.;.] _ #.#.#.#.#._  .#.#.#.#.#.6 ",
"6 6 6 6 6 6 + : > p 5 5 : : : : 2 2 6 6 _ *.*.j.$._ ] d d d 8.8.8.8.8.8.OX8.8.8.8.8.#.8.9.8.8.;.o.o.o.e S S D 6 < < < < < < 6 6 ",
"6 #.#.#.#.#.H / l / ` : , , , : : : 3 3 1 j.*.*.#.{ ) _ 8.1.8.1.8.8.8.OX@XS S S S S S 1 r r S w +.o.o.e S e w Z w A 6 6 6 6 6 6 ",
"#.#.#.#.#.#.#.H _ H / [ ` [ [ @ : 3 1 1 c.c.p p 4 4 4 e D S S S 8.8.S S S @XS S S S 1 v.b.+.r G +.o.F F e Z Z e w S S 6 6 6 6 6 ",
"6 #.#.#.#.#.#.#._ #.K [ ` [ L  .= E X.X...c.p p p p a a e w w S S S S S S S @XS 6 #.] k.k.k.*.j.l.l.l.w.q. .D Z = w 6 6 6 6 6 6 ",
"#.#.#.#.#.#.#._ P < 6 H J H #.1.1.;.w.z.l.l.$.} #.q.l.l.1.i s < 6 6 6 S S S S r 6.;.l.l.l.j.l.l.l.l.u.u.t.t.y.D e 6 #.#.#.#.#.#.",
"6 #.#.#.#.#._ _ _ _ 6 6 6 6 ;.;.;.q.w.w.l.*. . .$.*.z.l.w.1.1.E 8.S S S S S w O.O.x.x.x.l.t.u.a.u.a.u.u.u.t.t.r.>._ _ P #.#.#.#.",
"6 6 6 6 6 6 ; 6 #.P _ #.#.;.l.z.z.$.$.$.$.$.$.#.} *.*.z.l.1.1.>.E E 8.8.8.8.;.O.O.O.O.G O.S ) +.+.*.p.u.u.t.r.r.>. . . ._ #.#.#.",
"6 6 6 6 6 6 ; S 6 #._ #.#._ l.z.l.z.q.1.*.*.j.j.$. .} } 1.1.>.:.:.=.E 8.8.8.8.;.O.O.G X.A S S S +.x.k.l.8.q.1.9.|  .) ) _ #.#.#.",
"6 6 6 6 6 6 w 8.8.6  .#.#.#._ X.w.z.9.9.w.z.z.*.q.1.1.7.;.>.>.:.] :.E 8.8.1.8.S V G G C A G O.S #.k.k.$.9.8.w.w.q.>.1.;.#.#.#.#.",
"6 6 6 S S w ~ t.t.8.8.8.9.8._ #.#.8.9.9.9.9.l.y.1.1.7.Z s ..q 0 = = S S S S e e F G G C G +.G v.#.#.$.#.q.x.z.z.w.8.E 8.8.#.#.6 ",
"6 6 S S D E ~ t.t.8.8.I.J.Z.J.I.J.J.D.J.I.I.I.1.e.1.>.>...i Z = Z Z S S S e l.z.w.x.k.*.*.*.k.*.B %.%.#.#.x.z.z.1.1.1.;._ #.6 6 ",
"9.l.8.S = ^ Z.|.I.I.I.I.I.Z.I.I.I.G.G.I.I.J.H.H.1.:.' p 5 5 p : @ D S S Z >.z.j.k.k.&.*.k.k.*.#.%.a.a.F.F.L.z.8.Z 6 4 4 4 ; 6 6 ",
"9.;.;.<.<.w.~ F.F.y.i.t.y.~ e.G.G.G.G.J.I.H.G.=.=.=.=.#. .p > : + 5 6 #.#._ k.j.k.#.#.k.k.k.*.$.w.9.a.8.z.w.w.&.%.6 4 4 4 > ; 6 ",
"<.<.9.w.9.q.e.|.|.J.I.8.0.9.E E E :.1.>.>.=.=.=.:.:.[ / ` l l ` K #.#.#.8.1.e D A Z Z o.O.1.l.u.|.|.F.|.|.a.a.a.$. . . .` > ; 6 ",
"_ #.#.L.J.8.E E  .#.#.#.#.#.#.#.#._ { { { 1.:.= t , , [ ` K K K #.#.#.8.1.e D ..D o.o.o.1.1.z.z.x.u.u.w.j.l.l.j.$.@.' ' ` _ 6 6 ",
"_ #.#.#.#.8.8.E 8.9.8.8.8.8.8.8.8.1.E { ( 3 @ 6 + , , , O #.#.#.#.#.8.S w i D D D o.o.o.a 1.z.z.x.8.w.w.0.l.z.z.@. .[ / / 6 6 6 ",
"#.#.#.#.#.8. .w S S @X@XS S S S S S S w + + 6 6 6 O O O 6 6 6 6 6 S S S w a a a a o.o.s a a O.O.s Z s Z Z X.o.4 4 4 > > > - 6 6 ",
"6 6 6 6 6 6 A w S S @XS S S S S S S S 6 6 6 6 6 6 S 6 6 6 S S S S S S S w 1.1.) { }  .@.1.1.1.s u 5 5 6 4 , , 4 4 > > > > : ; 6 ",
"6 6 6 6 6 6 S S @XS @X@XS @XS 6 6 6 6 6 6 6 A S S S w S ) ) J ) ) t.t.8.E 0.0.1.:.1.1.1.1.8.1.1.:.[ 1.)  ./ / ' ` ` ( , , , - 6 ",
"6 6 6 6 6 6 6 S OX8.OXOXOXOX#.8.8.8.8.1. .t.8.8.t.t.~ t.~ Q e.t.t.1.8.8.F.C.C.D.D.L.L.J.:.1.0.>.:.:.8.1._ / / / ` ` [ [ , - 6 6 ",
"6 #.#.#.#.#.#.#.+X+X8.8.OX1.8.8.6.t.t.t.t.8.t.t.t.~ ~ ~ ~ 9.8.1.8.8.1.F.F.8.8.E q.q.q.q.>.>.>.:.:.:.:./ / / } } / / ( > - 6 6 6 ",
"#.#.#.#.#.#.#.#.#.OXOXOXoXt.t.t.t.t.t.t.t.t.Q ~ Q ~ ~ ^ ~ Q t.t.8.S S S 8.8.8.E y.t.y.E :.:.:.>.u :.H / [ } } { J J J _ #.#.#.#.",
"#.#.#.#.#.#.#.#.6 6 S ) ) ) ) S S S S S w w J J S S S S ) ) ) ) ) S S S S S D S = = E 8.J [ [ / H J #.H ` { { H #.#.#.#.#.#.#.#.",
"#.6 6 6 6 6 6 6 6 6 6 6 S S S S S S w w w S S S S S S S S ) ) ) S S S S S S S S S S S #.#.L H H #.#.#.#.H H H #.#.#.#.#.#.#.#.#."
};
